<?xml version="1.0" encoding="utf-8"?>
<!-- Generator: Adobe Illustrator 16.0.0, SVG Export Plug-In . SVG Version: 6.00 Build 0)  -->
<!DOCTYPE svg PUBLIC "-//W3C//DTD SVG 1.1//EN" "http://www.w3.org/Graphics/SVG/1.1/DTD/svg11.dtd">
<svg version="1.1" id="Layer_1" xmlns="http://www.w3.org/2000/svg" xmlns:xlink="http://www.w3.org/1999/xlink" x="0px" y="0px"
	 width="131.395px" height="24.211px" viewBox="0 0 131.395 24.211" style="enable-background:new 0 0 131.395 24.211;"
	 xml:space="preserve">
<style type="text/css">
<![CDATA[
	.st0{fill:#FFFFFF;}
]]>
</style>
<path class="st0" d="M5.403,0c0,0-0.207,0.157-0.565,0.483C4.48,0.81,3.972,1.308,3.398,1.999C3.112,2.345,2.813,2.741,2.519,3.19
	C2.228,3.64,1.94,4.142,1.692,4.702C1.446,5.26,1.236,5.875,1.115,6.535C1.054,6.864,1.015,7.204,1,7.552
	C0.988,7.899,1.003,8.253,1.046,8.611C1.056,8.7,1.073,8.789,1.085,8.879C1.101,8.968,1.12,9.057,1.136,9.147
	C1.13,9.115,1.138,9.149,1.138,9.146l0.004,0.019l0.009,0.036l0.019,0.072c0.01,0.049,0.022,0.097,0.034,0.146
	C1.216,9.468,1.228,9.516,1.24,9.565c0.006,0.024,0.011,0.05,0.018,0.072l0.021,0.064c0.027,0.085,0.056,0.17,0.084,0.256
	l0.021,0.064c0.006,0.022,0.013,0.043,0.022,0.065c0.017,0.044,0.035,0.088,0.052,0.133c0.035,0.087,0.07,0.176,0.106,0.265
	c0.039,0.087,0.082,0.173,0.123,0.26c0.043,0.087,0.079,0.176,0.129,0.26c0.048,0.085,0.095,0.17,0.143,0.256
	c0.044,0.087,0.101,0.168,0.153,0.251s0.107,0.167,0.16,0.25c0.059,0.081,0.117,0.161,0.177,0.242s0.117,0.163,0.185,0.239
	c0.063,0.078,0.129,0.156,0.192,0.234l0.049,0.059l0.052,0.056l0.105,0.112c0.559,0.599,1.212,1.141,1.949,1.589
	c0.734,0.45,1.539,0.825,2.391,1.108c0.852,0.286,1.752,0.476,2.674,0.58c0.116,0.012,0.232,0.023,0.348,0.034l0.174,0.019
	c0.058,0.004,0.117,0.006,0.175,0.01c0.117,0.006,0.233,0.012,0.351,0.019l0.176,0.009l0.176,0.002c0.47,0.01,0.943,0,1.418-0.029
	c0.949-0.062,1.902-0.198,2.847-0.408c0.236-0.055,0.472-0.115,0.707-0.172c0.058-0.016,0.117-0.027,0.177-0.045l0.174-0.051
	l0.351-0.101l0.177-0.05l0.043-0.014l0.021-0.006c0.017-0.005,0.001,0,0.012-0.004l0.092-0.029l0.369-0.115l0.344-0.115l0.351-0.121
	c0.47-0.167,0.94-0.34,1.409-0.525c0.234-0.095,0.469-0.187,0.703-0.283c0.233-0.096,0.469-0.196,0.703-0.294
	c0.938-0.396,1.877-0.811,2.824-1.215c0.947-0.403,1.905-0.794,2.879-1.141c0.485-0.176,0.977-0.338,1.471-0.488
	s0.99-0.286,1.49-0.407c0.999-0.241,2.011-0.417,3.016-0.521c0.252-0.021,0.501-0.048,0.753-0.06
	c0.125-0.008,0.25-0.017,0.374-0.022c0.125-0.004,0.25-0.009,0.374-0.014c0.124-0.006,0.248-0.005,0.371-0.006
	c0.125,0,0.248-0.003,0.371,0c0.246,0.005,0.49,0.006,0.733,0.022c0.487,0.021,0.966,0.069,1.437,0.127
	c0.47,0.066,0.93,0.143,1.378,0.242c0.896,0.196,1.743,0.455,2.526,0.765c0.782,0.31,1.504,0.664,2.157,1.043
	c0.655,0.378,1.244,0.778,1.775,1.176c0.131,0.1,0.261,0.198,0.388,0.297c0.123,0.102,0.244,0.201,0.363,0.3
	c0.06,0.049,0.117,0.097,0.176,0.146c0.057,0.05,0.111,0.1,0.168,0.148c0.109,0.098,0.218,0.195,0.324,0.289
	c0.206,0.195,0.404,0.381,0.586,0.564c0.09,0.093,0.178,0.184,0.264,0.271c0.085,0.089,0.169,0.174,0.247,0.262
	c0.636,0.682,1.08,1.26,1.378,1.653c0.291,0.401,0.44,0.619,0.44,0.619s-0.226-0.144-0.632-0.415
	c-0.104-0.067-0.219-0.141-0.346-0.221c-0.063-0.041-0.129-0.084-0.197-0.129s-0.14-0.092-0.215-0.137
	c-0.151-0.092-0.311-0.193-0.481-0.3c-0.172-0.103-0.354-0.212-0.55-0.328c-0.094-0.059-0.195-0.114-0.299-0.172
	c-0.102-0.058-0.207-0.118-0.314-0.179c-0.027-0.016-0.055-0.03-0.081-0.046s-0.056-0.029-0.082-0.044
	c-0.056-0.03-0.112-0.061-0.169-0.092c-0.113-0.06-0.229-0.123-0.346-0.186c-0.119-0.061-0.24-0.122-0.364-0.186
	c-0.062-0.03-0.123-0.063-0.187-0.095c-0.063-0.03-0.127-0.061-0.191-0.091c-0.129-0.063-0.26-0.124-0.395-0.188
	c-0.134-0.061-0.271-0.121-0.41-0.184c-0.556-0.24-1.151-0.477-1.784-0.687c-0.158-0.05-0.319-0.102-0.481-0.153
	c-0.163-0.046-0.328-0.093-0.496-0.141c-0.167-0.042-0.336-0.086-0.508-0.129c-0.171-0.038-0.345-0.077-0.52-0.116
	c-0.703-0.143-1.438-0.247-2.197-0.298c-0.379-0.031-0.768-0.037-1.158-0.043c-0.098,0-0.197,0.003-0.296,0.004
	c-0.049,0.001-0.099,0.001-0.147,0.002c-0.051,0.001-0.101,0.004-0.149,0.006c-0.101,0.003-0.2,0.007-0.3,0.01
	c-0.101,0.005-0.201,0.014-0.301,0.02c-0.203,0.011-0.406,0.031-0.61,0.049c-0.103,0.009-0.204,0.022-0.308,0.033
	c-0.103,0.012-0.205,0.022-0.309,0.037c-0.414,0.051-0.832,0.125-1.254,0.198c-0.212,0.044-0.424,0.079-0.639,0.127
	c-0.106,0.023-0.213,0.044-0.32,0.068s-0.215,0.048-0.323,0.073c-0.432,0.101-0.868,0.205-1.31,0.322
	c-1.767,0.467-3.614,1.045-5.544,1.652c-1.928,0.605-3.922,1.27-6.002,1.828l-0.392,0.102l-0.403,0.102l-0.381,0.088l-0.094,0.021
	c-0.005,0.002-0.037,0.01-0.036,0.008l-0.024,0.006l-0.051,0.011l-0.201,0.041l-0.403,0.083l-0.202,0.041
	c-0.066,0.015-0.135,0.023-0.203,0.035c-0.271,0.044-0.541,0.091-0.812,0.132c-1.087,0.154-2.183,0.226-3.271,0.211
	c-0.544-0.008-1.087-0.038-1.624-0.093l-0.201-0.02l-0.201-0.026c-0.133-0.02-0.268-0.037-0.4-0.057
	c-0.066-0.009-0.134-0.017-0.2-0.027l-0.198-0.037c-0.132-0.024-0.264-0.048-0.396-0.073c-1.05-0.209-2.072-0.514-3.032-0.927
	c-0.96-0.412-1.861-0.923-2.669-1.526c-0.812-0.599-1.521-1.3-2.112-2.059c-0.035-0.047-0.072-0.096-0.109-0.143l-0.055-0.07
	l-0.052-0.074c-0.067-0.098-0.136-0.196-0.202-0.294c-0.07-0.097-0.13-0.198-0.19-0.299c-0.062-0.102-0.121-0.201-0.181-0.302
	c-0.056-0.103-0.109-0.207-0.164-0.309c-0.053-0.103-0.108-0.204-0.152-0.311c-0.094-0.211-0.189-0.417-0.262-0.632
	c-0.039-0.106-0.08-0.212-0.115-0.317c-0.031-0.107-0.063-0.214-0.094-0.321c-0.016-0.053-0.031-0.107-0.047-0.16
	c-0.009-0.025-0.015-0.053-0.021-0.082L0.22,10.274c-0.024-0.111-0.049-0.222-0.073-0.332L0.128,9.859
	c-0.006-0.027-0.008-0.05-0.012-0.075c-0.007-0.05-0.014-0.1-0.021-0.149C0.08,9.529,0.064,9.424,0.048,9.32
	c-0.01-0.105-0.022-0.212-0.029-0.316c-0.006-0.106-0.014-0.21-0.016-0.315c-0.013-0.417,0.008-0.826,0.061-1.219
	C0.117,7.076,0.198,6.699,0.3,6.34c0.209-0.718,0.502-1.359,0.821-1.926c0.322-0.568,0.675-1.063,1.024-1.496
	c0.351-0.434,0.699-0.806,1.025-1.126C3.826,1.149,4.394,0.709,4.786,0.42C5.179,0.133,5.403,0,5.403,0"/>
<path class="st0" d="M125.993,0c0,0,0.207,0.157,0.564,0.483c0.358,0.327,0.866,0.825,1.44,1.516
	c0.286,0.346,0.585,0.742,0.878,1.191c0.292,0.45,0.58,0.952,0.828,1.512c0.246,0.558,0.456,1.173,0.577,1.833
	c0.06,0.329,0.1,0.669,0.113,1.017c0.014,0.347-0.002,0.701-0.046,1.059c-0.01,0.089-0.025,0.178-0.039,0.269
	c-0.015,0.089-0.033,0.178-0.051,0.268c0.006-0.032-0.001,0.002-0.001-0.001l-0.004,0.019l-0.009,0.036l-0.019,0.072
	c-0.011,0.049-0.022,0.097-0.034,0.146c-0.013,0.049-0.024,0.097-0.036,0.146c-0.007,0.024-0.012,0.05-0.019,0.072l-0.021,0.064
	c-0.028,0.085-0.057,0.17-0.084,0.256l-0.021,0.064c-0.006,0.022-0.013,0.043-0.022,0.065c-0.018,0.044-0.035,0.088-0.053,0.133
	c-0.034,0.087-0.069,0.176-0.105,0.265c-0.039,0.087-0.082,0.173-0.123,0.26c-0.043,0.087-0.079,0.176-0.129,0.26
	c-0.048,0.085-0.096,0.17-0.144,0.256c-0.044,0.087-0.1,0.168-0.152,0.251c-0.054,0.083-0.107,0.167-0.16,0.25
	c-0.06,0.081-0.118,0.161-0.177,0.242c-0.061,0.081-0.117,0.163-0.185,0.239c-0.063,0.078-0.129,0.156-0.192,0.234l-0.05,0.059
	l-0.052,0.056l-0.104,0.112c-0.559,0.599-1.212,1.141-1.949,1.589c-0.735,0.45-1.539,0.825-2.392,1.108
	c-0.852,0.286-1.753,0.476-2.674,0.58c-0.115,0.012-0.231,0.023-0.347,0.034l-0.174,0.019c-0.059,0.004-0.117,0.006-0.175,0.01
	c-0.117,0.006-0.233,0.012-0.351,0.019l-0.176,0.009l-0.176,0.002c-0.471,0.01-0.944,0-1.418-0.029
	c-0.949-0.062-1.903-0.198-2.848-0.408c-0.235-0.055-0.471-0.115-0.707-0.172c-0.058-0.016-0.116-0.027-0.176-0.045l-0.175-0.051
	l-0.35-0.101l-0.177-0.05l-0.043-0.014l-0.021-0.006c-0.018-0.005-0.001,0-0.013-0.004l-0.092-0.029l-0.369-0.115l-0.343-0.115
	l-0.351-0.121c-0.471-0.167-0.94-0.34-1.409-0.525c-0.234-0.095-0.469-0.187-0.703-0.283c-0.234-0.096-0.469-0.196-0.703-0.294
	c-0.938-0.396-1.877-0.811-2.825-1.215c-0.946-0.403-1.904-0.794-2.879-1.141c-0.484-0.176-0.976-0.338-1.47-0.488
	s-0.992-0.286-1.491-0.407c-0.999-0.241-2.01-0.417-3.015-0.521c-0.252-0.021-0.501-0.048-0.753-0.06
	c-0.125-0.008-0.25-0.017-0.374-0.022c-0.125-0.004-0.25-0.009-0.374-0.014c-0.124-0.006-0.248-0.005-0.372-0.006
	c-0.124,0-0.247-0.003-0.37,0c-0.247,0.005-0.491,0.006-0.734,0.022c-0.486,0.021-0.966,0.069-1.436,0.127
	c-0.47,0.066-0.93,0.143-1.378,0.242c-0.896,0.196-1.743,0.455-2.526,0.765s-1.504,0.664-2.158,1.043
	c-0.654,0.378-1.243,0.778-1.774,1.176c-0.131,0.1-0.261,0.198-0.388,0.297c-0.123,0.102-0.244,0.201-0.363,0.3
	c-0.061,0.049-0.118,0.097-0.176,0.146c-0.057,0.05-0.112,0.1-0.168,0.148c-0.11,0.098-0.219,0.195-0.324,0.289
	c-0.206,0.195-0.404,0.381-0.586,0.564c-0.09,0.093-0.178,0.184-0.265,0.271c-0.085,0.089-0.169,0.174-0.247,0.262
	c-0.635,0.682-1.079,1.26-1.378,1.653c-0.292,0.401-0.439,0.619-0.439,0.619s0.225-0.144,0.632-0.415
	c0.104-0.067,0.219-0.141,0.345-0.221c0.063-0.041,0.129-0.084,0.197-0.129c0.069-0.045,0.14-0.092,0.216-0.137
	c0.151-0.092,0.311-0.193,0.481-0.3c0.172-0.103,0.354-0.212,0.549-0.328c0.095-0.059,0.196-0.114,0.299-0.172
	s0.207-0.118,0.315-0.179c0.026-0.016,0.054-0.03,0.081-0.046c0.026-0.016,0.055-0.029,0.082-0.044
	c0.056-0.03,0.111-0.061,0.169-0.092c0.112-0.06,0.228-0.123,0.346-0.186c0.119-0.061,0.24-0.122,0.364-0.186
	c0.061-0.03,0.123-0.063,0.186-0.095c0.064-0.03,0.128-0.061,0.192-0.091c0.129-0.063,0.26-0.124,0.394-0.188
	c0.134-0.061,0.271-0.121,0.41-0.184c0.556-0.24,1.152-0.477,1.785-0.687c0.158-0.05,0.319-0.102,0.48-0.153
	c0.163-0.046,0.329-0.093,0.496-0.141c0.167-0.042,0.336-0.086,0.509-0.129c0.171-0.038,0.345-0.077,0.52-0.116
	c0.703-0.143,1.438-0.247,2.197-0.298c0.379-0.031,0.767-0.037,1.158-0.043c0.098,0,0.196,0.003,0.296,0.004
	c0.049,0.001,0.099,0.001,0.147,0.002c0.05,0.001,0.101,0.004,0.149,0.006c0.1,0.003,0.2,0.007,0.3,0.01
	c0.1,0.005,0.201,0.014,0.301,0.02c0.202,0.011,0.405,0.031,0.61,0.049c0.102,0.009,0.204,0.022,0.307,0.033
	c0.104,0.012,0.206,0.022,0.31,0.037c0.414,0.051,0.832,0.125,1.254,0.198c0.212,0.044,0.424,0.079,0.638,0.127
	c0.107,0.023,0.214,0.044,0.321,0.068s0.215,0.048,0.322,0.073c0.433,0.101,0.869,0.205,1.311,0.322
	c1.766,0.467,3.614,1.045,5.543,1.652c1.929,0.605,3.923,1.27,6.002,1.828l0.392,0.102l0.403,0.102l0.381,0.088l0.094,0.021
	c0.006,0.002,0.037,0.01,0.036,0.008l0.025,0.006l0.05,0.011l0.202,0.041l0.403,0.083l0.201,0.041
	c0.067,0.015,0.136,0.023,0.203,0.035c0.271,0.044,0.541,0.091,0.813,0.132c1.086,0.154,2.182,0.226,3.271,0.211
	c0.544-0.008,1.086-0.038,1.624-0.093l0.202-0.02l0.201-0.026c0.133-0.02,0.267-0.037,0.4-0.057
	c0.066-0.009,0.134-0.017,0.199-0.027l0.198-0.037c0.132-0.024,0.264-0.048,0.396-0.073c1.05-0.209,2.071-0.514,3.031-0.927
	c0.961-0.412,1.861-0.923,2.67-1.526c0.811-0.599,1.521-1.3,2.11-2.059c0.037-0.047,0.074-0.096,0.111-0.143l0.055-0.07l0.051-0.074
	c0.068-0.098,0.137-0.196,0.203-0.294c0.069-0.097,0.129-0.198,0.19-0.299c0.061-0.102,0.121-0.201,0.181-0.302
	c0.056-0.103,0.109-0.207,0.163-0.309c0.053-0.103,0.109-0.204,0.153-0.311c0.093-0.211,0.189-0.417,0.262-0.632
	c0.039-0.106,0.079-0.212,0.115-0.317c0.031-0.107,0.063-0.214,0.094-0.321c0.015-0.053,0.031-0.107,0.046-0.16
	c0.009-0.025,0.016-0.053,0.021-0.082l0.019-0.083c0.024-0.111,0.049-0.222,0.073-0.332l0.018-0.083
	c0.005-0.027,0.008-0.05,0.013-0.075c0.007-0.05,0.014-0.1,0.021-0.149c0.015-0.106,0.031-0.211,0.046-0.315
	c0.01-0.105,0.023-0.212,0.029-0.316c0.006-0.106,0.015-0.21,0.016-0.315c0.014-0.417-0.008-0.826-0.06-1.219
	c-0.053-0.393-0.134-0.77-0.237-1.129c-0.208-0.718-0.501-1.359-0.821-1.926c-0.321-0.568-0.674-1.063-1.023-1.496
	c-0.352-0.434-0.699-0.806-1.026-1.126c-0.653-0.644-1.222-1.083-1.613-1.372C126.215,0.133,125.993,0,125.993,0"/>
<path class="st0" d="M80.072,12.292L80.072,12.292c0-0.001-0.001-0.003-0.001-0.004c-0.014-0.04-0.027-0.079-0.042-0.117
	c-0.002-0.006-0.005-0.011-0.007-0.017c-0.012-0.03-0.024-0.058-0.036-0.084c-0.005-0.011-0.01-0.021-0.015-0.03
	c-0.012-0.022-0.022-0.042-0.034-0.061c-0.005-0.009-0.01-0.018-0.017-0.026c-0.016-0.024-0.032-0.046-0.051-0.064
	c-0.239-0.237-0.324-0.548-0.324-0.548l0.039-0.581c0,0-1.535-1.464-2.101-2.02c-0.343-0.521-0.797-1.307-1.079-1.734l-0.576-0.266
	c-0.138-0.07-0.267-0.135-0.397-0.184c-0.239-0.237-0.479-0.474-0.479-0.474l-1.027-1.759c0,0-0.078,0.025-0.2,0.06
	c-0.076-0.004-0.181-0.005-0.319,0c-0.321,0.013-0.57-0.044-0.86-0.046c-0.291-0.002-0.309,0.159-0.309,0.159
	c-0.016,0.027,0.031,0.257,0.079,0.607c0.011,0.08,0.022,0.165,0.033,0.257c0.078,0.669,0.123,1.628-0.143,2.522
	c-0.301,1.016-0.052,2.277,0.157,3.031c-0.678-0.814-1.248-1.415-2.488-1.885c-2.017-0.764-3.889-0.431-5.929,0.526
	c-2.573,1.207-2.984,2.001-3.535,3.036c-0.447,0.843-0.633,1.768-0.833,2.962c-0.015,0.088-0.022,0.228-0.009,0.395l-0.331,0.189
	l-1.135-0.276l-2.501-1.359l-1.955-0.7l-0.044,0.478l-0.226,2.455l-0.006,0.056l0.381,1.968l0.176,0.91l0.293,1.519l0.607-0.108
	l0.283-0.05v-0.001l0.4-0.071l1,2.098l0.552,1.158l0.42-0.486l0.11-0.127l2.75-3.194l0.441-1.73c0.737,0.622,1.881,1.146,3.194,1.74
	c1.519,0.687,3.396,0.421,4.981-0.335c2.354-1.122,3.581-3.449,4.293-5.352c0.231-0.618,0.222-1.018,0.116-1.37
	c0.426,0.126,1.645,0.463,2.925,0.588c1.593,0.155,3.967-0.836,3.967-0.836S80.192,12.658,80.072,12.292"/>
</svg>
