<?xml version="1.0" encoding="utf-8"?>
<!-- Generator: Adobe Illustrator 16.0.0, SVG Export Plug-In . SVG Version: 6.00 Build 0)  -->
<!DOCTYPE svg PUBLIC "-//W3C//DTD SVG 1.1//EN" "http://www.w3.org/Graphics/SVG/1.1/DTD/svg11.dtd">
<svg version="1.1" id="Layer_1" xmlns="http://www.w3.org/2000/svg" xmlns:xlink="http://www.w3.org/1999/xlink" x="0px" y="0px"
	 width="131.396px" height="27.702px" viewBox="0 0 131.396 27.702" style="enable-background:new 0 0 131.396 27.702;"
	 xml:space="preserve">
<style type="text/css">
<![CDATA[
	.st0{fill:#553337;}
]]>
</style>
<path class="st0" d="M5.403,0c0,0-0.207,0.157-0.565,0.483C4.479,0.81,3.972,1.308,3.397,1.999C3.112,2.345,2.813,2.741,2.52,3.19
	C2.228,3.64,1.94,4.142,1.692,4.702C1.446,5.26,1.235,5.875,1.114,6.535c-0.06,0.329-0.1,0.669-0.113,1.016
	C0.987,7.899,1.003,8.253,1.047,8.61c0.01,0.09,0.026,0.179,0.039,0.268c0.015,0.09,0.034,0.179,0.051,0.269
	C1.131,9.115,1.138,9.148,1.138,9.146l0.004,0.019l0.01,0.036l0.018,0.072C1.18,9.322,1.192,9.37,1.204,9.418
	c0.012,0.049,0.023,0.098,0.035,0.147c0.006,0.024,0.012,0.05,0.019,0.072l0.021,0.064c0.028,0.085,0.057,0.17,0.084,0.256
	l0.021,0.064c0.006,0.021,0.013,0.043,0.023,0.065c0.017,0.044,0.035,0.088,0.052,0.132c0.034,0.088,0.069,0.177,0.106,0.265
	c0.038,0.088,0.081,0.174,0.122,0.261c0.043,0.087,0.079,0.176,0.13,0.26c0.047,0.085,0.094,0.17,0.143,0.255
	c0.044,0.087,0.1,0.169,0.152,0.252s0.107,0.167,0.16,0.25c0.059,0.08,0.118,0.161,0.178,0.242s0.117,0.163,0.184,0.239
	c0.064,0.078,0.129,0.156,0.193,0.234l0.049,0.059l0.052,0.056l0.104,0.112c0.559,0.599,1.213,1.141,1.949,1.589
	c0.735,0.45,1.539,0.825,2.391,1.108c0.853,0.286,1.753,0.476,2.675,0.58c0.116,0.012,0.231,0.022,0.347,0.034l0.174,0.019
	c0.059,0.004,0.117,0.006,0.176,0.009c0.117,0.007,0.232,0.013,0.35,0.02l0.176,0.009l0.176,0.002c0.471,0.01,0.944,0,1.418-0.03
	c0.949-0.06,1.903-0.197,2.848-0.408c0.236-0.054,0.471-0.114,0.707-0.171c0.058-0.016,0.117-0.027,0.176-0.045l0.175-0.051
	l0.351-0.101l0.176-0.05l0.043-0.014l0.021-0.006c0.018-0.004,0.002,0,0.012-0.004l0.093-0.029l0.368-0.115l0.344-0.115l0.352-0.122
	c0.469-0.166,0.939-0.339,1.408-0.525c0.234-0.094,0.469-0.186,0.703-0.283c0.234-0.097,0.469-0.196,0.703-0.295
	c0.938-0.396,1.877-0.809,2.825-1.214c0.946-0.404,1.905-0.794,2.879-1.141c0.485-0.176,0.976-0.338,1.47-0.488
	s0.991-0.286,1.491-0.407c0.999-0.242,2.01-0.417,3.015-0.521c0.253-0.021,0.501-0.048,0.753-0.061
	c0.125-0.007,0.25-0.016,0.375-0.021c0.125-0.004,0.25-0.009,0.373-0.014c0.124-0.006,0.248-0.005,0.372-0.006
	c0.124,0,0.247-0.003,0.37-0.001c0.247,0.006,0.491,0.007,0.734,0.023c0.486,0.021,0.966,0.07,1.436,0.128
	c0.471,0.065,0.93,0.142,1.378,0.241c0.896,0.196,1.743,0.456,2.526,0.766s1.504,0.664,2.158,1.043
	c0.654,0.378,1.244,0.777,1.774,1.175c0.132,0.101,0.261,0.2,0.388,0.298c0.123,0.101,0.244,0.201,0.363,0.3
	c0.061,0.048,0.118,0.097,0.176,0.146c0.057,0.05,0.112,0.1,0.168,0.149c0.11,0.098,0.219,0.194,0.324,0.289
	c0.206,0.195,0.404,0.381,0.586,0.564c0.09,0.093,0.178,0.184,0.264,0.271s0.17,0.174,0.248,0.262
	c0.635,0.682,1.08,1.26,1.377,1.653c0.291,0.401,0.44,0.619,0.44,0.619s-0.225-0.144-0.632-0.415
	c-0.104-0.068-0.219-0.141-0.345-0.222c-0.063-0.041-0.13-0.083-0.197-0.128c-0.069-0.045-0.14-0.092-0.216-0.137
	c-0.151-0.092-0.311-0.193-0.48-0.3c-0.173-0.103-0.355-0.212-0.55-0.327c-0.095-0.06-0.196-0.115-0.299-0.173
	c-0.103-0.059-0.207-0.118-0.315-0.179c-0.026-0.016-0.054-0.03-0.08-0.046c-0.027-0.015-0.056-0.029-0.082-0.045
	c-0.057-0.029-0.112-0.06-0.17-0.091c-0.112-0.06-0.228-0.123-0.346-0.186c-0.119-0.061-0.24-0.122-0.363-0.186
	c-0.062-0.03-0.123-0.063-0.187-0.094s-0.128-0.062-0.192-0.093c-0.129-0.062-0.26-0.124-0.394-0.187
	c-0.134-0.061-0.271-0.121-0.41-0.184c-0.556-0.241-1.151-0.477-1.785-0.688c-0.157-0.049-0.319-0.1-0.481-0.152
	c-0.162-0.046-0.328-0.093-0.495-0.141c-0.167-0.043-0.337-0.085-0.509-0.129c-0.17-0.038-0.344-0.077-0.52-0.116
	c-0.703-0.142-1.438-0.247-2.197-0.298c-0.379-0.031-0.767-0.037-1.158-0.043c-0.098,0.001-0.196,0.002-0.295,0.004
	c-0.049,0-0.1,0.001-0.148,0.002c-0.05,0.001-0.1,0.004-0.148,0.005c-0.101,0.004-0.201,0.008-0.301,0.011
	c-0.1,0.004-0.201,0.013-0.301,0.019c-0.202,0.011-0.405,0.032-0.609,0.048c-0.103,0.01-0.205,0.023-0.308,0.034
	c-0.103,0.012-0.206,0.023-0.31,0.038c-0.414,0.049-0.832,0.123-1.254,0.197c-0.211,0.044-0.424,0.08-0.638,0.128
	c-0.106,0.023-0.214,0.043-0.321,0.068c-0.107,0.024-0.215,0.048-0.322,0.072c-0.433,0.102-0.869,0.206-1.311,0.324
	c-1.766,0.466-3.614,1.044-5.543,1.652c-1.929,0.605-3.923,1.27-6.002,1.828l-0.392,0.102l-0.403,0.101l-0.381,0.089L18.12,17.95
	c-0.004,0.002-0.036,0.01-0.035,0.008l-0.025,0.006l-0.05,0.011l-0.202,0.041l-0.402,0.083l-0.203,0.041
	c-0.066,0.014-0.135,0.023-0.202,0.035c-0.271,0.044-0.541,0.091-0.813,0.132c-1.086,0.154-2.182,0.226-3.271,0.211
	c-0.545-0.008-1.088-0.038-1.624-0.093l-0.202-0.02l-0.201-0.027c-0.133-0.018-0.268-0.037-0.4-0.055
	c-0.066-0.011-0.134-0.018-0.199-0.029l-0.198-0.036c-0.132-0.024-0.265-0.05-0.396-0.073c-1.051-0.209-2.072-0.514-3.033-0.928
	c-0.959-0.411-1.86-0.922-2.668-1.525c-0.812-0.599-1.521-1.3-2.112-2.059c-0.036-0.047-0.073-0.095-0.11-0.142l-0.055-0.071
	l-0.051-0.074c-0.068-0.098-0.137-0.197-0.203-0.294c-0.069-0.096-0.129-0.198-0.189-0.299c-0.062-0.101-0.121-0.202-0.182-0.302
	c-0.055-0.103-0.109-0.207-0.163-0.309c-0.053-0.103-0.108-0.204-0.153-0.311c-0.093-0.211-0.189-0.417-0.262-0.632
	c-0.039-0.107-0.079-0.212-0.115-0.318c-0.031-0.107-0.063-0.214-0.094-0.321c-0.016-0.054-0.031-0.107-0.046-0.16
	c-0.009-0.025-0.015-0.053-0.021-0.082l-0.02-0.084c-0.023-0.11-0.049-0.221-0.073-0.332L0.129,9.859
	C0.122,9.832,0.12,9.809,0.116,9.784c-0.006-0.051-0.014-0.1-0.021-0.15C0.079,9.529,0.063,9.424,0.049,9.32
	C0.038,9.213,0.026,9.108,0.02,9.002c-0.006-0.105-0.015-0.21-0.016-0.314c-0.013-0.417,0.008-0.826,0.06-1.219
	c0.053-0.393,0.135-0.77,0.237-1.129c0.208-0.718,0.501-1.36,0.821-1.927c0.322-0.567,0.674-1.062,1.023-1.495
	c0.352-0.433,0.699-0.805,1.026-1.126C3.825,1.148,4.394,0.709,4.786,0.42C5.18,0.133,5.403,0,5.403,0"/>
<path class="st0" d="M125.992,0c0,0,0.207,0.157,0.565,0.483c0.357,0.327,0.866,0.825,1.439,1.516
	c0.286,0.346,0.585,0.742,0.878,1.191c0.292,0.45,0.58,0.952,0.828,1.512c0.246,0.558,0.456,1.173,0.577,1.833
	c0.06,0.329,0.1,0.669,0.114,1.016c0.013,0.348-0.002,0.702-0.046,1.059c-0.011,0.09-0.026,0.179-0.039,0.268
	c-0.016,0.09-0.034,0.179-0.051,0.269c0.006-0.032-0.001,0.001-0.001-0.001l-0.005,0.019l-0.009,0.036l-0.018,0.072
	c-0.012,0.049-0.023,0.097-0.035,0.145c-0.012,0.049-0.024,0.098-0.036,0.147c-0.006,0.024-0.011,0.05-0.018,0.072l-0.021,0.064
	c-0.028,0.085-0.056,0.17-0.084,0.256l-0.021,0.064c-0.007,0.021-0.014,0.043-0.023,0.065c-0.017,0.044-0.035,0.088-0.052,0.132
	c-0.035,0.088-0.07,0.177-0.106,0.265c-0.039,0.088-0.082,0.174-0.123,0.261c-0.043,0.087-0.079,0.176-0.129,0.26
	c-0.048,0.085-0.095,0.17-0.143,0.255c-0.044,0.087-0.101,0.169-0.153,0.252s-0.106,0.167-0.16,0.25
	c-0.059,0.08-0.118,0.161-0.177,0.242c-0.06,0.081-0.117,0.163-0.184,0.239c-0.064,0.078-0.129,0.156-0.193,0.234l-0.049,0.059
	l-0.052,0.056l-0.105,0.112c-0.558,0.599-1.212,1.141-1.949,1.589c-0.734,0.45-1.539,0.825-2.391,1.108
	c-0.853,0.286-1.753,0.476-2.674,0.58c-0.116,0.012-0.232,0.022-0.348,0.034l-0.174,0.019c-0.058,0.004-0.117,0.006-0.175,0.009
	c-0.117,0.007-0.233,0.013-0.35,0.02l-0.177,0.009l-0.176,0.002c-0.47,0.01-0.944,0-1.418-0.03c-0.949-0.06-1.903-0.197-2.847-0.408
	c-0.236-0.054-0.471-0.114-0.707-0.171c-0.059-0.016-0.117-0.027-0.176-0.045l-0.176-0.051l-0.35-0.101l-0.176-0.05l-0.043-0.014
	l-0.022-0.006c-0.017-0.004-0.001,0-0.012-0.004l-0.092-0.029l-0.369-0.115l-0.343-0.115l-0.352-0.122
	c-0.47-0.166-0.939-0.339-1.409-0.525c-0.233-0.094-0.469-0.186-0.702-0.283c-0.234-0.097-0.47-0.196-0.703-0.295
	c-0.938-0.396-1.877-0.809-2.825-1.214c-0.947-0.404-1.905-0.794-2.879-1.141c-0.485-0.176-0.977-0.338-1.47-0.488
	c-0.494-0.15-0.992-0.286-1.491-0.407c-0.999-0.242-2.011-0.417-3.016-0.521c-0.252-0.021-0.501-0.048-0.753-0.061
	c-0.125-0.007-0.25-0.016-0.374-0.021c-0.125-0.004-0.25-0.009-0.374-0.014c-0.124-0.006-0.248-0.005-0.372-0.006
	c-0.124,0-0.247-0.003-0.37-0.001c-0.246,0.006-0.49,0.007-0.733,0.023c-0.487,0.021-0.966,0.07-1.437,0.128
	c-0.47,0.065-0.93,0.142-1.378,0.241c-0.896,0.196-1.743,0.456-2.525,0.766c-0.783,0.31-1.504,0.664-2.158,1.043
	c-0.655,0.378-1.244,0.777-1.775,1.175c-0.131,0.101-0.261,0.2-0.388,0.298c-0.123,0.101-0.244,0.201-0.363,0.3
	c-0.06,0.048-0.117,0.097-0.176,0.146c-0.056,0.05-0.112,0.1-0.168,0.149c-0.11,0.098-0.218,0.194-0.324,0.289
	c-0.206,0.195-0.403,0.381-0.586,0.564c-0.09,0.093-0.178,0.184-0.264,0.271c-0.085,0.088-0.169,0.174-0.247,0.262
	c-0.635,0.682-1.08,1.26-1.378,1.653c-0.292,0.401-0.44,0.619-0.44,0.619s0.226-0.144,0.632-0.415
	c0.104-0.068,0.22-0.141,0.346-0.222c0.063-0.041,0.129-0.083,0.197-0.128s0.14-0.092,0.216-0.137c0.15-0.092,0.31-0.193,0.48-0.3
	c0.172-0.103,0.355-0.212,0.549-0.327c0.096-0.06,0.196-0.115,0.3-0.173c0.102-0.059,0.207-0.118,0.314-0.179
	c0.027-0.016,0.054-0.03,0.081-0.046c0.027-0.015,0.055-0.029,0.082-0.045c0.056-0.029,0.112-0.06,0.169-0.091
	c0.113-0.06,0.229-0.123,0.346-0.186c0.119-0.061,0.24-0.122,0.364-0.186c0.062-0.03,0.123-0.063,0.187-0.094
	s0.128-0.062,0.191-0.093c0.129-0.062,0.26-0.124,0.395-0.187c0.134-0.061,0.271-0.121,0.41-0.184
	c0.556-0.241,1.151-0.477,1.784-0.688c0.158-0.049,0.319-0.1,0.481-0.152c0.163-0.046,0.329-0.093,0.496-0.141
	c0.167-0.043,0.336-0.085,0.508-0.129c0.171-0.038,0.345-0.077,0.52-0.116c0.703-0.142,1.438-0.247,2.197-0.298
	c0.379-0.031,0.768-0.037,1.158-0.043c0.098,0.001,0.197,0.002,0.296,0.004c0.049,0,0.099,0.001,0.148,0.002s0.1,0.004,0.148,0.005
	c0.101,0.004,0.2,0.008,0.3,0.011c0.101,0.004,0.201,0.013,0.302,0.019c0.202,0.011,0.404,0.032,0.609,0.048
	c0.103,0.01,0.204,0.023,0.308,0.034c0.103,0.012,0.206,0.023,0.309,0.038c0.414,0.049,0.832,0.123,1.254,0.197
	c0.212,0.044,0.424,0.08,0.639,0.128c0.106,0.023,0.214,0.043,0.32,0.068c0.108,0.024,0.215,0.048,0.323,0.072
	c0.432,0.102,0.869,0.206,1.31,0.324c1.767,0.466,3.614,1.044,5.543,1.652c1.93,0.605,3.924,1.27,6.002,1.828l0.393,0.102
	l0.402,0.101l0.382,0.089l0.094,0.021c0.005,0.002,0.037,0.01,0.036,0.008l0.024,0.006l0.051,0.011l0.201,0.041l0.403,0.083
	l0.202,0.041c0.067,0.014,0.135,0.023,0.203,0.035c0.271,0.044,0.541,0.091,0.812,0.132c1.086,0.154,2.183,0.226,3.271,0.211
	c0.544-0.008,1.086-0.038,1.624-0.093l0.202-0.02l0.2-0.027c0.134-0.018,0.268-0.037,0.4-0.055c0.067-0.011,0.134-0.018,0.2-0.029
	l0.198-0.036c0.132-0.024,0.264-0.05,0.396-0.073c1.05-0.209,2.072-0.514,3.032-0.928c0.96-0.411,1.861-0.922,2.669-1.525
	c0.811-0.599,1.521-1.3,2.111-2.059c0.037-0.047,0.073-0.095,0.11-0.142l0.056-0.071l0.051-0.074
	c0.067-0.098,0.136-0.197,0.203-0.294c0.068-0.096,0.129-0.198,0.189-0.299c0.062-0.101,0.121-0.202,0.182-0.302
	c0.055-0.103,0.108-0.207,0.162-0.309c0.054-0.103,0.109-0.204,0.153-0.311c0.093-0.211,0.19-0.417,0.262-0.632
	c0.039-0.107,0.079-0.212,0.115-0.318c0.031-0.107,0.063-0.214,0.095-0.321c0.015-0.054,0.03-0.107,0.046-0.16
	c0.009-0.025,0.015-0.053,0.021-0.082l0.02-0.084c0.023-0.11,0.049-0.221,0.072-0.332l0.019-0.082
	c0.005-0.027,0.008-0.05,0.012-0.075c0.007-0.051,0.014-0.1,0.022-0.15c0.015-0.105,0.03-0.21,0.046-0.314
	c0.01-0.107,0.022-0.212,0.028-0.318c0.006-0.105,0.016-0.21,0.017-0.314c0.013-0.417-0.008-0.826-0.061-1.219
	s-0.134-0.77-0.236-1.129c-0.208-0.718-0.501-1.36-0.821-1.927c-0.322-0.567-0.674-1.062-1.024-1.495
	c-0.351-0.433-0.698-0.805-1.025-1.126c-0.654-0.644-1.223-1.083-1.614-1.372C126.215,0.133,125.992,0,125.992,0"/>
<path class="st0" d="M77.645,13.183c-1.815-1.432-2.115-2.02-2.78-3.057c-0.757-1.183,0.257-4.936-2.558-6.367
	c-3.512-1.785-5.536,1.122-6.673,1.221c-1.163,0.101-1.896-0.099-4.085-0.829c-1.822-0.607-3.69-0.11-4.638,1.547
	c-0.946,1.656,0.009,3.981-0.606,5.037c-0.685,1.171-1.822,1.422-3.147,3.079c-1.324,1.654-0.828,4.195,0.994,5.08
	c1.868,0.906,2.979,2.021,2.87,3.863c-0.11,1.879,0.496,3.811,2.761,4.086c2.21,0.27,3.329-1.238,5.696-1.238
	c3.145,0,3.896,2.945,6.382,2.098c2.944-1.004,1.618-4.63,2.275-6.047c0.58-1.25,1.39-1.094,2.901-1.875
	C78.748,18.897,79.604,14.729,77.645,13.183 M74.965,19.002c-1.812,0.797-2.649,1.877-3.037,4.361
	c-0.326,2.107-2.153,2.645-3.728,1.504c-2.187-1.584-4.715-1.248-6.265-0.564c-1.877,0.828-3.367-0.662-3.313-2.264
	s-0.176-2.712-0.829-3.146c-0.993-0.664-3.091-0.719-2.981-3.59c0.095-2.428,3.1-2.627,3.645-3.754
	c0.828-1.711-1.436-3.422,0.719-5.41c1.566-1.446,4.047,0.231,5.692,0.298c2.544,0.102,3.332-1.786,5.891-1.25
	c1.522,0.318,2.277,1.608,2.083,3.69c-0.166,1.766,1.129,3.114,2.564,4.384S77.229,18.008,74.965,19.002"/>
<path class="st0" d="M73.088,14.089c-1.159-0.718-2.318-1.243-2.318-2.65c0-1.767-0.11-2.429-1.215-2.981
	c-1.369-0.685-3.313,0.883-4.803,0.607c-0.979-0.182-1.934-1.049-3.369-0.221c-1.422,0.82,0.111,3.037-1.655,4.086
	c-1.19,0.706-2.319,1.269-2.044,3.257c0.185,1.323,2.596,1.933,2.541,3.423c-0.084,2.221,0.386,2.815,1.38,2.926
	c1.319,0.147,2.407-0.81,3.423-0.772c1.491,0.056,1.933,0.993,3.146,1.546c1.011,0.46,2.432-0.16,2.596-2.208
	c0.11-1.381,0.776-2.349,2.042-2.981C74.247,17.402,74.284,14.831,73.088,14.089 M65.75,19.279
	c-1.787-0.307-3.287-1.463-3.289-3.276c-0.005-1.813,1.479-3.052,3.276-3.291c2.104-0.279,3.647,1.551,3.652,3.365
	C69.393,17.89,67.678,19.61,65.75,19.279"/>
</svg>
