<?xml version="1.0" encoding="utf-8"?>
<!-- Generator: Adobe Illustrator 16.0.0, SVG Export Plug-In . SVG Version: 6.00 Build 0)  -->
<!DOCTYPE svg PUBLIC "-//W3C//DTD SVG 1.1//EN" "http://www.w3.org/Graphics/SVG/1.1/DTD/svg11.dtd">
<svg version="1.1" id="Layer_1" xmlns="http://www.w3.org/2000/svg" xmlns:xlink="http://www.w3.org/1999/xlink" x="0px" y="0px"
	 width="131.396px" height="31.172px" viewBox="0 0 131.396 31.172" style="enable-background:new 0 0 131.396 31.172;"
	 xml:space="preserve">
<style type="text/css">
<![CDATA[
	.st0{fill:#553337;}
]]>
</style>
<path class="st0" d="M5.402,0c0,0-0.207,0.158-0.565,0.484C4.479,0.81,3.972,1.308,3.397,2C3.111,2.345,2.813,2.742,2.52,3.191
	C2.228,3.64,1.939,4.142,1.691,4.703C1.445,5.259,1.235,5.875,1.114,6.535c-0.06,0.33-0.1,0.67-0.113,1.018s0.002,0.701,0.045,1.059
	c0.011,0.09,0.027,0.178,0.039,0.268c0.016,0.09,0.035,0.18,0.052,0.27C1.13,9.115,1.138,9.15,1.138,9.15l0.004,0.016L1.15,9.201
	l0.019,0.072C1.18,9.322,1.191,9.371,1.204,9.419c0.012,0.049,0.023,0.098,0.035,0.146c0.006,0.023,0.012,0.049,0.019,0.072
	l0.021,0.063c0.028,0.086,0.057,0.17,0.084,0.256l0.021,0.064c0.006,0.021,0.013,0.043,0.023,0.064
	c0.017,0.045,0.034,0.088,0.051,0.135c0.035,0.086,0.07,0.176,0.106,0.264c0.039,0.088,0.082,0.174,0.123,0.26
	c0.043,0.088,0.079,0.176,0.129,0.26c0.048,0.086,0.095,0.17,0.144,0.256c0.043,0.088,0.1,0.17,0.152,0.252
	c0.053,0.084,0.107,0.168,0.16,0.25c0.059,0.08,0.118,0.16,0.178,0.242c0.06,0.08,0.116,0.162,0.184,0.238
	c0.064,0.078,0.129,0.156,0.193,0.234l0.049,0.059l0.052,0.057l0.104,0.111c0.559,0.6,1.213,1.143,1.949,1.59
	c0.735,0.451,1.539,0.824,2.391,1.109c0.853,0.285,1.752,0.475,2.674,0.58c0.117,0.01,0.232,0.021,0.348,0.033l0.174,0.018
	c0.059,0.004,0.117,0.006,0.176,0.01c0.116,0.006,0.232,0.014,0.35,0.02l0.176,0.01l0.176,0.002c0.471,0.01,0.944,0,1.418-0.031
	c0.949-0.061,1.903-0.197,2.848-0.408c0.235-0.055,0.471-0.113,0.707-0.172c0.058-0.014,0.117-0.025,0.176-0.045l0.175-0.049
	l0.351-0.102l0.176-0.051l0.043-0.012l0.021-0.006c0.018-0.006,0.001,0,0.012-0.004l0.092-0.029l0.369-0.117l0.344-0.113
	l0.351-0.121c0.47-0.168,0.94-0.34,1.409-0.527c0.234-0.094,0.469-0.186,0.703-0.283c0.234-0.096,0.469-0.195,0.703-0.293
	c0.938-0.396,1.877-0.811,2.824-1.215s1.905-0.795,2.879-1.141c0.485-0.176,0.977-0.338,1.471-0.488s0.99-0.287,1.49-0.408
	c1-0.24,2.011-0.416,3.016-0.52c0.252-0.021,0.501-0.049,0.753-0.061c0.125-0.008,0.25-0.016,0.374-0.021
	c0.125-0.004,0.25-0.01,0.374-0.016s0.248-0.004,0.372-0.006c0.124,0,0.247-0.002,0.37,0c0.247,0.006,0.49,0.006,0.734,0.023
	c0.486,0.02,0.965,0.07,1.436,0.127c0.47,0.066,0.93,0.143,1.378,0.242c0.896,0.195,1.743,0.455,2.526,0.766
	s1.504,0.664,2.158,1.043c0.654,0.377,1.244,0.777,1.774,1.176c0.131,0.1,0.261,0.199,0.388,0.297
	c0.123,0.102,0.244,0.201,0.363,0.301c0.061,0.049,0.118,0.096,0.176,0.145c0.057,0.051,0.112,0.102,0.168,0.15
	c0.11,0.098,0.219,0.193,0.324,0.289c0.206,0.193,0.404,0.381,0.586,0.563c0.09,0.094,0.178,0.186,0.264,0.273
	s0.17,0.174,0.248,0.26c0.635,0.682,1.08,1.26,1.377,1.654c0.291,0.4,0.44,0.619,0.44,0.619s-0.226-0.143-0.632-0.414
	c-0.104-0.068-0.219-0.141-0.346-0.223c-0.063-0.041-0.129-0.084-0.196-0.127c-0.069-0.047-0.14-0.091-0.216-0.136
	c-0.151-0.092-0.311-0.195-0.481-0.301c-0.172-0.104-0.354-0.211-0.549-0.328c-0.095-0.059-0.196-0.113-0.299-0.172
	s-0.207-0.117-0.315-0.18c-0.027-0.014-0.054-0.029-0.08-0.045c-0.027-0.016-0.056-0.029-0.082-0.045
	c-0.057-0.029-0.113-0.059-0.17-0.09c-0.113-0.061-0.228-0.123-0.346-0.186c-0.119-0.061-0.24-0.123-0.364-0.186
	c-0.061-0.031-0.122-0.063-0.186-0.096c-0.064-0.029-0.128-0.061-0.192-0.09c-0.129-0.063-0.26-0.125-0.395-0.189
	c-0.133-0.059-0.271-0.121-0.409-0.182c-0.556-0.242-1.152-0.479-1.785-0.688c-0.158-0.051-0.319-0.102-0.481-0.152
	c-0.162-0.047-0.328-0.094-0.496-0.143c-0.166-0.041-0.336-0.084-0.508-0.129c-0.17-0.037-0.345-0.076-0.52-0.115
	c-0.703-0.143-1.438-0.248-2.197-0.299c-0.379-0.029-0.767-0.037-1.158-0.043c-0.098,0.002-0.197,0.004-0.295,0.004
	c-0.05,0.002-0.1,0.002-0.148,0.002c-0.051,0.002-0.1,0.004-0.149,0.008c-0.1,0.002-0.2,0.006-0.3,0.01s-0.201,0.012-0.301,0.018
	c-0.202,0.012-0.405,0.033-0.61,0.049c-0.103,0.01-0.204,0.023-0.307,0.033c-0.104,0.012-0.206,0.023-0.31,0.039
	c-0.414,0.049-0.832,0.123-1.254,0.197c-0.212,0.045-0.424,0.08-0.638,0.127c-0.106,0.023-0.214,0.045-0.321,0.068
	s-0.215,0.049-0.322,0.072c-0.433,0.102-0.87,0.205-1.311,0.324c-1.767,0.465-3.614,1.043-5.543,1.652
	c-1.929,0.604-3.923,1.269-6.002,1.828l-0.392,0.102l-0.403,0.1l-0.382,0.09L18.12,17.95c-0.004,0-0.037,0.008-0.035,0.008
	l-0.025,0.004l-0.05,0.012l-0.202,0.041l-0.403,0.084l-0.202,0.041c-0.066,0.014-0.135,0.021-0.203,0.033
	c-0.271,0.045-0.541,0.092-0.812,0.133c-1.086,0.154-2.183,0.227-3.271,0.211c-0.545-0.008-1.088-0.037-1.625-0.094l-0.201-0.018
	l-0.201-0.027c-0.133-0.02-0.268-0.037-0.4-0.057c-0.066-0.008-0.134-0.016-0.199-0.027l-0.198-0.037
	c-0.132-0.023-0.265-0.049-0.396-0.072c-1.05-0.209-2.071-0.516-3.032-0.928c-0.959-0.412-1.86-0.923-2.668-1.525
	c-0.812-0.6-1.521-1.301-2.112-2.061c-0.036-0.047-0.073-0.094-0.11-0.141l-0.055-0.072l-0.051-0.074
	c-0.068-0.098-0.137-0.195-0.203-0.293c-0.069-0.096-0.129-0.197-0.19-0.299s-0.121-0.201-0.181-0.303
	c-0.055-0.102-0.109-0.207-0.163-0.309c-0.054-0.104-0.109-0.203-0.153-0.311c-0.093-0.211-0.189-0.418-0.262-0.633
	c-0.039-0.107-0.079-0.211-0.115-0.318c-0.031-0.105-0.063-0.213-0.094-0.32c-0.016-0.053-0.031-0.107-0.046-0.16
	c-0.009-0.025-0.015-0.053-0.021-0.082l-0.02-0.082c-0.024-0.111-0.049-0.223-0.073-0.332L0.128,9.859
	C0.122,9.832,0.12,9.81,0.116,9.785c-0.007-0.051-0.014-0.1-0.021-0.15C0.079,9.529,0.063,9.423,0.049,9.32
	C0.038,9.214,0.025,9.109,0.02,9.003S0.005,8.792,0.003,8.689C-0.009,8.271,0.012,7.863,0.063,7.47
	c0.053-0.395,0.135-0.771,0.237-1.131c0.208-0.717,0.501-1.357,0.821-1.926c0.321-0.566,0.674-1.063,1.023-1.496
	c0.352-0.432,0.699-0.805,1.025-1.125C3.825,1.15,4.394,0.708,4.786,0.419C5.18,0.132,5.402,0,5.402,0"/>
<path class="st0" d="M125.992,0c0,0,0.207,0.158,0.565,0.484c0.357,0.326,0.865,0.824,1.439,1.516
	c0.286,0.346,0.585,0.742,0.878,1.191c0.292,0.449,0.58,0.951,0.828,1.512c0.246,0.557,0.456,1.172,0.577,1.832
	c0.06,0.33,0.1,0.67,0.114,1.018c0.013,0.348-0.002,0.701-0.046,1.059c-0.011,0.09-0.026,0.178-0.039,0.268
	c-0.016,0.09-0.034,0.18-0.052,0.27c0.007-0.033-0.001,0.002-0.001,0.002l-0.004,0.016l-0.009,0.035l-0.018,0.072
	c-0.012,0.049-0.023,0.098-0.035,0.146s-0.024,0.098-0.036,0.146c-0.006,0.023-0.011,0.049-0.018,0.072l-0.021,0.063
	c-0.028,0.086-0.056,0.17-0.084,0.256l-0.021,0.064c-0.007,0.021-0.014,0.043-0.023,0.064c-0.017,0.045-0.035,0.088-0.052,0.135
	c-0.035,0.086-0.07,0.176-0.106,0.264c-0.039,0.088-0.082,0.174-0.123,0.26c-0.043,0.088-0.079,0.176-0.129,0.26
	c-0.048,0.086-0.095,0.17-0.143,0.256c-0.044,0.088-0.101,0.17-0.153,0.252c-0.053,0.084-0.106,0.168-0.16,0.25
	c-0.059,0.08-0.118,0.16-0.177,0.242c-0.061,0.08-0.117,0.162-0.184,0.238c-0.064,0.078-0.13,0.156-0.193,0.234l-0.049,0.059
	l-0.053,0.057l-0.104,0.111c-0.558,0.6-1.212,1.143-1.949,1.59c-0.734,0.451-1.539,0.824-2.391,1.109
	c-0.853,0.285-1.753,0.475-2.674,0.58c-0.116,0.01-0.232,0.021-0.348,0.033l-0.174,0.018c-0.058,0.004-0.117,0.006-0.175,0.01
	c-0.117,0.006-0.233,0.014-0.35,0.02l-0.177,0.01l-0.176,0.002c-0.47,0.01-0.944,0-1.418-0.031
	c-0.949-0.061-1.903-0.197-2.847-0.408c-0.236-0.055-0.472-0.113-0.707-0.172c-0.059-0.014-0.117-0.025-0.176-0.045l-0.176-0.049
	l-0.35-0.102l-0.176-0.051l-0.043-0.012l-0.022-0.006c-0.017-0.006-0.001,0-0.012-0.004l-0.092-0.029l-0.369-0.117l-0.343-0.113
	l-0.352-0.121c-0.47-0.168-0.939-0.34-1.409-0.527c-0.233-0.094-0.469-0.186-0.703-0.283c-0.233-0.096-0.469-0.195-0.702-0.293
	c-0.938-0.396-1.877-0.811-2.825-1.215c-0.947-0.404-1.905-0.795-2.879-1.141c-0.485-0.176-0.977-0.338-1.471-0.488
	c-0.493-0.15-0.991-0.287-1.49-0.408c-0.999-0.24-2.011-0.416-3.016-0.52c-0.252-0.021-0.501-0.049-0.753-0.061
	c-0.125-0.008-0.25-0.016-0.374-0.021c-0.125-0.004-0.25-0.01-0.374-0.016s-0.248-0.004-0.372-0.006c-0.124,0-0.247-0.002-0.37,0
	c-0.246,0.006-0.49,0.006-0.733,0.023c-0.487,0.02-0.966,0.07-1.437,0.127c-0.47,0.066-0.93,0.143-1.378,0.242
	c-0.896,0.195-1.743,0.455-2.525,0.766c-0.783,0.311-1.504,0.664-2.158,1.043c-0.655,0.377-1.244,0.777-1.775,1.176
	c-0.131,0.1-0.261,0.199-0.388,0.297c-0.123,0.102-0.244,0.201-0.363,0.301c-0.06,0.049-0.118,0.096-0.176,0.145
	c-0.056,0.051-0.112,0.102-0.168,0.15c-0.11,0.098-0.218,0.193-0.324,0.289c-0.206,0.193-0.404,0.381-0.586,0.563
	c-0.09,0.094-0.178,0.186-0.264,0.273c-0.085,0.088-0.169,0.174-0.247,0.26c-0.635,0.682-1.08,1.26-1.378,1.654
	c-0.292,0.4-0.44,0.619-0.44,0.619s0.226-0.143,0.632-0.414c0.104-0.068,0.22-0.141,0.346-0.223
	c0.063-0.041,0.129-0.084,0.196-0.127c0.069-0.047,0.141-0.091,0.217-0.136c0.15-0.092,0.31-0.195,0.48-0.301
	c0.172-0.104,0.355-0.211,0.549-0.328c0.096-0.059,0.196-0.113,0.3-0.172c0.102-0.059,0.207-0.117,0.314-0.18
	c0.027-0.014,0.054-0.029,0.081-0.045s0.055-0.029,0.082-0.045c0.056-0.029,0.112-0.059,0.169-0.09
	c0.113-0.061,0.229-0.123,0.346-0.186c0.119-0.061,0.24-0.123,0.364-0.186c0.062-0.031,0.123-0.063,0.187-0.096
	c0.063-0.029,0.128-0.061,0.191-0.09c0.129-0.063,0.26-0.125,0.395-0.189c0.134-0.059,0.271-0.121,0.409-0.182
	c0.557-0.242,1.152-0.479,1.785-0.688c0.158-0.051,0.319-0.102,0.481-0.152c0.163-0.047,0.329-0.094,0.496-0.143
	c0.167-0.041,0.336-0.084,0.508-0.129c0.171-0.037,0.345-0.076,0.52-0.115c0.703-0.143,1.438-0.248,2.197-0.299
	c0.379-0.029,0.768-0.037,1.158-0.043c0.098,0.002,0.197,0.004,0.296,0.004c0.049,0.002,0.099,0.002,0.148,0.002
	c0.05,0.002,0.1,0.004,0.148,0.008c0.101,0.002,0.2,0.006,0.3,0.01c0.101,0.004,0.201,0.012,0.302,0.018
	c0.201,0.012,0.404,0.033,0.609,0.049c0.103,0.01,0.204,0.023,0.308,0.033c0.103,0.012,0.205,0.023,0.309,0.039
	c0.414,0.049,0.832,0.123,1.254,0.197c0.212,0.045,0.424,0.08,0.638,0.127c0.107,0.023,0.215,0.045,0.321,0.068
	c0.108,0.023,0.215,0.049,0.323,0.072c0.432,0.102,0.869,0.205,1.31,0.324c1.767,0.465,3.614,1.043,5.543,1.652
	c1.93,0.604,3.924,1.269,6.002,1.828l0.393,0.102l0.402,0.1l0.381,0.09l0.095,0.021c0.005,0,0.037,0.008,0.036,0.008l0.024,0.004
	l0.05,0.012l0.202,0.041l0.403,0.084l0.202,0.041c0.067,0.014,0.135,0.021,0.203,0.033c0.271,0.045,0.541,0.092,0.812,0.133
	c1.086,0.154,2.183,0.227,3.271,0.211c0.544-0.008,1.086-0.037,1.624-0.094l0.202-0.018l0.2-0.027c0.134-0.02,0.268-0.037,0.4-0.057
	c0.067-0.008,0.134-0.016,0.2-0.027l0.198-0.037c0.132-0.023,0.264-0.049,0.396-0.072c1.05-0.209,2.072-0.516,3.032-0.928
	c0.96-0.412,1.86-0.923,2.669-1.525c0.811-0.6,1.521-1.301,2.111-2.061c0.036-0.047,0.073-0.094,0.11-0.141l0.056-0.072l0.051-0.074
	c0.067-0.098,0.136-0.195,0.203-0.293c0.068-0.096,0.129-0.197,0.189-0.299c0.062-0.102,0.121-0.201,0.182-0.303
	c0.055-0.102,0.108-0.207,0.162-0.309c0.054-0.104,0.109-0.203,0.153-0.311c0.093-0.211,0.19-0.418,0.262-0.633
	c0.039-0.107,0.079-0.211,0.115-0.318c0.031-0.105,0.063-0.213,0.094-0.32c0.016-0.053,0.031-0.107,0.046-0.16
	c0.01-0.025,0.016-0.053,0.021-0.082l0.02-0.082c0.023-0.111,0.049-0.223,0.072-0.332l0.019-0.084
	c0.005-0.027,0.008-0.049,0.012-0.074c0.007-0.051,0.014-0.1,0.022-0.15c0.015-0.105,0.03-0.211,0.046-0.314
	c0.01-0.105,0.022-0.211,0.028-0.316s0.016-0.211,0.017-0.314c0.013-0.418-0.009-0.826-0.061-1.219
	c-0.053-0.395-0.134-0.771-0.236-1.131c-0.208-0.717-0.501-1.357-0.821-1.926c-0.322-0.566-0.674-1.063-1.024-1.496
	c-0.351-0.432-0.698-0.805-1.025-1.125c-0.654-0.643-1.223-1.084-1.614-1.373C126.215,0.132,125.992,0,125.992,0"/>
<path class="st0" d="M67.117,27.548c-0.022-1.357-0.271-3.543-0.512-5.365c-0.232-1.766-0.277-3.113-0.701-3.229
	c-0.375-0.102-0.762,1.26-1.906,2.924c-0.512,0.744-1.051,1.576-1.539,2.428c-1.653,2.891-1.656,4.414-1.197,5.234
	c0.643,1.148,2.287,1.881,3.518,1.553C66.162,30.726,67.157,30.056,67.117,27.548 M63.406,27.138
	c-0.346-1.191,1.502-1.572,1.531-0.262C64.957,27.749,63.633,27.919,63.406,27.138 M69.734,21.093
	c-1.502-1.357-2.411-2.666-2.752-2.48c-0.387,0.211,0.096,1.609,0.28,3.383c0.188,1.836,0.452,4.025,0.746,5.354
	c0.542,2.455,1.668,2.877,3.104,2.914c1.276,0.035,2.709-1.061,3.069-2.332c0.257-0.906-0.099-2.391-2.383-4.824
	C71.125,22.388,70.406,21.7,69.734,21.093 M71.335,25.716c-0.128,1.002-1.211,0.881-1.447,0.621c-0.33-0.363-0.476-0.891,0.01-1.316
	C70.382,24.595,71.453,24.802,71.335,25.716 M61.232,24.624c0.444-0.678,1.547-2.535,2.611-4.051
	c0.738-1.051,1.245-2.029,1.007-2.303c-0.245-0.283-1.142,0.455-2.351,1.016c-1.424,0.658-3.137,1.594-4.252,2.07
	c-2.061,0.883-3.311,1.68-3.647,2.773c-0.618,1.998,1.408,3.447,2.795,3.469C59.359,27.63,59.97,26.554,61.232,24.624 M57.185,24.54
	c-0.31-0.539-0.069-0.938,0.532-1.418c0.601-0.482,1.507,0.232,1.201,1.133C58.611,25.153,57.422,24.952,57.185,24.54
	 M63.893,14.923c0.163-0.316-0.107-0.906-1.043-1.744c-1.348-1.207-2.813-2.73-3.384-3.279c-1.632-1.557-2.554-2.934-4.384-2.389
	c-2.133,0.635-3.094,3.023-2.059,4.791c0.567,0.969,2.273,1.447,4.421,1.826c1.161,0.205,2.992,0.709,4.488,1.018
	C63.203,15.408,63.726,15.248,63.893,14.923 M55.773,11.472c-0.137-0.475,0.199-0.762,0.59-0.932
	c0.392-0.168,1.176-0.137,0.91,0.758C57.01,12.191,55.912,11.945,55.773,11.472 M62.84,11.968c1.478,1.336,2.126,2.059,2.463,1.875
	c0.379-0.207,0.15-1.016-0.03-2.764c-0.187-1.805-0.444-3.959-0.733-5.266c-0.534-2.418-1.457-3.076-2.869-3.113
	c-1.254-0.031-2.898,0.895-3.252,2.143c-0.252,0.891,0.144,2.75,2.392,5.145C61.472,10.693,62.179,11.371,62.84,11.968
	 M60.967,7.042c-0.264-0.504-0.114-0.973,0.393-1.197c0.508-0.223,1.463,0.199,1.071,1.066S61.188,7.464,60.967,7.042
	 M61.541,18.888c2.048-1.041,2.445-1.438,2.388-1.941c-0.056-0.464-1.069-0.595-2.965-1.044c-1.347-0.318-2.937-0.543-4.159-0.709
	c-4.005-0.547-5.189,0.033-5.571,1.197c-0.532,1.625,0.263,3.785,0.957,4.466c0.994,0.977,2.294,1.365,6.083-0.34
	C59.355,20.032,60.56,19.386,61.541,18.888 M54.756,18.208c-0.223-0.508,0.22-0.93,0.688-1.148c0.467-0.218,1.232,0.35,0.867,1.09
	C55.947,18.89,55.012,18.788,54.756,18.208 M68.688,18.163c-0.189,0.293,0.539,1.361,1.467,2.182
	c1.336,1.186,2.786,2.682,3.354,3.219c1.617,1.529,2.458,1.814,3.928,1.502c1.309-0.273,2.493-2.857,1.73-3.916
	c-0.646-0.895-1.518-1.373-3.648-1.742c-1.152-0.199-2.97-0.693-4.452-0.994C69.808,18.157,68.882,17.864,68.688,18.163
	 M76.253,22.097c-0.451,0.711-1.429,0.473-1.591,0.105c-0.224-0.508,0.049-0.992,0.552-1.258
	C75.717,20.681,76.703,21.386,76.253,22.097 M67.587,1.941c-1.366,0.363-2.11,1.219-2.07,3.693c0.021,1.338,0.267,3.496,0.504,5.293
	c0.229,1.742,0.365,2.324,0.783,2.438c0.37,0.1,0.662-0.494,1.791-2.137c0.504-0.732,1.036-1.555,1.517-2.395
	c1.632-2.854,1.589-4.752,1.137-5.563C70.613,2.138,68.801,1.619,67.587,1.941 M68.113,5.259c0.41-0.008,1.201,0.434,0.68,1.234
	c-0.523,0.801-1.491,0.258-1.486-0.4C67.312,5.478,67.703,5.265,68.113,5.259 M71.778,14.644c-1.859,0.719-2.798,1.203-2.746,1.641
	c0.056,0.471,0.841,0.8,2.936,1.302c1.003,0.242,2.242,0.57,3.336,0.777c3.828,0.734,4.404-0.035,5.099-1.143
	c0.487-0.771,0.645-2.609-0.194-3.974c-0.602-0.98-2.011-0.947-4.721-0.061C74.387,13.546,72.988,14.177,71.778,14.644
	 M77.426,15.632c-0.063,0.869-1.124,0.979-1.466,0.459c-0.352-0.535-0.322-0.99,0.181-1.254
	C76.644,14.572,77.487,14.761,77.426,15.632 M71.694,8.416c-0.456,0.695-1.263,2.357-2.508,3.797
	c-0.942,1.086-1.438,1.957-1.194,2.238c0.252,0.289,0.907,0.285,2.396-0.281c1.507-0.572,3.268-1.453,4.413-1.945
	c2.116-0.908,3.39-2.102,3.776-3.213c0.362-1.045-0.789-3.412-3.137-3.539C73.428,5.363,72.991,6.431,71.694,8.416 M75.044,9.335
	c-0.013,0.947-1.326,1.07-1.687,0.691c-0.422-0.443-0.341-1.152,0.058-1.609C73.813,7.96,75.056,8.388,75.044,9.335"/>
</svg>
