<?xml version="1.0" encoding="utf-8"?>
<!-- Generator: Adobe Illustrator 16.0.0, SVG Export Plug-In . SVG Version: 6.00 Build 0)  -->
<!DOCTYPE svg PUBLIC "-//W3C//DTD SVG 1.1 Tiny//EN" "http://www.w3.org/Graphics/SVG/1.1/DTD/svg11-tiny.dtd">
<svg version="1.1" baseProfile="tiny" id="Layer_1" xmlns="http://www.w3.org/2000/svg" xmlns:xlink="http://www.w3.org/1999/xlink"
	 x="0px" y="0px" width="131.396px" height="27.855px" viewBox="0 0 131.396 27.855" xml:space="preserve">
<g>
	<path fill="#553337" d="M5.402,0c0,0-0.207,0.156-0.565,0.482C4.479,0.811,3.972,1.309,3.397,1.999
		C3.111,2.346,2.813,2.741,2.52,3.19c-0.292,0.451-0.58,0.953-0.828,1.512C1.445,5.26,1.235,5.875,1.114,6.534
		c-0.06,0.33-0.1,0.67-0.113,1.018S1.003,8.252,1.046,8.61C1.057,8.7,1.073,8.79,1.085,8.877c0.016,0.09,0.035,0.18,0.052,0.27
		C1.13,9.116,1.138,9.149,1.138,9.149l0.004,0.016L1.15,9.202l0.019,0.072C1.18,9.323,1.191,9.37,1.204,9.418
		c0.012,0.049,0.023,0.098,0.035,0.146c0.006,0.023,0.012,0.051,0.019,0.072l0.021,0.064c0.028,0.084,0.057,0.17,0.084,0.256
		l0.021,0.064c0.006,0.021,0.013,0.043,0.023,0.064c0.017,0.043,0.034,0.088,0.051,0.133c0.035,0.088,0.07,0.176,0.106,0.266
		c0.039,0.086,0.082,0.172,0.123,0.26c0.043,0.086,0.079,0.176,0.129,0.26c0.048,0.084,0.095,0.17,0.144,0.256
		c0.043,0.086,0.1,0.168,0.152,0.252c0.053,0.082,0.107,0.166,0.16,0.25c0.059,0.08,0.118,0.16,0.178,0.24
		c0.06,0.082,0.116,0.164,0.184,0.24c0.064,0.078,0.129,0.156,0.193,0.234l0.049,0.059l0.052,0.055l0.104,0.113
		c0.559,0.598,1.213,1.141,1.949,1.588c0.735,0.451,1.539,0.826,2.391,1.109c0.853,0.287,1.752,0.475,2.674,0.58
		c0.117,0.012,0.232,0.023,0.348,0.035l0.174,0.018c0.059,0.004,0.117,0.006,0.176,0.01c0.116,0.006,0.232,0.012,0.35,0.02
		l0.176,0.008l0.176,0.002c0.471,0.01,0.944,0,1.418-0.029c0.949-0.061,1.903-0.197,2.848-0.408
		c0.235-0.055,0.471-0.115,0.707-0.172c0.058-0.016,0.117-0.027,0.176-0.045l0.175-0.051l0.351-0.1l0.176-0.051l0.043-0.014
		l0.021-0.006c0.018-0.004,0.001,0,0.012-0.004l0.092-0.029l0.369-0.115l0.344-0.115l0.351-0.121c0.47-0.166,0.94-0.339,1.409-0.525
		c0.234-0.094,0.469-0.186,0.703-0.283s0.469-0.195,0.703-0.295c0.938-0.395,1.877-0.809,2.824-1.215
		c0.947-0.402,1.905-0.793,2.879-1.141c0.485-0.176,0.977-0.338,1.471-0.488s0.99-0.285,1.49-0.406c1-0.242,2.011-0.418,3.016-0.521
		c0.252-0.021,0.501-0.047,0.753-0.061c0.125-0.008,0.25-0.016,0.374-0.021c0.125-0.004,0.25-0.008,0.374-0.014
		s0.248-0.006,0.372-0.006s0.247-0.004,0.37-0.002c0.247,0.006,0.49,0.008,0.734,0.023c0.486,0.021,0.965,0.07,1.436,0.129
		c0.47,0.064,0.93,0.141,1.378,0.24c0.896,0.195,1.743,0.457,2.526,0.766c0.783,0.311,1.504,0.664,2.158,1.043
		s1.244,0.779,1.774,1.176c0.131,0.102,0.261,0.199,0.388,0.297c0.123,0.104,0.244,0.201,0.363,0.301
		c0.061,0.049,0.118,0.098,0.176,0.146c0.057,0.049,0.112,0.1,0.168,0.148c0.11,0.098,0.219,0.195,0.324,0.289
		c0.206,0.195,0.404,0.38,0.586,0.564c0.09,0.092,0.178,0.184,0.264,0.271c0.086,0.09,0.17,0.174,0.248,0.262
		c0.635,0.682,1.08,1.26,1.377,1.654c0.291,0.4,0.44,0.619,0.44,0.619s-0.226-0.145-0.632-0.416
		c-0.104-0.066-0.219-0.141-0.346-0.223c-0.063-0.039-0.129-0.082-0.196-0.127c-0.069-0.045-0.14-0.092-0.216-0.137
		c-0.151-0.092-0.311-0.193-0.481-0.299c-0.172-0.104-0.354-0.213-0.549-0.328c-0.095-0.061-0.196-0.115-0.299-0.172
		c-0.103-0.059-0.207-0.119-0.315-0.18c-0.027-0.016-0.054-0.029-0.08-0.047c-0.027-0.014-0.056-0.029-0.082-0.043
		c-0.057-0.029-0.113-0.061-0.17-0.092c-0.113-0.059-0.228-0.123-0.346-0.186c-0.119-0.061-0.24-0.121-0.364-0.186
		c-0.061-0.031-0.122-0.063-0.186-0.094c-0.064-0.031-0.128-0.063-0.192-0.092c-0.129-0.063-0.26-0.125-0.395-0.188
		c-0.133-0.061-0.271-0.121-0.409-0.184c-0.556-0.24-1.152-0.476-1.785-0.687c-0.158-0.049-0.319-0.1-0.481-0.152
		c-0.162-0.045-0.328-0.094-0.496-0.141c-0.166-0.043-0.336-0.086-0.508-0.129c-0.17-0.039-0.345-0.078-0.52-0.117
		c-0.703-0.141-1.438-0.246-2.197-0.297c-0.379-0.031-0.767-0.037-1.158-0.043c-0.098,0-0.197,0.002-0.295,0.004
		c-0.05,0-0.1,0-0.148,0.002c-0.051,0-0.1,0.004-0.149,0.004c-0.1,0.006-0.2,0.01-0.3,0.012c-0.1,0.006-0.201,0.014-0.301,0.02
		c-0.202,0.01-0.405,0.031-0.61,0.049c-0.103,0.01-0.204,0.021-0.307,0.033c-0.104,0.012-0.206,0.023-0.31,0.037
		c-0.414,0.049-0.832,0.123-1.254,0.199c-0.212,0.043-0.424,0.078-0.638,0.127c-0.106,0.021-0.214,0.043-0.321,0.068
		c-0.107,0.023-0.215,0.047-0.322,0.07c-0.433,0.104-0.87,0.207-1.311,0.324c-1.767,0.467-3.614,1.044-5.543,1.652
		c-1.929,0.605-3.923,1.27-6.002,1.828l-0.392,0.102l-0.403,0.102l-0.382,0.088l-0.094,0.021c-0.004,0.002-0.037,0.01-0.035,0.008
		l-0.025,0.006l-0.05,0.012l-0.202,0.041l-0.403,0.082l-0.202,0.041c-0.066,0.014-0.135,0.023-0.203,0.035
		c-0.271,0.043-0.541,0.092-0.812,0.133c-1.086,0.152-2.183,0.225-3.271,0.211c-0.545-0.01-1.088-0.039-1.625-0.094l-0.201-0.02
		l-0.201-0.027c-0.133-0.018-0.268-0.037-0.4-0.055c-0.066-0.01-0.134-0.018-0.199-0.029l-0.198-0.037
		c-0.132-0.023-0.265-0.049-0.396-0.072c-1.05-0.209-2.071-0.514-3.032-0.928c-0.959-0.412-1.86-0.922-2.668-1.525
		c-0.812-0.6-1.521-1.298-2.112-2.058c-0.036-0.047-0.073-0.096-0.11-0.143l-0.055-0.07l-0.051-0.074
		C1.599,13.288,1.53,13.19,1.464,13.09c-0.069-0.096-0.129-0.197-0.19-0.299c-0.062-0.1-0.121-0.201-0.181-0.301
		c-0.055-0.104-0.109-0.207-0.163-0.309c-0.054-0.104-0.109-0.205-0.153-0.313c-0.093-0.211-0.189-0.416-0.262-0.631
		c-0.039-0.107-0.079-0.213-0.115-0.318c-0.031-0.107-0.063-0.215-0.094-0.32c-0.016-0.055-0.031-0.107-0.046-0.16
		c-0.009-0.025-0.015-0.053-0.021-0.082l-0.02-0.084c-0.024-0.111-0.049-0.223-0.073-0.332L0.128,9.86
		C0.122,9.833,0.12,9.809,0.116,9.784c-0.007-0.049-0.014-0.1-0.021-0.148C0.079,9.53,0.063,9.424,0.049,9.321
		C0.038,9.213,0.025,9.108,0.02,9.002S0.005,8.792,0.003,8.688c-0.012-0.416,0.009-0.826,0.061-1.219
		C0.116,7.077,0.198,6.7,0.301,6.34c0.208-0.719,0.501-1.359,0.821-1.928c0.321-0.566,0.674-1.061,1.023-1.494
		c0.352-0.434,0.699-0.805,1.025-1.127C3.825,1.149,4.394,0.709,4.786,0.42C5.18,0.133,5.402,0,5.402,0"/>
	<path fill="#553337" d="M125.992,0c0,0,0.207,0.156,0.565,0.482c0.357,0.328,0.865,0.826,1.439,1.516
		c0.286,0.348,0.585,0.742,0.878,1.191c0.292,0.451,0.58,0.953,0.828,1.512c0.246,0.559,0.456,1.174,0.577,1.832
		c0.06,0.33,0.1,0.67,0.114,1.018c0.013,0.348-0.002,0.701-0.046,1.059c-0.011,0.09-0.026,0.18-0.039,0.268
		c-0.016,0.09-0.034,0.18-0.052,0.27c0.007-0.031-0.001,0.002-0.001,0.002l-0.004,0.016l-0.009,0.037l-0.018,0.072
		c-0.012,0.049-0.023,0.096-0.035,0.145s-0.024,0.098-0.036,0.146c-0.006,0.023-0.011,0.051-0.018,0.072l-0.021,0.064
		c-0.028,0.084-0.056,0.17-0.084,0.256l-0.021,0.064c-0.007,0.021-0.014,0.043-0.023,0.064c-0.017,0.043-0.035,0.088-0.052,0.133
		c-0.035,0.088-0.07,0.176-0.106,0.266c-0.039,0.086-0.082,0.172-0.123,0.26c-0.043,0.086-0.079,0.176-0.129,0.26
		c-0.048,0.084-0.095,0.17-0.143,0.256c-0.044,0.086-0.101,0.168-0.153,0.252c-0.053,0.082-0.106,0.166-0.16,0.25
		c-0.059,0.08-0.118,0.16-0.177,0.24c-0.061,0.082-0.117,0.164-0.184,0.24c-0.064,0.078-0.13,0.156-0.193,0.234l-0.049,0.059
		l-0.053,0.055l-0.104,0.113c-0.558,0.598-1.212,1.141-1.949,1.588c-0.734,0.451-1.539,0.826-2.391,1.109
		c-0.853,0.287-1.753,0.475-2.674,0.58c-0.116,0.012-0.232,0.023-0.348,0.035l-0.174,0.018c-0.058,0.004-0.117,0.006-0.175,0.01
		c-0.117,0.006-0.233,0.012-0.35,0.02l-0.177,0.008l-0.176,0.002c-0.47,0.01-0.944,0-1.418-0.029
		c-0.949-0.061-1.903-0.197-2.847-0.408c-0.236-0.055-0.472-0.115-0.707-0.172c-0.059-0.016-0.117-0.027-0.176-0.045l-0.176-0.051
		l-0.35-0.1l-0.176-0.051l-0.043-0.014l-0.022-0.006c-0.017-0.004-0.001,0-0.012-0.004l-0.092-0.029l-0.369-0.115l-0.343-0.115
		l-0.352-0.121c-0.47-0.166-0.939-0.339-1.409-0.525c-0.233-0.094-0.469-0.186-0.703-0.283c-0.233-0.098-0.469-0.195-0.702-0.295
		c-0.938-0.395-1.877-0.809-2.825-1.215c-0.947-0.402-1.905-0.793-2.879-1.141c-0.485-0.176-0.977-0.338-1.471-0.488
		c-0.493-0.15-0.991-0.285-1.49-0.406c-0.999-0.242-2.011-0.418-3.016-0.521c-0.252-0.021-0.501-0.047-0.753-0.061
		c-0.125-0.008-0.25-0.016-0.374-0.021c-0.125-0.004-0.25-0.008-0.374-0.014s-0.248-0.006-0.372-0.006s-0.247-0.004-0.37-0.002
		c-0.246,0.006-0.49,0.008-0.733,0.023c-0.487,0.021-0.966,0.07-1.437,0.129c-0.47,0.064-0.93,0.141-1.378,0.24
		c-0.896,0.195-1.743,0.457-2.525,0.766c-0.783,0.311-1.504,0.664-2.158,1.043c-0.655,0.379-1.244,0.779-1.775,1.176
		c-0.131,0.102-0.261,0.199-0.388,0.297c-0.123,0.104-0.244,0.201-0.363,0.301c-0.06,0.049-0.118,0.098-0.176,0.146
		c-0.056,0.049-0.112,0.1-0.168,0.148c-0.11,0.098-0.218,0.195-0.324,0.289c-0.206,0.195-0.404,0.38-0.586,0.564
		c-0.09,0.092-0.178,0.184-0.264,0.271c-0.085,0.09-0.169,0.174-0.247,0.262c-0.635,0.682-1.08,1.26-1.378,1.654
		c-0.292,0.4-0.44,0.619-0.44,0.619s0.226-0.145,0.632-0.416c0.104-0.066,0.22-0.141,0.346-0.223
		c0.063-0.039,0.129-0.082,0.196-0.127c0.069-0.045,0.141-0.092,0.217-0.137c0.15-0.092,0.31-0.193,0.48-0.299
		c0.172-0.104,0.355-0.213,0.549-0.328c0.096-0.061,0.196-0.115,0.3-0.172c0.102-0.059,0.207-0.119,0.314-0.18
		c0.027-0.016,0.054-0.029,0.081-0.047c0.027-0.014,0.055-0.029,0.082-0.043c0.056-0.029,0.112-0.061,0.169-0.092
		c0.113-0.059,0.229-0.123,0.346-0.186c0.119-0.061,0.24-0.121,0.364-0.186c0.062-0.031,0.123-0.063,0.187-0.094
		s0.128-0.063,0.191-0.092c0.129-0.063,0.26-0.125,0.395-0.188c0.134-0.061,0.271-0.121,0.409-0.184
		c0.557-0.24,1.152-0.476,1.785-0.687c0.158-0.049,0.319-0.1,0.481-0.152c0.163-0.045,0.329-0.094,0.496-0.141
		c0.167-0.043,0.336-0.086,0.508-0.129c0.171-0.039,0.345-0.078,0.52-0.117c0.703-0.141,1.438-0.246,2.197-0.297
		c0.379-0.031,0.768-0.037,1.158-0.043c0.098,0,0.197,0.002,0.296,0.004c0.049,0,0.099,0,0.148,0.002c0.05,0,0.1,0.004,0.148,0.004
		c0.101,0.006,0.2,0.01,0.3,0.012c0.101,0.006,0.201,0.014,0.302,0.02c0.201,0.01,0.404,0.031,0.609,0.049
		c0.103,0.01,0.204,0.021,0.308,0.033c0.103,0.012,0.205,0.023,0.309,0.037c0.414,0.049,0.832,0.123,1.254,0.199
		c0.212,0.043,0.424,0.078,0.638,0.127c0.107,0.021,0.215,0.043,0.321,0.068c0.108,0.023,0.215,0.047,0.323,0.07
		c0.432,0.104,0.869,0.207,1.31,0.324c1.767,0.467,3.614,1.044,5.543,1.652c1.93,0.605,3.924,1.27,6.002,1.828l0.393,0.102
		l0.402,0.102l0.381,0.088l0.095,0.021c0.005,0.002,0.037,0.01,0.036,0.008l0.024,0.006l0.05,0.012l0.202,0.041l0.403,0.082
		l0.202,0.041c0.067,0.014,0.135,0.023,0.203,0.035c0.271,0.043,0.541,0.092,0.812,0.133c1.086,0.152,2.183,0.225,3.271,0.211
		c0.544-0.01,1.086-0.039,1.624-0.094l0.202-0.02l0.2-0.027c0.134-0.018,0.268-0.037,0.4-0.055c0.067-0.01,0.134-0.018,0.2-0.029
		l0.198-0.037c0.132-0.023,0.264-0.049,0.396-0.072c1.05-0.209,2.072-0.514,3.032-0.928c0.96-0.412,1.86-0.922,2.669-1.525
		c0.811-0.6,1.521-1.298,2.111-2.058c0.036-0.047,0.073-0.096,0.11-0.143l0.056-0.07l0.051-0.074
		c0.067-0.098,0.136-0.195,0.203-0.295c0.068-0.096,0.129-0.197,0.189-0.299c0.062-0.1,0.121-0.201,0.182-0.301
		c0.055-0.104,0.108-0.207,0.162-0.309c0.054-0.104,0.109-0.205,0.153-0.313c0.093-0.211,0.19-0.416,0.262-0.631
		c0.039-0.107,0.079-0.213,0.115-0.318c0.031-0.107,0.063-0.215,0.094-0.32c0.016-0.055,0.031-0.107,0.046-0.16
		c0.01-0.025,0.016-0.053,0.021-0.082l0.02-0.084c0.023-0.111,0.049-0.223,0.072-0.332l0.019-0.082
		c0.005-0.027,0.008-0.051,0.012-0.076c0.007-0.049,0.014-0.1,0.022-0.148c0.015-0.105,0.03-0.211,0.046-0.314
		c0.01-0.107,0.022-0.213,0.028-0.318s0.016-0.211,0.017-0.314c0.013-0.416-0.009-0.826-0.061-1.219
		c-0.053-0.393-0.134-0.77-0.236-1.129c-0.208-0.719-0.501-1.359-0.821-1.928c-0.322-0.566-0.674-1.061-1.024-1.494
		s-0.698-0.805-1.025-1.127c-0.654-0.643-1.223-1.082-1.614-1.371C126.215,0.133,125.992,0,125.992,0"/>
	<path fill="#553337" d="M77.644,13.182c-1.814-1.432-2.114-2.02-2.779-3.057c-0.757-1.182,0.257-4.936-2.559-6.367
		c-3.511-1.785-5.536,1.123-6.672,1.221c-1.164,0.102-1.896-0.098-4.085-0.828c-1.822-0.607-3.691-0.109-4.638,1.547
		s0.009,3.98-0.606,5.037c-0.685,1.172-1.822,1.422-3.147,3.078c-1.324,1.654-0.828,4.195,0.993,5.08
		c1.869,0.906,2.979,2.021,2.871,3.863c-0.11,1.879,0.496,3.811,2.761,4.086c2.21,0.27,3.329-1.238,5.696-1.238
		c3.145,0,3.896,2.945,6.382,2.098c2.944-1.004,1.617-4.629,2.275-6.047c0.58-1.25,1.39-1.094,2.901-1.875
		C78.748,18.896,79.604,14.729,77.644,13.182 M74.965,19.002c-1.812,0.797-2.649,1.877-3.037,4.361
		c-0.327,2.107-2.153,2.645-3.728,1.504c-2.187-1.584-4.716-1.248-6.265-0.564c-1.877,0.828-3.367-0.662-3.313-2.264
		s-0.176-2.711-0.829-3.146c-0.993-0.664-3.091-0.719-2.981-3.59c0.095-2.427,3.1-2.626,3.645-3.753
		c0.828-1.711-1.436-3.422,0.718-5.41c1.567-1.445,4.048,0.23,5.693,0.297c2.544,0.104,3.332-1.785,5.891-1.25
		c1.522,0.318,2.277,1.609,2.083,3.689c-0.166,1.768,1.129,3.115,2.564,4.385C76.842,14.532,77.229,18.008,74.965,19.002"/>
	<path fill="#553337" d="M73.088,14.088c-1.16-0.717-2.318-1.242-2.318-2.648c0-1.768-0.11-2.43-1.216-2.982
		c-1.368-0.684-3.312,0.883-4.803,0.607c-0.979-0.182-1.933-1.049-3.368-0.221c-1.422,0.82,0.111,3.035-1.656,4.086
		c-1.189,0.707-2.318,1.27-2.043,3.257c0.185,1.322,2.596,1.932,2.541,3.422c-0.084,2.221,0.386,2.816,1.379,2.926
		c1.319,0.148,2.408-0.809,3.424-0.771c1.49,0.055,1.933,0.992,3.146,1.545c1.01,0.461,2.432-0.16,2.596-2.207
		c0.11-1.381,0.776-2.35,2.042-2.982C74.247,17.402,74.284,14.83,73.088,14.088 M65.75,19.279c-1.787-0.307-3.287-1.465-3.29-3.277
		c-0.004-1.814,1.479-3.052,3.277-3.291c2.104-0.277,3.647,1.553,3.651,3.365C69.393,17.891,67.677,19.609,65.75,19.279"/>
</g>
</svg>
