<?xml version="1.0" encoding="utf-8"?>
<!-- Generator: Adobe Illustrator 16.0.0, SVG Export Plug-In . SVG Version: 6.00 Build 0)  -->
<!DOCTYPE svg PUBLIC "-//W3C//DTD SVG 1.1//EN" "http://www.w3.org/Graphics/SVG/1.1/DTD/svg11.dtd">
<svg version="1.1" id="Layer_1" xmlns="http://www.w3.org/2000/svg" xmlns:xlink="http://www.w3.org/1999/xlink" x="0px" y="0px"
	 width="42.255px" height="38.037px" viewBox="0 0 42.255 38.037" style="enable-background:new 0 0 42.255 38.037;"
	 xml:space="preserve">
<path d="M2.374,13.432c0.437-0.23,0.609-0.774,1.16-0.807c-0.053,0.183,0.142,0.2,0.263,0.264c-0.015,0.091-0.258,0.275-0.076,0.28
	c0.099,0.265,0.101,0.963,0.472,0.451c0.29,0.31,0.236-0.052,0.202-0.284c0.126,0.091,0.236,0.352,0.407,0.057
	c0.13-0.184-0.161-0.496,0.131-0.561c0.214-0.042-0.124-0.334-0.059-0.434c0.123-0.059,0.238-0.134,0.347-0.217
	c0.18,0.14,0.089,0.326,0.099,0.499c0.136,0.029,0.279,0.12,0.415,0.045c-0.151,0.155,0.054,0.411-0.137,0.519
	c-0.26,0.129-0.137,0.494-0.094,0.728c-0.176-0.116-0.313,0.072-0.485,0.088c0.11,0.296-0.25,0.549,0.025,0.815
	c-0.281,0.016-0.499-0.268-0.262-0.482c-0.261,0.12-0.716-0.266-0.709,0.165c-0.138-0.381-0.19-0.854-0.604-1.048
	c-0.109,0.129-0.188-0.025-0.308,0.004c0.117,0.078,0.217,0.341-0.015,0.227c0.046,0.247,0.216,0.416,0.399,0.573
	c-0.17-0.03-0.341-0.045-0.513-0.038c-0.121,0.146-0.106,0.651,0.117,0.567c0.016,0.536,0.314-0.146,0.346,0.157
	c-0.02,0.299,0.333,0.072,0.333,0.385c0.066,0.271-0.196,0.218-0.342,0.108c-0.042,0.196,0.076,0.389,0.041,0.589
	c-0.142-0.264-0.195-0.66-0.578-0.608c-0.074-0.457-0.39-0.057-0.198,0.074c0.316,0.023,0.32,0.409,0.53,0.587
	C3.108,16.124,2.794,16,2.749,16.249c0.021,0.135,0.149,0.137,0.258,0.139c-0.041,0.188-0.203,0.29-0.321,0.419
	c0.168,0.185,0.068,0.457,0.369,0.557c0.019,0.213-0.199,0.83,0.185,0.706c0.005,0.457-0.012,1.01,0.384,1.298
	c0.729-0.145-0.57-1.288,0.402-1.242c-0.379,0.344,0.236,0.802-0.003,1.217c-0.086,0.105-0.114,0.232-0.102,0.367
	c-0.072,0.17-0.035,0.36-0.052,0.54c-0.076,0.034-0.152,0.067-0.229,0.098c-0.303-0.188,0.059-0.466,0.011-0.718
	c-0.166-0.032-0.314,0.269-0.489,0.183c-0.087-0.148-0.119-0.499-0.294-0.278c-0.085,0.257-0.008,0.628-0.357,0.72
	c-0.144,0.02,0.033,0.401,0.089,0.234c0.106-0.267,0.455,0.016,0.497,0.18c0.03-0.131,0.065-0.262,0.079-0.397
	c-0.083-0.091-0.21-0.249-0.026-0.315c0.338-0.166,0.061,0.338,0.288,0.444c0.011,0.052,0.023,0.104,0.034,0.155
	c-0.06,0.297-0.18,0.61-0.049,0.905c0.025,0.435,0.077,0.845,0.412,1.182c0.095,0.246,0.223,0.479,0.364,0.702
	c0.111,0.599,0.463,1.077,0.642,1.646c0.003,0.133,0.029,0.265,0.097,0.38c0.079,0.271,0.19,0.566,0.452,0.711
	c0.104,0.174,0.076,0.493,0.247,0.595c0.022,0.003,0.066,0.009,0.087,0.013c0.156,0.162,0.227,0.456,0.476,0.478
	c0.026,0.096,0.067,0.208,0.176,0.233c0.067,0.028,0.134,0.055,0.204,0.08c0.025,0.073,0.05,0.148,0.074,0.223
	c0.049,0.104,0.034,0.141-0.046,0.107c-0.562-0.558-1.212-0.936-1.795-1.472c0.042-0.134-0.046-0.203-0.153-0.262
	c-0.055-0.229,0.06-0.521-0.157-0.687c0.016-0.104,0.079-0.206,0.049-0.313c0.001-0.317-0.352-0.535-0.269-0.852
	c0.06-0.27-0.252-0.44-0.292-0.693c-0.095-0.125-0.426-0.052-0.281-0.274c0.248-0.157-0.141-0.289-0.262-0.383
	c0.004-0.155,0.105-0.295,0.09-0.455c-0.431,0.131-0.114,0.606-0.046,0.854c-0.21,0.382-0.273-0.27-0.583-0.187
	c-0.397,0.372-0.21-0.535-0.116-0.697c0.149-0.207,0.122,0.104,0.28,0.095c0.001-0.187-0.018-0.387-0.177-0.511
	c-0.035-0.056-0.012-0.181-0.105-0.172c-0.179,0.004-0.18,0.225-0.232,0.353c-0.041,0.101,0.241,0.232,0.032,0.25
	c-0.134-0.166-0.354-0.361-0.229-0.587c-0.169-0.064-0.177-0.43-0.301-0.135C1.805,21.496,1.58,21.6,1.517,21.903
	c-0.142-0.199,0.097-0.634-0.173-0.446c0.05,0.398-0.114-0.007-0.245-0.123c-0.14,0.192-0.27,0.007-0.437,0.011
	c0.098,0.125,0.193,0.258,0.223,0.418c-0.107,0.211-0.221,0.016-0.334-0.08C0.482,21.829,0.61,21.929,0.718,22
	c0.083,0.193,0.128,0.632,0.424,0.538c0.102-0.005,0.757-0.469,0.474-0.165c-0.093,0.126,0.303,0.051,0.229,0.225
	c-0.082,0.236,0.264,0.041,0.368-0.02c0.039,0.287-0.325,0.52-0.189,0.804c0.171-0.028,0.45,0.206,0.152,0.212
	c-0.385,0.098-0.198-0.399-0.501-0.527c-0.174,0.08,0.095,0.423-0.118,0.446c-0.297-0.072-0.375-0.436-0.364-0.704
	c-0.271,0.221-0.114-0.066-0.265-0.126c-0.481-0.211,0.301,0.821-0.219,0.447c0.174,0.236,0.319,0.555,0.576,0.692
	c0.365-0.1,0.174,0.433,0.419,0.52c0.196,0.099,0.209,0.348,0.313,0.522C2.23,24.801,2.498,24.345,2.7,24.6
	c0.113-0.064,0.221-0.138,0.334-0.204c0.058,0.124,0.093,0.485-0.121,0.413c-0.158,0.053-0.512,0.355-0.181,0.242
	c0.142,0.145,0.023,0.204-0.098,0.288c0.08,0.072,0.166,0.136,0.242,0.212c-0.16,0.075-0.339-0.006-0.496-0.054
	c0.062-0.179,0.295-0.539-0.024-0.596C1.841,25.02,2.319,25.19,2.34,25.427c-0.454-0.067-0.228,0.513-0.02,0.693
	c-0.289,0.102-0.527-0.166-0.796-0.156c0.037,0.138,0.154,0.38-0.083,0.262c-0.027-0.017-0.083-0.052-0.11-0.07
	c0.005-0.018,0.014-0.054,0.02-0.073c0.119-0.146-0.017-0.221-0.147-0.265c0.047-0.26-0.133-0.472-0.251-0.686
	c-0.076-0.175-0.133-0.356-0.205-0.532c0.028-0.086-0.015-0.169-0.078-0.227c0.019-0.171,0.034-0.391-0.147-0.482
	c-0.045-0.146-0.069-0.296-0.09-0.446c-0.054-0.322-0.144-0.638-0.202-0.96c-0.067-0.397-0.073-0.802-0.138-1.199
	c-0.004-0.031-0.013-0.093-0.017-0.123c0.055-0.133,0.031-0.272-0.007-0.406c0.028-0.13-0.013-0.256-0.042-0.382
	c-0.001-0.115,0.009-0.231,0.024-0.345c0.024-0.013,0.074-0.041,0.098-0.055c0.053,0.49,0.319-0.397,0,0
	C0.119,19.797,0.065,19.625,0,19.455c0.001-0.019,0.003-0.057,0.004-0.075c0.033-0.434,0.011-0.873,0.106-1.299
	c-0.042-0.25,0.344-0.375,0.149-0.567c0.095-0.13,0.133-0.288,0.093-0.447c0.029-0.046,0.058-0.091,0.088-0.135
	c0.221,0.008,0.163-0.117,0.056-0.252c0.004-0.029,0.01-0.09,0.014-0.12c0.032-0.048,0.064-0.096,0.096-0.146
	c0.195,0.148,0.281-0.085,0.193-0.242c-0.082-0.182,0.217-0.204,0.236-0.363c0.063-0.153-0.181-0.027-0.26-0.043
	c0.102-0.335,0.188-0.734,0.585-0.837c-0.15-0.15,0.067-0.272,0.131-0.41c0.291-0.062,0.294-0.326,0.386-0.539
	C2.146,13.91,2.23,13.636,2.374,13.432 M0.883,19.156c0.101,0.055,0.215,0.087,0.331,0.09C1.127,19.131,1.01,19.022,0.883,19.156
	 M1.436,20.684c-0.049,0.125-0.035,0.259-0.003,0.386C1.562,20.946,1.679,20.678,1.436,20.684 M1.346,21.186
	c0.128,0.074,0.452,0.301,0.466,0.026C1.877,20.867,1.521,21.218,1.346,21.186"/>
<path d="M3.66,12.574c0.117-0.116,0.222-0.25,0.364-0.338c0.179,0.2,0.399-0.283,0.589-0.311c0.129-0.081,0.271-0.141,0.418-0.181
	c0.084-0.035,0.252-0.105,0.335-0.142c0.108-0.022,0.216-0.046,0.321-0.08c1.125-0.446,2.361-0.391,3.546-0.53
	c0.178,0.089,0.37,0,0.557,0.016c0.089,0.027,0.182,0.044,0.276,0.046l0.014,0.049c-0.059,0.141,0.005,0.15,0.13,0.088
	c0.156,0.118-0.197,0.142-0.113,0.256c0.048,0.157,0.227,0.164,0.361,0.198c-0.188-0.156-0.103-0.354,0.013-0.489
	c-0.001,0.321,0.345,0.272,0.4,0.555c0.403-0.005,0.626,0.535,1.038,0.366c0.062-0.261,0.28-0.204,0.378,0.007
	c0.185-0.216-0.12-0.517,0.246-0.58c0.046,0.577,0.575,0.044,0.857,0.227c-0.069,0.123-0.339,0.299-0.096,0.374
	c0.397,0.073,0.252,0.531,0.43,0.793c0.125-0.058,0.245,0.021,0.361,0.06c-0.073-0.106-0.245-0.212-0.127-0.349
	c0.188,0.176,0.273,0.395,0.184,0.627c0.097,0.156,0.413,0.21,0.567,0.099c-0.078-0.224-0.526-0.185-0.307-0.517
	c0.255-0.61,0.362,0.433,0.527,0.029c0.135-0.154,0.494,0.403,0.181-0.167c0.06-0.139,0.21-0.28,0.068-0.422
	c-0.081,0.089-0.123,0.205-0.181,0.31c-0.014-0.145,0.021-0.286,0.049-0.426c0.051-0.104,0.207-0.133,0.259-0.01
	c0.078,0.255,0.365-0.292,0.34-0.035c-0.188,0.391,0.435,0.323,0.667,0.223c0.05,0.246,0.289,0.107,0.451,0.012
	c0.064,0.17-0.028,0.466-0.252,0.405c-0.012,0.236,0.312,0.557,0.025,0.73c-0.192,0.133,0.062,0.286,0.189,0.342
	c0.239-0.177,0.01-0.726,0.38-0.721c-0.102,0.112,0.072,0.162,0.133,0.237c-0.034,0.167-0.182,0.342-0.045,0.502
	c0.078-0.205,0.359-0.319,0.205-0.552c-0.105-0.157,0.082-0.216,0.184-0.299c-0.071,0.232,0.137,0.398,0.299,0.521
	c0.063,0.172,0.034,0.565,0.308,0.466c0.267,0.068-0.011-0.286,0.205-0.326c0.278-0.287,0.527-0.003,0.804,0.068
	c-0.036-0.078-0.072-0.154-0.11-0.231c0.458-0.142,0.386,0.584,0.751,0.658c-0.124,0.085-0.222,0.198-0.333,0.296
	c-0.226-0.103-0.464-0.237-0.298-0.511c-0.2,0.314-0.33-0.131-0.524,0.027c-0.275,0.257,0.469,0.283,0.145,0.574
	c0.296,0.219-0.174,0.68-0.359,0.322c-0.162,0.219,0.341,0.577,0.404,0.266c0.092-0.267,0.471-0.216,0.608-0.051
	c-0.239,0.21,0.23,0.273,0.297,0.096c0.201-0.196,0.182,0.208,0.17,0.337c0.113,0.192,0.23,0.065,0.218-0.111
	c0.247-0.111,0.441,0.277,0.65,0.045c0.135,0.125,0.601,0.428,0.212,0.469c0.171,0.14,0.764,0.055,0.553,0.38
	c-0.2-0.21-0.457-0.069-0.696-0.036c-0.367-0.037-0.645-0.318-1.004-0.365c-0.306-0.214-0.647,0.012-0.969-0.081
	c-0.233-0.137-0.509-0.062-0.76-0.038c-0.257-0.033-0.594-0.373-0.778-0.082c-0.144,0.083-0.287,0.167-0.43,0.249
	c-0.333,0.15-0.573-0.281-0.898-0.167c-0.272,0.102-0.588-0.076-0.816,0.138c-0.119-0.029-0.231-0.078-0.343-0.123
	c-0.055-0.09-0.165-0.065-0.22,0.01c-0.051-0.016-0.101-0.031-0.152-0.046c-0.155-0.07-0.308-0.166-0.485-0.156
	c-0.154-0.064-0.306-0.137-0.465-0.188c-0.219,0.005-0.318-0.318-0.52-0.245c-0.08,0.026-0.148,0.071-0.204,0.134
	c-0.43-0.206-0.899-0.286-1.313-0.532c-0.087-0.095-0.174-0.216-0.315-0.131c-0.403-0.021-0.37-0.638-0.671-0.8
	c-0.235,0.139,0.326,0.536,0.006,0.718c-0.366,0.176,0.091-0.413-0.33-0.449c-0.196,0.093-0.578-0.023-0.433-0.286
	c0.117-0.165-0.301-0.152-0.207-0.296c0.122-0.016,0.243-0.042,0.349-0.107c-0.338-0.145-0.5-0.692-0.931-0.492
	c-0.034,0.113,0.472,0.301,0.244,0.556c-0.073-0.09-0.361-0.224-0.228-0.003c0.144,0.24-0.299-0.006-0.341,0.205
	c0.101,0.169,0.36,0.435,0.02,0.512c-0.062-0.38-0.446-0.51-0.728-0.644c-0.369,0.19,0.004-0.456-0.329-0.406
	c-0.616,0.261,0.288,0.883-0.01,1.322c-0.059-0.141-0.109-0.423-0.178-0.135c-0.135-0.069-0.261-0.157-0.402-0.215
	c0.013,0.339,0.031,0.76,0.374,0.935c-0.313,0.034-0.705,0.01-0.711-0.418c-0.254,0.292-0.046,0.635,0.01,0.957
	c-0.022,0.009-0.064,0.031-0.085,0.04c-0.138,0.004-0.435-0.106-0.246-0.253c0.273-0.101-0.095-0.221-0.214-0.069
	c-0.169-0.178-0.304-0.384-0.476-0.56c-0.208,0.212-0.09,0.519-0.297,0.738c-0.119-0.084-0.38-0.132-0.33-0.321
	c0.193,0.005,0.438,0.049,0.196-0.159c0.274-0.217,0.216-0.536,0.072-0.8c-0.118-0.23,0.262-0.024,0.166-0.21
	c-0.043-0.232-0.165-0.599,0.095-0.728c0.19-0.107-0.015-0.364,0.137-0.519c-0.137,0.075-0.28-0.016-0.416-0.045
	c-0.01-0.173,0.081-0.359-0.099-0.499c-0.109,0.083-0.223,0.158-0.346,0.217c-0.065,0.1,0.272,0.392,0.058,0.434
	c-0.292,0.065-0.001,0.377-0.131,0.562c-0.171,0.295-0.28,0.034-0.407-0.057c0.094-0.264,0.092-0.585,0.279-0.781
	c0.265-0.249-0.492-0.349-0.373-0.078C4.229,12.757,3.872,12.494,3.66,12.574 M8.925,11.242c-0.055,0.25-0.011,0.556-0.336,0.724
	c0.136,0.267,0.363,0.526,0.203,0.825c0.11,0.443,0.16-0.462,0.312-0.128c0.276,0.238-0.223-0.337-0.081-0.488
	c0.258,0.074,0.238,0.431,0.446,0.531c0.155-0.292,0.288,0.585,0.328,0.236c-0.006-0.162,0.232-0.252,0.089-0.406
	c-0.143-0.293,0.371-0.095,0.323-0.282c-0.156,0.02-0.156-0.313-0.333-0.142c-0.18,0.235-0.413-0.383-0.575-0.042
	C9.166,11.792,9.249,11.341,8.925,11.242 M7.909,12.028c-0.015,0.182-0.172,0.428,0.072,0.517c0.174-0.015,0.005-0.166-0.013-0.256
	c0.239,0.017,0.276,0.583,0.113,0.679c-0.122-0.242-0.376-0.318-0.618-0.389c0.077,0.177,0.083,0.446,0.31,0.497
	c0.002-0.446,0.226,0.204,0.482,0.022c0.109,0.127,0.285,0.361,0.458,0.187c0.205-0.259-0.047-0.616-0.308-0.729
	c-0.424-0.264,0.228-0.334,0.091-0.615c-0.134,0.026-0.253,0.088-0.329,0.203C8.072,12.33,7.959,11.923,7.909,12.028 M6.49,12.992
	c0.074,0.183,0.12,0.374,0.165,0.565c0.139-0.291,0.19,0.157,0.326,0.016c-0.072-0.253,0.205,0.085,0.308-0.088
	C7.143,13.166,6.838,13.008,6.49,12.992 M12.775,14.164c-0.111,0.283,0.461,0.17,0.473,0.438c0.06,0.215,0.259-0.035,0.365-0.096
	c0.063,0.103,0.149,0.243,0.29,0.168c-0.072-0.076-0.14-0.155-0.195-0.244c0.17,0.076,0.351,0.026,0.517-0.035
	c0.059-0.254-0.395-0.246-0.45-0.492c-0.397-0.251,0.054,0.419-0.267,0.486C13.27,14.441,12.984,14.118,12.775,14.164
	 M14.646,14.264c0.119,0.377-0.754,0.269-0.413,0.622c-0.272-0.19-0.243,0.351-0.023,0.407c0.048-0.11,0.074-0.228,0.12-0.338
	c0.096,0.082,0.184,0.174,0.287,0.249c0.137,0.061,0.287,0.111,0.439,0.077c0.095-0.253-0.283-0.063-0.281-0.29
	c0.067-0.142,0.139-0.157,0.202,0c0.303-0.221-0.265-0.269-0.053-0.52c-0.065-0.357,0.454,0.261,0.296-0.074
	c-0.248-0.248,0.046-0.65-0.326-0.81C14.547,13.578,14.608,14.023,14.646,14.264 M15.488,14.451
	c0.021,0.163-0.165,0.482-0.259,0.193c-0.114,0.157,0.143,0.508,0.309,0.302c-0.114-0.147-0.094-0.326,0.033-0.091
	c0.073-0.205,0.415-0.232,0.311-0.497C15.733,14.378,15.625,14.474,15.488,14.451 M18.087,14.071
	c-0.063,0.184,0.071,0.382,0.246,0.443c0.141-0.067,0.28-0.278,0.155-0.42c-0.174,0.044-0.316,0.448-0.388-0.065L18.087,14.071z"/>
<path d="M5.031,11.745c0.084-0.036,0.251-0.106,0.335-0.142C5.282,11.639,5.115,11.709,5.031,11.745"/>
<path d="M3.534,12.624c0.032-0.012,0.095-0.038,0.126-0.05c0.212-0.08,0.569,0.184,0.641-0.098
	c-0.119-0.269,0.638-0.171,0.373,0.079c-0.186,0.196-0.185,0.517-0.279,0.78c-0.133,0.027-0.244,0.139-0.202,0.284
	c-0.371,0.512-0.373-0.186-0.472-0.451c-0.181-0.004,0.061-0.188,0.076-0.28C3.676,12.825,3.481,12.807,3.534,12.624"/>
<path d="M3.161,13.512c0.12-0.028,0.199,0.126,0.307-0.004c0.414,0.196,0.466,0.668,0.605,1.049
	c-0.007-0.432,0.448-0.046,0.709-0.166c-0.237,0.215-0.019,0.498,0.262,0.483c-0.275-0.267,0.085-0.521-0.026-0.815
	c0.173-0.016,0.309-0.204,0.486-0.088c0.096,0.186-0.285-0.021-0.166,0.21c0.143,0.264,0.202,0.583-0.072,0.8
	c0.242,0.208-0.003,0.164-0.197,0.159C5.02,15.329,5.281,15.376,5.4,15.461c0.207-0.219,0.088-0.526,0.297-0.738
	c0.171,0.175,0.307,0.382,0.476,0.56c0.119-0.152,0.487-0.032,0.214,0.068c-0.189,0.148,0.108,0.257,0.246,0.254
	c-0.205,0.253-0.423,0.52-0.751,0.6c-0.03-0.013-0.087-0.039-0.117-0.051c-0.145-0.053-0.236,0.153-0.356,0.209
	c-0.109,0.04-0.237,0.045-0.32,0.134c-0.399,0.339-0.751,0.759-0.774,1.3c0.006,0.178-0.136,0.261-0.289,0.329
	c-0.973-0.047,0.327,1.096-0.402,1.242c-0.397-0.288-0.379-0.841-0.384-1.299c-0.384,0.124-0.166-0.492-0.186-0.705
	c-0.3-0.1-0.2-0.372-0.368-0.557c0.118-0.129,0.28-0.231,0.321-0.42c-0.109-0.001-0.237-0.003-0.258-0.138
	c0.044-0.25,0.359-0.125,0.531-0.114c-0.209-0.179-0.213-0.564-0.529-0.588c-0.192-0.13,0.124-0.53,0.198-0.073
	c0.383-0.052,0.436,0.343,0.578,0.607c0.035-0.199-0.083-0.393-0.042-0.589c0.147,0.109,0.408,0.163,0.342-0.108
	c0.001-0.314-0.352-0.087-0.332-0.385c-0.032-0.303-0.33,0.378-0.346-0.158c-0.224,0.084-0.238-0.42-0.117-0.566
	c0.172-0.008,0.343,0.008,0.513,0.037c-0.183-0.156-0.353-0.325-0.4-0.572C3.378,13.854,3.278,13.591,3.161,13.512 M4.136,15.122
	c0.008,0.23,0.079,0.424,0.259,0.591c0.031-0.166,0.118-0.277,0.293-0.3C4.512,15.326,4.284,15.302,4.136,15.122"/>
<path d="M25.245,1.326c0.052-0.02,0.105-0.041,0.155-0.07c0.257-0.155,0.509-0.315,0.775-0.459c0.168,0.034,0.29-0.019,0.365-0.16
	c0.447-0.042,0.794-0.334,1.133-0.598c0.452-0.076,0.905-0.025,1.358,0.025c0.02,0.362,0.299,0.683,0.228,1.049
	c-0.046,0.181-0.004,0.433-0.252,0.457c0.342,0.252,0.019,0.406-0.187,0.621c0.017,0.224-0.268,0.259-0.356,0.08
	c0.045-0.111,0.2-0.122,0.216-0.253c-0.206,0.122-0.436,0.262-0.52,0.501c-0.005,0.165,0.192-0.041,0.24,0.102
	c-0.086,0.049-0.234,0.039-0.248,0.162c0.121,0.099,0.294,0.177,0.219,0.364c-0.157,0.153-0.429,0.136-0.519,0.365
	c-0.141,0.335-0.61,0.328-0.725,0.696c-0.069,0.031-0.131,0.073-0.185,0.124l-0.046-0.004c-0.024-0.002-0.071-0.007-0.095-0.01
	c-0.26-0.024-0.363,0.176-0.408,0.376c-0.162,0.433-0.347,0.852-0.602,1.238c-0.023,0.278-0.131,0.535-0.347,0.719
	c0.006-0.563-0.659-0.197-0.634-0.654c0.253-0.157,0.553-0.156,0.791,0.021c-0.023-0.072-0.069-0.216-0.092-0.288
	c0.197,0.266,0.498-0.256,0.125-0.267c0.303-0.117-0.099-0.157-0.169-0.3c0.044-0.228,0.219,0.018,0.331,0.065
	c0.075-0.114,0.07-0.241-0.079-0.276c-0.005-0.174,0.128-0.307,0.168-0.449c0.026-0.421-0.411-0.566-0.412-0.975
	c-0.079-0.244,0.256-0.394,0.141-0.642c0.24-0.104,0.41,0.405,0.132,0.092c-0.06,0.187,0.011,0.374,0.131,0.524
	c0.175,0,0.245-0.184,0.359-0.286c-0.076-0.213-0.5-0.47-0.161-0.621c0.105,0.367,0.598,0.181,0.751,0.471
	c0.114,0.099,0.24-0.176,0.361-0.21c0.068,0.12,0.087,0.441,0.291,0.292c0.152-0.103-0.057-0.231-0.11-0.331
	c0.216-0.107,0.608-0.197,0.468-0.515c-0.158-0.21,0.159-0.369,0.003-0.556c-0.122,0.092-0.23,0.205-0.352,0.294
	C27.172,1.979,27,1.681,26.79,1.468c-0.069,0.1-0.122,0.21-0.189,0.312c-0.093-0.196-0.138-0.44-0.345-0.548
	c-0.18,0.019-0.174,0.188-0.166,0.325c-0.161,0.063-0.286,0.182-0.223,0.368c-0.007-0.452-0.553-0.165-0.633-0.516
	C25.236,1.388,25.242,1.347,25.245,1.326"/>
<path d="M24.862,1.69c0.033-0.055,0.065-0.111,0.098-0.168c0.101-0.006,0.2-0.04,0.273-0.113c0.08,0.351,0.626,0.063,0.633,0.516
	c-0.062-0.187,0.062-0.304,0.223-0.368c-0.008-0.136-0.014-0.307,0.166-0.325c0.207,0.108,0.252,0.353,0.345,0.548
	c0.067-0.101,0.12-0.212,0.189-0.312c0.21,0.214,0.383,0.511,0.697,0.574c0.122-0.09,0.23-0.203,0.352-0.295
	c0.156,0.187-0.161,0.346-0.003,0.557c0.14,0.317-0.252,0.407-0.468,0.514c0.053,0.1,0.262,0.228,0.11,0.331
	c-0.204,0.149-0.223-0.172-0.291-0.292c-0.121,0.035-0.247,0.31-0.361,0.21c-0.153-0.289-0.646-0.104-0.751-0.471
	c-0.339,0.151,0.085,0.408,0.161,0.622c-0.114,0.101-0.184,0.286-0.359,0.286c-0.12-0.151-0.191-0.338-0.131-0.525
	c0.278,0.313,0.108-0.196-0.132-0.092c0.115,0.248-0.22,0.398-0.141,0.643c0.001,0.408,0.438,0.553,0.412,0.975
	c-0.04,0.142-0.173,0.275-0.168,0.448c0.149,0.036,0.154,0.163,0.079,0.277c-0.112-0.048-0.287-0.293-0.331-0.066
	c0.07,0.143,0.472,0.183,0.169,0.3c-0.114,0.041-0.107,0.17-0.125,0.268c0.023,0.072,0.069,0.215,0.092,0.287
	c-0.238-0.178-0.538-0.179-0.791-0.022c-0.025,0.457,0.64,0.092,0.634,0.655L25.449,6.7c-0.217,0.07-0.117,0.294-0.077,0.451
	c-0.019,0.112-0.098,0.197-0.164,0.285c-0.084,0.061-0.163,0.125-0.236,0.199c-0.097,0.023-0.208,0.094-0.168,0.21
	c-0.017,0.083-0.034,0.166-0.044,0.251c-0.02,0.103-0.001,0.208,0.014,0.31c0.004,0.323,0.12,0.658-0.029,0.966
	c-0.095,0.165-0.083,0.409,0.079,0.525c0.021,0.023,0.06,0.07,0.081,0.093c-0.06,0.115-0.084,0.239-0.082,0.368
	c-0.285-0.071-0.645-0.282-0.469-0.621c-0.15-0.17-0.204-0.798-0.55-0.634c-0.084,0.151,0.092,0.192,0.206,0.18
	c-0.003,0.16-0.096,0.304-0.091,0.466c-0.3,0.144-0.044-0.389-0.333-0.368c-0.202,0.011-0.503-0.118-0.235-0.311
	c-0.242-0.037-0.166-0.35-0.191-0.531c0.087-0.235-0.295-0.667-0.391-0.278c-0.172-0.193,0.073-0.312,0.139-0.484
	c-0.067-0.164-0.293-0.216-0.256-0.43c-0.11,0.131-0.259,0.03-0.375-0.038c0.049-0.236,0.035-0.47,0.135-0.691
	c-0.398,0.477-0.808-0.315-0.344-0.462c0.205-0.223,0.253,0.231,0.491,0.16c0.188,0.079,0.152-0.466,0.009-0.231
	c-0.066-0.289-0.26-0.629-0.079-0.91c0.054-0.069,0.009-0.152-0.001-0.229c0.139,0.101,0.38,0.271,0.446,0.006
	c-0.118-0.061-0.308-0.237-0.055-0.236c0.247,0.108,0.009,0.618,0.284,0.764c0.077-0.092,0.156-0.183,0.238-0.271
	c-0.371-0.208-0.172-0.774-0.508-0.993c-0.151-0.042-0.061-0.39,0.075-0.282c0.285,0.079,0.337,0.689,0.699,0.286
	c0.225-0.076,0.104-0.541,0.399-0.468c0.112-0.059,0.163-0.144,0.044-0.232c-0.201-0.167-0.017-0.421,0.029-0.624
	c0.211-0.052,0.427,0.039,0.64-0.032c0.037,0.129-0.011,0.391,0.201,0.282c-0.091-0.146-0.066-0.266,0.088-0.348
	c-0.054-0.481-0.293-0.066-0.461,0.015c-0.13-0.173,0.265-0.419-0.026-0.483c-0.271-0.137-0.398,0.295-0.657,0.139
	c0.1-0.11,0.205-0.216,0.301-0.332c0.118,0.077,0.208-0.041,0.257-0.137c0.119,0.076,0.15-0.08,0.202-0.154
	C24.762,1.822,24.836,1.773,24.862,1.69 M23.988,3.973c0.193,0.206,0.26,0.271,0.146,0.599c0.002-0.326-0.219-0.384-0.448-0.291
	c0.103,0.137,0.307,0.175,0.216,0.394c-0.065,0.241,0.536,0.436,0.011,0.56c0.218,0.161,0.094,0.471-0.118,0.312
	c0.103,0.201,0.454,0.261,0.619,0.103c0.149-0.199,0.34,0.093,0.522,0.009c-0.025-0.287-0.335-0.364-0.474-0.158
	c-0.21,0.011-0.216-0.178-0.182-0.335c0.299-0.045,0.196-0.453,0.298-0.643c0.381,0.172,0.208-0.464,0.083-0.232
	c-0.161,0.226-0.19-0.125-0.116-0.247C24.424,3.911,24.158,3.975,23.988,3.973 M22.732,5.397c0.261-0.005-0.051,0.507,0.186,0.409
	C23.203,5.771,22.919,5.398,22.732,5.397 M23.637,6.661c0.006,0.49-0.084,1.029,0.148,1.445c0.182-0.378,0.358,0.207,0.24,0.312
	c-0.241-0.168-0.705-0.063-0.642,0.291c0.245-0.044,0.45,0.265,0.683,0.096c-0.106-0.222,0.47-0.057,0.262-0.245
	c-0.294-0.196,0.603-0.202,0.172-0.448c-0.038,0.181-0.246,0.311-0.32,0.079c-0.37-0.335,0.219-0.19,0.179-0.476
	c-0.123,0.104-0.274,0.21-0.446,0.172c-0.105-0.173-0.011-0.28,0.175-0.29c-0.264-0.181-0.279-0.375-0.25-0.666
	C23.667,6.858,23.871,6.593,23.637,6.661"/>
<path d="M4.193,13.619c-0.042-0.146,0.068-0.257,0.202-0.284C4.429,13.567,4.483,13.929,4.193,13.619"/>
<path d="M22.042,4.897c0.507-0.894,1.126-1.728,1.882-2.426c0.259,0.156,0.386-0.276,0.657-0.139
	c0.291,0.064-0.105,0.31,0.026,0.483c0.168-0.081,0.407-0.496,0.461-0.015c-0.154,0.082-0.179,0.201-0.088,0.348
	c-0.213,0.108-0.164-0.153-0.201-0.282c-0.213,0.071-0.429-0.02-0.64,0.031c-0.047,0.204-0.23,0.458-0.029,0.625
	c0.119,0.088,0.068,0.173-0.044,0.232c-0.295-0.073-0.174,0.392-0.399,0.468c-0.362,0.403-0.415-0.207-0.699-0.286
	c-0.136-0.108-0.226,0.24-0.075,0.282c0.336,0.219,0.137,0.785,0.508,0.993c-0.083,0.088-0.161,0.179-0.238,0.271
	c-0.275-0.146-0.037-0.655-0.285-0.764c-0.252-0.001-0.062,0.175,0.056,0.236c-0.066,0.264-0.307,0.094-0.446-0.006
	c0.01,0.076,0.055,0.159,0.001,0.228c-0.181,0.281,0.013,0.621,0.079,0.91c0.143-0.235,0.179,0.309-0.009,0.23
	c-0.238,0.071-0.286-0.383-0.491-0.16c-0.464,0.146-0.054,0.938,0.344,0.462c-0.1,0.221-0.086,0.455-0.135,0.691
	c0.115,0.068,0.265,0.169,0.375,0.037c-0.037,0.215,0.189,0.267,0.256,0.431c-0.066,0.173-0.311,0.291-0.139,0.484
	c0.096-0.389,0.478,0.043,0.391,0.278c0.025,0.18-0.051,0.494,0.19,0.531c-0.267,0.192,0.034,0.321,0.236,0.311
	c0.289-0.021,0.033,0.512,0.333,0.368c-0.005-0.163,0.088-0.306,0.091-0.466c-0.114,0.011-0.291-0.029-0.206-0.18
	c0.345-0.165,0.4,0.464,0.55,0.634c-0.177,0.338,0.184,0.55,0.469,0.62c0.02,0.176-0.11,0.254-0.268,0.214
	c0.041,0.294,0.142,0.605-0.023,0.885c-0.223,0.107-0.265,0.345-0.391,0.526c-0.104-0.058-0.21,0.058-0.125,0.15
	c-0.179,0.076-0.353,0.049-0.513-0.05c-0.167,0.019-0.4,0.183-0.355,0.368c0.162,0.023,0.432,0.019,0.351,0.26
	c0.036,0.138-0.104,0.101-0.186,0.094c-0.126,0.387-0.366,0.723-0.536,1.088c-0.036,0.017-0.11,0.051-0.146,0.069
	c0.229-0.377-0.279-0.573-0.307-0.891c0.253-0.262-0.106-0.449-0.361-0.377c0.251-0.1,0.17-0.403,0.334-0.578
	c0.033-0.177,0.146-0.368,0.011-0.533c-0.12,0.075-0.256,0.105-0.393,0.133c0.298,0.256-0.109,0.656,0.048,0.978
	c-0.281,0.034-0.278-0.326-0.277-0.522c-0.149-0.003-0.314,0.07-0.448-0.021c-0.149-0.188-0.164-0.429-0.262-0.636
	c-0.191-0.016-0.397,0.045-0.572-0.057c-0.052-0.114-0.164-0.3-0.267-0.118c-0.106,0.07-0.089,0.201-0.113,0.309
	c-0.061-0.271-0.382-0.091-0.45-0.407c0.011-0.096,0.021-0.192,0.035-0.287c0.047-0.062,0.106-0.122,0.094-0.206
	c0.099-0.172,0.134-0.365,0.155-0.56c0.062-0.285,0.109-0.58,0.251-0.839c0.223-0.103,0.087,0.399,0.376,0.324
	c0.051-0.144,0.094-0.483,0.334-0.386c0.042-0.277-0.382-0.148-0.525-0.285c0.029-0.21,0.066-0.471,0.333-0.473
	c-0.227-0.304,0.215-0.688,0.257-1.008c0.124-0.095,0.331-0.438,0.244-0.095c0.358,0.066,0.051-0.326-0.037-0.499
	C21.34,6.221,21.661,5.538,22.042,4.897 M22.351,7.457c-0.07,0.109-0.255,0.289-0.01,0.243c-0.326,0.11,0.077,0.348,0.247,0.211
	C22.375,7.817,22.55,7.437,22.351,7.457 M22.101,10.216c0.001,0.114-0.036,0.211-0.137,0.271c0.054,0.261,0.418-0.347,0.39,0.217
	c-0.245-0.03-0.052,0.415,0.088,0.186c0.058,0.124,0.145,0.208,0.287,0.147c-0.029-0.163-0.095-0.444-0.306-0.412
	C22.305,10.551,22.216,10.104,22.101,10.216 M23.463,10.652c-0.019,0.101-0.024,0.203-0.025,0.305
	c0.21-0.071,0.217,0.129,0.272,0.276c0.1-0.163,0.138-0.345,0.386-0.294C23.932,10.774,23.613,10.76,23.463,10.652 M24.131,10.397
	c0.033,0.071,0.027,0.332,0.123,0.169C24.423,10.47,24.265,10.206,24.131,10.397 M23.74,11.292c-0.056,0.08-0.233,0.47-0.01,0.345
	C23.901,11.629,23.952,11.206,23.74,11.292"/>
<path d="M0.606,16.415c0.018-0.223,0.071-0.446,0.169-0.648c0.079,0.016,0.323-0.11,0.26,0.043c-0.019,0.159-0.318,0.18-0.236,0.363
	C0.887,16.33,0.801,16.563,0.606,16.415"/>
<path d="M8.925,11.242c0.324,0.1,0.241,0.549,0.376,0.828c0.162-0.341,0.395,0.277,0.575,0.042c0.177-0.171,0.176,0.161,0.333,0.143
	c0.048,0.187-0.467-0.011-0.323,0.282c0.142,0.154-0.095,0.244-0.089,0.405c-0.041,0.35-0.174-0.527-0.328-0.235
	c-0.208-0.1-0.188-0.457-0.447-0.532c-0.141,0.152,0.358,0.727,0.082,0.489c-0.152-0.334-0.202,0.571-0.312,0.128
	c0.16-0.299-0.068-0.558-0.203-0.825C8.914,11.799,8.869,11.492,8.925,11.242"/>
<path d="M29.03,0.064c0.416,0.012,0.819,0.211,1.233,0.069c0.212,0.024,0.425,0.021,0.638,0.038
	c0.264,0.073,0.519,0.216,0.801,0.195c0.057,0.029,0.114,0.061,0.168,0.097c0.091,0.171,0.254,0.285,0.216,0.509
	c0.115-0.084,0.168-0.229,0.288-0.307c0.182,0.238,0.433,0.422,0.6,0.674c-0.262-0.128-0.386,0.012-0.619,0.117
	c0.032-0.14-0.02-0.269-0.103-0.38c-0.242,0.018-0.418,0.336-0.663,0.178c-0.028,0.372,0.348,0.489,0.532,0.749
	c-0.03,0.13-0.129,0.225-0.198,0.336c0.306,0.133,0.678,0.206,0.825,0.543c-0.031-0.004-0.094-0.012-0.125-0.016
	c-0.019-0.009-0.058-0.025-0.077-0.034c-0.823-0.412-1.762-0.553-2.674-0.57c-0.468,0.007-0.717,0.482-1.147,0.599
	c-0.01-0.394-0.225,0.036-0.227,0.214c-0.032,0.018-0.096,0.053-0.128,0.07c0.076-0.187-0.098-0.265-0.219-0.364
	c0.014-0.123,0.162-0.113,0.248-0.162c-0.048-0.143-0.245,0.063-0.24-0.102c0.084-0.239,0.314-0.379,0.52-0.501
	c-0.016,0.131-0.171,0.142-0.216,0.253c0.088,0.178,0.373,0.145,0.356-0.08c0.206-0.215,0.529-0.369,0.187-0.621
	c0.248-0.024,0.206-0.276,0.252-0.457C29.33,0.747,29.05,0.427,29.03,0.064"/>
<path d="M7.908,12.028c0.051-0.105,0.164,0.302,0.258,0.116c0.077-0.116,0.195-0.177,0.33-0.203
	c0.136,0.281-0.516,0.351-0.091,0.615c0.26,0.113,0.513,0.47,0.307,0.729c-0.173,0.174-0.348-0.06-0.458-0.187
	C8,13.28,7.775,12.63,7.773,13.076c-0.228-0.051-0.234-0.32-0.31-0.497c0.241,0.07,0.495,0.146,0.617,0.389
	c0.163-0.095,0.127-0.662-0.113-0.678c0.019,0.09,0.187,0.241,0.014,0.256C7.736,12.457,7.895,12.21,7.908,12.028"/>
<path d="M6.49,12.993c0.348,0.016,0.653,0.172,0.799,0.492c-0.103,0.174-0.38-0.164-0.308,0.089
	c-0.136,0.14-0.187-0.308-0.326-0.016C6.61,13.366,6.564,13.175,6.49,12.993"/>
<path d="M10.21,11.191c-0.125,0.062-0.189,0.054-0.13-0.088c0.215-0.022,0.426-0.089,0.645-0.076
	c0.09,0.133,0.233,0.018,0.306-0.069c0.332-0.002,0.665,0.028,0.997-0.006c0.055,0.063,0.143,0.076,0.213,0.028
	c0.208,0.015,0.414,0.033,0.623,0.041c0.213,0.084,0.441,0.152,0.672,0.096c0.099,0.043,0.205,0.064,0.312,0.077
	c0.156,0.059,0.314,0.117,0.477,0.156c0.119,0.032,0.243,0.042,0.366,0.056c0.03,0.08,0.117,0.12,0.197,0.082
	c0.064,0.078,0.148,0.138,0.253,0.138c0.549,0.078,1.094,0.18,1.639,0.281c0.031,0.078,0.113,0.118,0.193,0.086
	c0.293,0.095,0.594,0.185,0.908,0.154c0.33,0.104,0.671,0.166,1.017,0.188c0.119,0.044,0.236,0.094,0.357,0.134
	c0.069-0.244,0.072-0.5,0.117-0.748c0.063-0.165,0.043-0.369,0.203-0.481c0.068,0.316,0.389,0.135,0.45,0.407
	c0.024-0.107,0.007-0.239,0.113-0.309c0.029,0.356,0.564,0.14,0.676,0.45c-0.282,0.02-0.554,0.142-0.725,0.378
	c-0.144-0.019-0.24-0.131-0.344-0.219c-0.183,0.144-0.333,0.319-0.358,0.556c-0.225,0.418-0.694,0.077-0.943,0.398
	c-0.181-0.323-0.641-0.101-0.862,0.073c-0.102,0.083-0.289,0.142-0.184,0.3c0.154,0.233-0.127,0.347-0.205,0.551
	c-0.137-0.159,0.011-0.334,0.045-0.502c-0.061-0.074-0.235-0.124-0.133-0.236c-0.37-0.006-0.141,0.544-0.38,0.721
	c-0.128-0.056-0.381-0.209-0.189-0.343c0.287-0.173-0.037-0.493-0.025-0.73c0.224,0.061,0.316-0.234,0.252-0.404
	c-0.162,0.094-0.401,0.233-0.451-0.013c-0.233,0.1-0.855,0.168-0.667-0.222c0.025-0.257-0.262,0.29-0.34,0.034
	c-0.052-0.122-0.208-0.094-0.259,0.011c-0.218,0.199-0.229-0.222-0.441-0.233c0.101,0.147,0.012,0.255-0.153,0.239
	c-0.242-0.211-0.616-0.564-0.98-0.366c-0.021-0.012-0.062-0.038-0.082-0.051c-0.282-0.184-0.811,0.35-0.857-0.227
	c-0.366,0.063-0.061,0.364-0.246,0.58c-0.098-0.212-0.316-0.269-0.378-0.007c-0.412,0.168-0.635-0.371-1.038-0.366
	c-0.055-0.283-0.401-0.235-0.401-0.555c-0.115,0.135-0.2,0.333-0.012,0.489c-0.134-0.035-0.313-0.041-0.361-0.199
	C10.013,11.333,10.366,11.31,10.21,11.191"/>
<path d="M7.625,14.44c0.298-0.438-0.606-1.062,0.01-1.323c0.333-0.049-0.04,0.597,0.329,0.406c0.282,0.135,0.666,0.266,0.728,0.646
	c0.34-0.077,0.082-0.344-0.02-0.512c0.042-0.211,0.485,0.034,0.341-0.205c-0.133-0.223,0.155-0.087,0.229,0.003
	c0.227-0.255-0.279-0.444-0.245-0.557c0.431-0.2,0.593,0.348,0.931,0.491c-0.106,0.067-0.227,0.093-0.349,0.109
	c-0.094,0.143,0.324,0.13,0.207,0.296c-0.145,0.262,0.237,0.378,0.433,0.285c0.421,0.037-0.036,0.625,0.33,0.45
	c0.32-0.182-0.241-0.579-0.006-0.718c0.301,0.161,0.268,0.779,0.671,0.799c0.141-0.084,0.228,0.037,0.315,0.132
	c-0.656-0.04-1.292-0.212-1.934-0.005c-0.728-0.15-1.415,0.168-2.087,0.407c-0.316,0.026-0.452,0.695-0.79,0.42
	c-0.056-0.323-0.264-0.665-0.01-0.958c0.006,0.429,0.398,0.453,0.711,0.418c-0.343-0.175-0.361-0.596-0.374-0.934
	c0.141,0.058,0.267,0.146,0.402,0.215C7.516,14.017,7.565,14.3,7.625,14.44"/>
<path d="M4.136,15.122c0.148,0.18,0.376,0.204,0.552,0.291c-0.175,0.023-0.262,0.134-0.293,0.3
	C4.215,15.546,4.144,15.352,4.136,15.122"/>
<path d="M23.988,3.972c0.17,0.002,0.436-0.06,0.557,0.071C24.471,4.164,24.5,4.515,24.662,4.29c0.124-0.232,0.297,0.404-0.084,0.232
	c-0.102,0.19,0.002,0.598-0.297,0.642C24.246,5.322,24.252,5.51,24.462,5.5c0.14-0.206,0.449-0.129,0.474,0.157
	c-0.181,0.085-0.373-0.208-0.522-0.009c-0.165,0.158-0.516,0.098-0.618-0.102c0.211,0.158,0.335-0.152,0.118-0.312
	c0.525-0.124-0.077-0.319-0.011-0.561c0.09-0.218-0.113-0.256-0.217-0.394c0.229-0.093,0.451-0.035,0.448,0.292
	C24.249,4.244,24.181,4.178,23.988,3.972"/>
<path d="M22.733,5.397c0.187,0.001,0.471,0.373,0.186,0.408C22.681,5.905,22.994,5.393,22.733,5.397"/>
<path d="M31.871,0.464c0.119,0.043,0.245,0.067,0.37,0.083c0.161,0.048,0.323,0.095,0.489,0.13c0.366,0.049,0.693,0.204,0.993,0.418
	c0.733,0.293,1.378,0.746,2.101,1.06c0.305,0.228,0.57,0.514,0.928,0.667c0.162,0.129,0.458,0.185,0.456,0.436
	c-0.085,0.028-0.139,0.076-0.163,0.146c0.022,0.116,0.063,0.228,0.069,0.347c0.044,0.254-0.457-0.014-0.316,0.258
	c0.002,0.259,0.226,0.255,0.418,0.185c0.027,0.206,0.028,0.445,0.212,0.577c0.124,0.081,0.038,0.469,0.23,0.257
	c-0.075,0.229,0.369,0.437,0,0.564c-0.259-0.142-0.316-0.092-0.151,0.17l-0.06,0.014c-0.062-0.068-0.122-0.137-0.18-0.208
	c-0.008-0.084-0.048-0.192-0.15-0.187c-0.14-0.201-0.322-0.368-0.493-0.541c-0.101-0.097-0.205-0.193-0.308-0.288
	c-0.017-0.092-0.11-0.167-0.195-0.098c-0.054-0.049-0.107-0.099-0.158-0.15c-0.099-0.121-0.22-0.222-0.362-0.286
	c-0.186-0.091-0.367-0.191-0.548-0.29c-0.508-0.288-1.014-0.551-1.53-0.824c-0.246,0.099-0.518,0.01-0.774-0.021
	c-0.147-0.337-0.519-0.41-0.825-0.544c0.068-0.11,0.167-0.206,0.198-0.335c-0.184-0.26-0.56-0.378-0.532-0.749
	c0.245,0.158,0.421-0.16,0.662-0.178c0.084,0.112,0.136,0.24,0.104,0.38c0.233-0.105,0.357-0.245,0.619-0.117
	c-0.167-0.252-0.418-0.436-0.6-0.674c-0.12,0.078-0.173,0.223-0.288,0.307C32.124,0.748,31.961,0.635,31.871,0.464"/>
<path d="M20.884,7.522c0.049-0.204,0.117-0.403,0.208-0.594c0.088,0.172,0.394,0.564,0.036,0.499
	C21.215,7.083,21.008,7.428,20.884,7.522"/>
<path d="M13.293,12.105c-0.243-0.075,0.028-0.251,0.096-0.374c0.02,0.013,0.062,0.039,0.082,0.051
	c0.364-0.199,0.738,0.155,0.981,0.366c0.165,0.016,0.254-0.091,0.153-0.239c0.212,0.011,0.222,0.433,0.44,0.233
	c-0.028,0.14-0.063,0.281-0.049,0.425c0.058-0.104,0.1-0.22,0.182-0.31c0.142,0.143-0.009,0.284-0.069,0.423
	c0.313,0.57-0.046,0.013-0.181,0.166c-0.164,0.405-0.272-0.638-0.527-0.028c-0.219,0.332,0.229,0.293,0.307,0.518
	c-0.154,0.109-0.469,0.057-0.566-0.1c0.089-0.231,0.003-0.452-0.185-0.627c-0.117,0.137,0.054,0.243,0.128,0.349
	c-0.117-0.039-0.237-0.118-0.361-0.06C13.545,12.637,13.69,12.179,13.293,12.105"/>
<path d="M0.882,19.156c0.128-0.134,0.245-0.025,0.332,0.09C1.099,19.243,0.984,19.211,0.882,19.156"/>
<path d="M25.509,5.731c0.017-0.098,0.011-0.227,0.125-0.268C26.005,5.475,25.706,5.996,25.509,5.731"/>
<path d="M23.637,6.661c0.234-0.068,0.03,0.197,0.201,0.271c-0.029,0.291-0.014,0.485,0.25,0.666c-0.186,0.01-0.28,0.117-0.175,0.29
	c0.172,0.038,0.323-0.067,0.446-0.172c0.04,0.286-0.549,0.141-0.179,0.476c0.074,0.231,0.282,0.102,0.32-0.079
	c0.431,0.246-0.466,0.252-0.172,0.448c0.208,0.188-0.368,0.023-0.262,0.245c-0.233,0.169-0.438-0.14-0.683-0.096
	c-0.063-0.354,0.401-0.459,0.642-0.291c0.118-0.105-0.058-0.69-0.24-0.312C23.553,7.69,23.643,7.151,23.637,6.661"/>
<path d="M22.35,7.457c0.201-0.021,0.025,0.361,0.237,0.454c-0.17,0.137-0.573-0.102-0.246-0.211
	C22.096,7.746,22.28,7.566,22.35,7.457"/>
<path d="M20.109,9.35c0.062-0.115,0.151-0.218,0.185-0.347c0.143,0.138,0.567,0.008,0.525,0.285
	c-0.24-0.097-0.283,0.243-0.334,0.386C20.196,9.749,20.333,9.247,20.109,9.35"/>
<path d="M2.868,19.534c0.175-0.22,0.206,0.131,0.293,0.278c0.176,0.086,0.324-0.215,0.49-0.183c0.048,0.253-0.314,0.53-0.011,0.718
	c-0.067,0.021-0.134,0.039-0.202,0.054c-0.227-0.107,0.049-0.61-0.288-0.444c-0.184,0.066-0.058,0.224,0.026,0.315
	c-0.014,0.134-0.049,0.265-0.079,0.396c-0.043-0.164-0.391-0.447-0.497-0.18c-0.056,0.167-0.234-0.214-0.09-0.234
	C2.86,20.162,2.782,19.792,2.868,19.534"/>
<path d="M12.775,14.164c0.209-0.046,0.495,0.277,0.733,0.224c0.321-0.066-0.13-0.736,0.267-0.485
	c0.055,0.245,0.509,0.238,0.45,0.491c-0.166,0.062-0.347,0.112-0.517,0.036c0.055,0.089,0.123,0.168,0.195,0.243
	c-0.141,0.076-0.227-0.064-0.29-0.168c-0.106,0.061-0.305,0.312-0.365,0.096C13.236,14.335,12.664,14.448,12.775,14.164"/>
<path d="M1.436,20.683c0.243-0.006,0.126,0.263-0.003,0.386C1.401,20.942,1.387,20.808,1.436,20.683"/>
<path d="M0.662,21.345c0.167-0.004,0.297,0.181,0.437-0.011c0.131,0.116,0.295,0.522,0.245,0.124
	c0.27-0.188,0.031,0.246,0.173,0.445c0.063-0.304,0.288-0.407,0.544-0.221c0.124-0.295,0.132,0.07,0.301,0.135
	c-0.125,0.227,0.095,0.421,0.229,0.587c0.209-0.018-0.073-0.149-0.032-0.25c0.052-0.128,0.053-0.349,0.232-0.353
	c-0.183,0.151,0.095,0.523,0.105,0.172c0.159,0.124,0.178,0.324,0.177,0.511c-0.158,0.01-0.131-0.302-0.28-0.094
	c-0.094,0.162-0.281,1.067,0.116,0.696c0.31-0.083,0.373,0.568,0.583,0.188c-0.068-0.249-0.385-0.724,0.046-0.854
	c0.015,0.159-0.086,0.299-0.09,0.454c0.121,0.094,0.51,0.227,0.262,0.383c-0.145,0.222,0.186,0.149,0.281,0.274
	c0.04,0.253,0.352,0.424,0.292,0.693c-0.083,0.316,0.27,0.534,0.269,0.852c-0.077-0.063-0.177-0.065-0.181,0.052
	c0.049,0.21-0.136,0.364-0.191,0.555c0.297,0.099,0.39,0.429,0.161,0.649c0.186,0.053,0.063,0.373,0.281,0.338
	c0.333-0.323,0.15,0.408,0.424,0.448c0.316,0.029,0.12,0.57,0.439,0.566c0.304-0.185-0.006,0.169,0.153,0.296
	c0.189-0.225,0.402,0.141,0.505,0.268c-0.243,0.147-0.424,0.247-0.56-0.001c-0.161,0.156-0.339,0.228-0.548,0.116
	c-0.072,0.09-0.104,0.355-0.196,0.137c-0.07-0.46-0.572-0.316-0.818-0.588c-0.182,0.254-0.13,0.582-0.163,0.877
	c-0.114,0.25-0.322-0.241-0.325,0.063c-0.064-0.214-0.344-0.172-0.436-0.007c-0.046-0.041-0.092-0.082-0.138-0.123
	C2.91,28.644,2.81,28.49,2.76,28.413c-0.126-0.153-0.272-0.286-0.414-0.423c-0.012-0.102-0.055-0.238-0.183-0.228
	c-0.089-0.164-0.166-0.334-0.298-0.467c-0.033-0.061-0.064-0.122-0.096-0.182C1.69,26.95,1.615,26.79,1.534,26.629
	c-0.031-0.136-0.058-0.269-0.093-0.402c0.237,0.119,0.12-0.123,0.083-0.262c0.269-0.01,0.507,0.258,0.796,0.156
	c-0.208-0.18-0.434-0.761,0.02-0.694c-0.021-0.236-0.499-0.407,0.016-0.525c0.319,0.058,0.086,0.417,0.024,0.596
	c0.157,0.047,0.336,0.129,0.496,0.053c-0.076-0.076-0.162-0.14-0.242-0.212c0.121-0.084,0.24-0.142,0.098-0.288
	c-0.331,0.114,0.023-0.189,0.181-0.242c0.214,0.072,0.179-0.289,0.121-0.412C2.921,24.461,2.813,24.535,2.7,24.6
	c-0.202-0.254-0.47,0.202-0.683,0.265c-0.104-0.175-0.117-0.423-0.313-0.523c-0.245-0.087-0.054-0.619-0.419-0.519
	c-0.257-0.138-0.402-0.457-0.576-0.693c0.52,0.374-0.262-0.658,0.219-0.446c0.151,0.06-0.006,0.347,0.265,0.126
	c-0.011,0.269,0.067,0.632,0.364,0.704c0.213-0.023-0.056-0.366,0.118-0.446c0.303,0.128,0.116,0.625,0.501,0.528
	c0.298-0.006,0.019-0.241-0.152-0.213c-0.136-0.285,0.228-0.517,0.189-0.804c-0.104,0.06-0.45,0.255-0.368,0.02
	c0.074-0.174-0.322-0.098-0.229-0.224c0.283-0.305-0.372,0.159-0.474,0.164c-0.296,0.094-0.341-0.345-0.424-0.538
	c-0.108-0.071-0.236-0.17-0.167-0.315c0.113,0.097,0.227,0.291,0.334,0.08c-0.073,0.322,0.352,0.095,0.211-0.105
	c-0.072,0.033-0.142,0.068-0.211,0.105C0.855,21.604,0.76,21.47,0.662,21.345 M2.804,23.715c0.101,0.189-0.151,0.715,0.177,0.387
	c0.131,0.175,0.038-0.21,0.217-0.075c0.026,0.234,0.281,0.141,0.44,0.14c0.059-0.088,0.093-0.333-0.091-0.26
	C3.437,23.657,3.068,23.505,2.804,23.715 M3.727,25.141c-0.004,0.115,0.146,0.31-0.054,0.303c0.096,0.15,0.275,0.008,0.387-0.052
	C3.952,25.315,3.867,25.023,3.727,25.141 M4.687,27.602c0.133,0.027,0.305-0.039,0.424,0.096C5.341,27.374,4.83,27.383,4.687,27.602
	 M5.003,27.775c-0.149,0.246,0.378,0.259,0.189,0.445c0.026,0.276,0.276,0.028,0.368-0.105C5.488,27.869,5.202,27.816,5.003,27.775"
	/>
<path d="M14.647,14.263c-0.039-0.238-0.1-0.684,0.248-0.677c0.372,0.16,0.078,0.562,0.326,0.81c0.158,0.335-0.361-0.283-0.296,0.075
	c-0.212,0.25,0.356,0.299,0.052,0.521c-0.062-0.157-0.134-0.143-0.201-0.001c-0.002,0.227,0.376,0.037,0.281,0.291
	c-0.152,0.034-0.302-0.019-0.439-0.078c-0.103-0.075-0.191-0.166-0.288-0.248c-0.046,0.11-0.071,0.227-0.119,0.337
	c-0.22-0.056-0.249-0.597,0.023-0.406C13.893,14.533,14.766,14.64,14.647,14.263"/>
<path d="M1.346,21.186c0.175,0.032,0.531-0.318,0.466,0.026C1.798,21.486,1.474,21.26,1.346,21.186"/>
<path d="M20.138,11.34c0.103-0.183,0.215,0.004,0.267,0.118c0.175,0.102,0.381,0.041,0.572,0.057
	c0.098,0.207,0.113,0.448,0.262,0.636c0.104,0.244,0.39,0.386,0.382,0.678c0.014,0.273,0.083,0.529,0.343,0.648
	c-0.306,0.531-0.675-0.398-1.05-0.075c0.101,0.172,0.227,0.326,0.337,0.492c-0.242,0.092-0.478-0.242-0.646,0.021
	c-0.081,0.083,0.013,0.223,0.012,0.327c-0.205-0.083-0.327-0.257-0.369-0.47c-0.052,0.147-0.081,0.301-0.102,0.455
	c-0.105-0.021-0.205-0.061-0.306-0.094c-0.366-0.074-0.294-0.8-0.752-0.658c-0.081-0.141-0.352-0.263-0.13-0.445
	c0.036-0.286,0.321-0.038,0.463-0.215c0.316,0.089,0.16,0.53,0.584,0.412c0.167-0.198,0.524-0.433,0.212-0.715
	c-0.031,0.106-0.015,0.238-0.089,0.326c-0.127-0.116-0.194-0.286-0.306-0.413c-0.126,0.131-0.273,0.197-0.435,0.081
	c0.025-0.237,0.176-0.412,0.358-0.556c0.104,0.088,0.201,0.201,0.345,0.219c0.17-0.236,0.442-0.359,0.724-0.378
	C20.703,11.48,20.167,11.696,20.138,11.34"/>
<path d="M22.101,10.215c0.116-0.11,0.204,0.335,0.322,0.411c0.21-0.033,0.277,0.249,0.306,0.411
	c-0.142,0.062-0.229-0.022-0.287-0.146c-0.14,0.229-0.333-0.216-0.088-0.187c0.028-0.563-0.336,0.044-0.39-0.217
	C22.065,10.427,22.101,10.331,22.101,10.215"/>
<path d="M17.582,12.976c0.221-0.175,0.681-0.396,0.863-0.073c0.248-0.322,0.717,0.02,0.942-0.398
	c0.162,0.116,0.309,0.05,0.435-0.081c0.112,0.127,0.179,0.296,0.306,0.413c0.074-0.088,0.058-0.22,0.089-0.326
	c0.312,0.282-0.045,0.517-0.212,0.715c-0.424,0.118-0.268-0.323-0.584-0.413c-0.142,0.178-0.427-0.07-0.463,0.216
	c-0.222,0.183,0.049,0.305,0.13,0.445c0.038,0.077,0.074,0.154,0.11,0.232c-0.277-0.072-0.526-0.356-0.804-0.069
	c-0.216,0.04,0.062,0.394-0.205,0.326c-0.274,0.1-0.244-0.294-0.308-0.466C17.718,13.374,17.51,13.208,17.582,12.976"/>
<path d="M15.487,14.451c0.138,0.023,0.246-0.072,0.395-0.093c0.103,0.265-0.239,0.292-0.312,0.497
	c-0.127-0.235-0.147-0.056-0.033,0.091c-0.166,0.207-0.422-0.145-0.308-0.301C15.323,14.933,15.508,14.614,15.487,14.451"/>
<path d="M2.896,21.974c-0.01,0.351-0.288-0.021-0.105-0.173C2.884,21.793,2.861,21.918,2.896,21.974"/>
<path d="M23.464,10.652c0.15,0.107,0.468,0.123,0.632,0.288c-0.247-0.052-0.285,0.13-0.385,0.293
	c-0.055-0.147-0.063-0.347-0.272-0.276C23.44,10.855,23.444,10.752,23.464,10.652"/>
<path d="M24.131,10.397c0.133-0.192,0.292,0.072,0.123,0.169C24.158,10.729,24.166,10.469,24.131,10.397"/>
<path d="M21.916,11.717c0.136-0.027,0.273-0.058,0.392-0.133c0.136,0.164,0.023,0.356-0.01,0.533
	c-0.164,0.174-0.083,0.478-0.335,0.578C21.807,12.373,22.214,11.973,21.916,11.717"/>
<path d="M21.621,12.83c0.007-0.293-0.279-0.434-0.383-0.679c0.134,0.091,0.299,0.019,0.448,0.021
	c-0.001,0.197-0.004,0.557,0.277,0.522c0.256-0.072,0.614,0.115,0.361,0.377c0.029,0.317,0.537,0.514,0.307,0.891
	c-0.024,0.054-0.037,0.109-0.042,0.168c-0.116,0.044-0.14,0.19-0.005,0.224c0.085,0.281,0.31,0.509,0.321,0.813
	c0.034,0.084,0.103,0.253,0.138,0.337l0.013,0.046c-0.068,0.071-0.124,0.154-0.127,0.254c-0.031,0.008-0.092,0.022-0.122,0.029
	c-0.191,0.019-0.358,0.098-0.479,0.242c-0.06,0.041-0.12,0.084-0.176,0.129c-0.023-0.007-0.068-0.021-0.091-0.028
	c-0.108-0.06-0.209,0.032-0.275,0.109c-0.069-0.002-0.137-0.007-0.205-0.013c0.212-0.325-0.381-0.24-0.552-0.38
	c0.388-0.041-0.078-0.344-0.213-0.469c-0.208,0.231-0.403-0.156-0.65-0.045c0.013,0.175-0.105,0.303-0.217,0.11
	c0.011-0.13,0.03-0.533-0.17-0.337c-0.067,0.178-0.536,0.114-0.298-0.096c-0.137-0.165-0.515-0.216-0.607,0.051
	c-0.063,0.312-0.566-0.047-0.404-0.266c0.184,0.357,0.655-0.104,0.358-0.322c0.324-0.291-0.42-0.317-0.145-0.574
	c0.195-0.158,0.324,0.287,0.524-0.026c-0.166,0.273,0.073,0.409,0.298,0.511c0.111-0.098,0.21-0.211,0.334-0.296
	c0.101,0.034,0.202,0.073,0.306,0.095c0.022-0.155,0.05-0.308,0.102-0.456c0.042,0.213,0.164,0.388,0.369,0.471
	c0.001-0.105-0.092-0.244-0.012-0.327c0.168-0.264,0.404,0.071,0.646-0.021c-0.11-0.167-0.235-0.321-0.337-0.493
	c0.376-0.323,0.745,0.606,1.05,0.075C21.704,13.357,21.634,13.102,21.621,12.83 M21.275,13.938c0.064,0.114,0.33,0.498,0.481,0.303
	c0.098-0.351,0.658-0.084,0.632-0.458c-0.196-0.079-0.239-0.32-0.456-0.127c0.101,0.124,0.019,0.154-0.105,0.173
	c-0.04,0.117-0.147,0.265-0.219,0.08c0.13-0.114-0.005-0.238-0.103-0.088C21.578,13.983,21.366,13.912,21.275,13.938 M21.652,14.604
	c-0.006,0.214,0.457,0.072,0.229,0.282c0.207-0.062,0.504,0.43,0.406,0.019C22.064,14.767,21.931,14.371,21.652,14.604"/>
<path d="M18.087,14.071l0.013-0.042c0.072,0.513,0.214,0.109,0.388,0.065c0.125,0.142-0.014,0.353-0.155,0.42
	C18.158,14.453,18.024,14.255,18.087,14.071"/>
<path d="M37.114,3.75c-0.006-0.119-0.047-0.231-0.069-0.347c0.081,0.07,0.187,0.095,0.292,0.107
	c0.156,0.083,0.294,0.196,0.448,0.283c0.051,0.199-0.273,0.266-0.205,0.469c-0.012,0.177,0.166,0.002,0.253-0.006
	c-0.007,0.166-0.153,0.358-0.02,0.505c0.17,0.092,0.272,0.256,0.393,0.4c0.374-0.138,0.011-0.707-0.198-0.857
	c-0.157-0.036-0.149-0.269,0.023-0.251l0.024,0.048c-0.019,0.172,0.037,0.281,0.169,0.327c0.115,0.134,0.241,0.26,0.376,0.374
	c0.17,0.338,0.403,0.644,0.695,0.885c0.155,0.252,0.254,0.55,0.474,0.758c0.035,0.16,0.12,0.267,0.255,0.321
	c0.023,0.033,0.07,0.102,0.093,0.135c0.016,0.186,0.097,0.3,0.245,0.341c0.011,0.022,0.033,0.065,0.043,0.088
	c0.066,0.17,0.141,0.34,0.229,0.501c0.034,0.082,0.1,0.245,0.133,0.328c0.009,0.105,0.018,0.213,0.03,0.319
	c-0.286,0.188-0.208-0.294-0.234-0.444c-0.171-0.021-0.044-0.312-0.202-0.214c0.043-0.173-0.351-0.353-0.097-0.419
	c-0.134-0.164-0.267-0.35-0.489-0.383c0.065,0.138,0.189,0.258,0.266,0.393c-0.25,0.146-0.215,0.602-0.592,0.353
	c-0.313-0.279-0.254,0.146-0.196,0.354c-0.339-0.076-0.143,0.361-0.1,0.543c0.115-0.131,0.27-0.621,0.334-0.071
	c-0.018,0.202,0.302,0.11,0.213,0.291c-0.001,0.219,0.163,0.395,0.307,0.544c0.201,0.123,0.028-0.172,0.027-0.275
	c0.156,0.075,0.09,0.362,0.304,0.333c0.205-0.017,0.284,0.141,0.282,0.323c0.002,0.028,0.006,0.083,0.007,0.11
	c-0.021,0.099-0.035,0.204,0.015,0.298c0.107-0.041,0.233-0.124,0.281,0.031c-0.211,0.027-0.118,0.21-0.097,0.354
	c-0.384-0.025-0.625-0.403-0.734-0.737c-0.31,0.159,0.256,0.357,0.007,0.516c-0.101,0.164-0.167-0.13-0.243-0.193
	c-0.094-0.274-0.213-0.556-0.445-0.741c-0.325-0.243-0.489-0.631-0.527-1.028c-0.039-0.327-0.084-0.643-0.231-0.943
	c-0.075-0.194-0.155-0.385-0.305-0.531c-0.107-0.129-0.21-0.261-0.32-0.388c-0.143-0.283-0.33-0.54-0.521-0.792
	C37.342,5.5,37.399,5.45,37.658,5.593c0.369-0.129-0.075-0.336-0.001-0.566c-0.191,0.213-0.105-0.176-0.229-0.257
	c-0.185-0.132-0.185-0.371-0.212-0.577c-0.192,0.07-0.416,0.075-0.418-0.185C36.657,3.737,37.157,4.004,37.114,3.75"/>
<path d="M23.74,11.292c0.212-0.086,0.162,0.337-0.01,0.345C23.506,11.762,23.684,11.372,23.74,11.292"/>
<path d="M0.748,24.601c-0.069-0.051-0.138-0.143-0.077-0.227C0.732,24.432,0.775,24.515,0.748,24.601"/>
<path d="M36.121,4.454c0.085-0.068,0.178,0.005,0.194,0.099C36.236,4.558,36.167,4.514,36.121,4.454"/>
<path d="M4.199,23.344c-0.141-0.223-0.269-0.456-0.365-0.702c0.05,0.068,0.1,0.136,0.151,0.203l0.025,0.036
	C4.076,23.032,4.155,23.183,4.199,23.344"/>
<path d="M37.785,3.793c0.111,0.056,0.207,0.138,0.246,0.26c-0.172-0.018-0.18,0.215-0.023,0.251c0.209,0.15,0.572,0.719,0.198,0.857
	c-0.121-0.145-0.223-0.309-0.393-0.4c-0.133-0.147,0.013-0.339,0.02-0.505c-0.087,0.008-0.266,0.183-0.253,0.006
	C37.512,4.059,37.836,3.992,37.785,3.793"/>
<path d="M23.148,12.45c-0.044-0.185,0.188-0.349,0.356-0.368c0.159,0.099,0.334,0.126,0.512,0.05
	c-0.075,0.272-0.178,0.539-0.517,0.578C23.58,12.47,23.31,12.474,23.148,12.45"/>
<path d="M2.804,23.715c0.264-0.21,0.633-0.058,0.744,0.192c0.183-0.074,0.149,0.172,0.091,0.26c-0.159,0.001-0.415,0.094-0.441-0.14
	c-0.179-0.135-0.086,0.25-0.216,0.075C2.653,24.43,2.904,23.903,2.804,23.715"/>
<path d="M38.224,4.428c-0.131-0.046-0.187-0.155-0.169-0.327C38.15,4.184,38.223,4.298,38.224,4.428"/>
<path d="M21.275,13.939c0.091-0.028,0.303,0.045,0.229-0.118c0.099-0.15,0.233-0.025,0.104,0.089
	c0.072,0.185,0.179,0.037,0.218-0.08c0.124-0.019,0.207-0.05,0.106-0.173c0.217-0.194,0.259,0.048,0.456,0.126
	c0.026,0.374-0.534,0.107-0.632,0.458C21.605,14.437,21.339,14.052,21.275,13.939"/>
<path d="M1.351,26.084c-0.037-0.067-0.11-0.199-0.146-0.266C1.333,25.862,1.47,25.938,1.351,26.084"/>
<path d="M38.6,4.802c0.243,0.281,0.592,0.514,0.695,0.885C39.004,5.445,38.77,5.14,38.6,4.802"/>
<path d="M21.652,14.604c0.279-0.233,0.412,0.163,0.635,0.301c0.098,0.411-0.199-0.081-0.406-0.019
	C22.109,14.676,21.646,14.817,21.652,14.604"/>
<path d="M1.534,26.629c-0.053-0.157-0.225-0.306-0.204-0.473c0.028,0.018,0.083,0.053,0.111,0.07
	C1.476,26.36,1.502,26.493,1.534,26.629"/>
<path d="M3.727,25.14c0.141-0.117,0.226,0.175,0.334,0.252c-0.113,0.06-0.292,0.201-0.387,0.051
	C3.874,25.451,3.723,25.256,3.727,25.14"/>
<path d="M1.769,27.113c-0.118-0.139-0.19-0.308-0.235-0.484C1.614,26.79,1.69,26.95,1.769,27.113"/>
<path d="M4.371,25.127c0.004-0.116,0.104-0.114,0.181-0.051c0.03,0.107-0.033,0.209-0.049,0.312
	c0.217,0.167,0.102,0.458,0.157,0.688c0.107,0.059,0.195,0.128,0.153,0.262c0.583,0.536,1.233,0.914,1.795,1.472
	c0.08,0.033,0.095-0.003,0.046-0.108c0.379,0.042,0.557,0.538,0.883,0.716c0.384,0.269,0.731,0.59,0.992,0.984
	c0.24,0.302,0.627,0.421,0.906,0.671c-0.119,0.211,0.146,0.251,0.248,0.386c0.086,0.238,0.283,0.246,0.458,0.158
	c0.157,0.206-0.153,0.424-0.075,0.654c0.115,0.22-0.322,0.116-0.221,0.35c0.043,0.22-0.095,0.447-0.337,0.431
	c-0.315,0.146-0.311-0.329-0.496-0.489c0.037-0.149,0.221-0.626,0.344-0.348c0.08-0.202,0.164-0.225,0.263-0.007
	c0.266-0.194-0.173-0.298-0.32-0.369c-0.153,0.089-0.436-0.108-0.471,0.114c-0.037,0.211-0.35-0.108-0.411,0.094
	c-0.21,0.378,0.289,0.844-0.183,1.075c0.2,0.187,0.593,0.129,0.626,0.461c0.169-0.091,0.042-0.302,0.13-0.437
	c0.158-0.014,0.323,0.084,0.292,0.263c-0.048,0.245,0.235,0.279,0.394,0.367c-0.087,0.251-0.065,0.516-0.051,0.777
	c-0.517-0.175-1.001-0.424-1.483-0.655c-0.303,0.008-0.531-0.136-0.667-0.395c-0.498-0.043-0.904-0.272-1.24-0.63
	c-0.207-0.329-0.574-0.507-0.81-0.813c-0.337-0.339-0.751-0.59-1.092-0.927c-0.325-0.31-0.591-0.687-0.99-0.909
	c-0.147-0.077-0.201-0.233-0.246-0.38c0.092-0.165,0.372-0.208,0.436,0.006c0.003-0.302,0.211,0.189,0.325-0.061
	c0.033-0.295-0.019-0.623,0.163-0.877c0.246,0.271,0.748,0.128,0.818,0.588c0.092,0.217,0.124-0.048,0.196-0.137
	c0.209,0.111,0.387,0.04,0.548-0.117c0.136,0.248,0.317,0.149,0.56,0.001c-0.103-0.126-0.316-0.493-0.505-0.267
	c-0.159-0.127,0.151-0.481-0.153-0.296c-0.319,0.004-0.123-0.537-0.439-0.567c-0.274-0.039-0.091-0.77-0.424-0.447
	c-0.218,0.035-0.095-0.285-0.28-0.338c0.228-0.221,0.135-0.551-0.162-0.651C4.235,25.491,4.42,25.339,4.371,25.127 M4.735,28.684
	c0.051,0.15-0.209,0.081-0.125,0.226c-0.099,0.194,0.26,0.319,0.105,0.497c-0.111-0.055-0.443-0.368-0.369-0.06
	c0.076,0.278-0.179-0.017-0.317,0.019C3.698,28.935,4,29.755,4.276,29.72c0.162,0.029,0.124-0.208,0.275-0.229
	c0.123,0.168,0.109,0.384,0.139,0.581c0.168-0.031,0.595,0.038,0.235-0.3c0.165-0.238,0.157-0.484-0.103-0.684
	C4.905,28.993,4.804,28.516,4.735,28.684 M7.332,29.972c-0.069,0.143-0.121,0.305,0.011,0.434
	C7.617,30.401,7.433,29.821,7.332,29.972"/>
<path d="M39.295,5.687c0.258,0.17,0.307,0.515,0.474,0.757C39.549,6.237,39.449,5.939,39.295,5.687"/>
<path d="M1.865,27.295c0.132,0.133,0.209,0.303,0.298,0.467C2.005,27.652,1.946,27.46,1.865,27.295"/>
<path d="M39.769,6.444c0.154,0.001,0.239,0.109,0.255,0.321C39.889,6.712,39.804,6.605,39.769,6.444"/>
<path d="M2.163,27.762c0.128-0.01,0.171,0.126,0.183,0.229C2.252,27.945,2.2,27.854,2.163,27.762"/>
<path d="M39.774,7.018C39.997,7.05,40.13,7.237,40.264,7.4c-0.254,0.066,0.14,0.246,0.097,0.42c0.024,0.267-0.158,0.526-0.035,0.779
	l-0.031,0.025c-0.118,0.073-0.156,0.213-0.211,0.332c0.265,0.173,0.837,0.473,0.536,0.849c0.002-0.183-0.077-0.34-0.282-0.324
	c-0.214,0.03-0.148-0.257-0.303-0.332C39.923,9.058,39.88,8.827,39.7,8.88c0.089-0.181-0.23-0.09-0.212-0.291
	c-0.065-0.55-0.22-0.06-0.335,0.07c-0.043-0.181-0.239-0.618,0.101-0.542c-0.059-0.208-0.117-0.633,0.195-0.354
	c0.378,0.249,0.343-0.207,0.593-0.353C39.963,7.276,39.839,7.155,39.774,7.018"/>
<path d="M40.117,6.9c0.142,0.044,0.224,0.159,0.244,0.342C40.213,7.2,40.132,7.087,40.117,6.9"/>
<path d="M2.76,28.413c0.05,0.077,0.15,0.231,0.199,0.308C2.91,28.644,2.81,28.49,2.76,28.413"/>
<path d="M40.634,7.831C40.546,7.67,40.47,7.5,40.405,7.33C40.506,7.485,40.571,7.656,40.634,7.831"/>
<path d="M4.687,27.601c0.144-0.218,0.654-0.227,0.424,0.097C4.993,27.562,4.82,27.63,4.687,27.601"/>
<path d="M40.326,8.599c-0.123-0.253,0.059-0.512,0.035-0.778c0.158-0.098,0.031,0.192,0.202,0.214
	c0.026,0.15-0.052,0.633,0.234,0.444l0.023,0.048c-0.205,0.099-0.447,0.216-0.144,0.194c-0.421,0.023-0.076,0.624,0.197,0.545
	c0.118-0.048,0.185,0.239,0.05,0.241c-0.202,0.044-0.081,0.354-0.296,0.409c-0.002-0.027-0.005-0.082-0.007-0.11
	c0.301-0.376-0.272-0.676-0.536-0.849c0.055-0.119,0.093-0.259,0.211-0.332C40.114,8.895,40.525,8.821,40.326,8.599"/>
<path d="M5.003,27.775c0.199,0.041,0.485,0.094,0.557,0.34c-0.092,0.133-0.342,0.381-0.368,0.105
	C5.381,28.034,4.854,28.021,5.003,27.775"/>
<path d="M4.735,28.684c0.069-0.168,0.17,0.309,0.087,0.404c0.26,0.2,0.268,0.446,0.103,0.684c0.36,0.338-0.067,0.269-0.235,0.3
	c-0.03-0.197-0.016-0.413-0.14-0.581c-0.15,0.021-0.112,0.258-0.274,0.229C4,29.754,3.698,28.935,4.029,29.365
	c0.138-0.036,0.393,0.259,0.317-0.019c-0.074-0.308,0.258,0.005,0.369,0.06c0.155-0.178-0.204-0.303-0.105-0.496
	C4.526,28.765,4.786,28.833,4.735,28.684"/>
<path d="M40.873,9.265c-0.274,0.079-0.618-0.521-0.197-0.544c0.094-0.017,0.186,0.006,0.254,0.077l0.015,0.049
	c0.039,0.201,0.133,0.383,0.239,0.555c0.182,1.029,0.489,2.045,0.713,3.072c0.225,0.358,0.188,0.786,0.26,1.185
	c0.008,0.188,0.046,0.37,0.098,0.549c-0.025,0.109-0.029,0.222-0.018,0.333c-0.072,0.445,0.078,0.894-0.025,1.328
	c-0.028,0.164-0.035,0.332-0.083,0.492c-0.241,0.024-0.286,0.167-0.196,0.375c-0.044,0.26-0.034,0.538-0.218,0.753
	c-0.255,0.733-0.386,1.504-0.625,2.238c-0.195,0.014-0.25-0.168-0.161-0.313c-0.064-0.101-0.114-0.384-0.255-0.217
	c0.19,0.207-0.003,0.27-0.21,0.205c0.089-0.41,0.295-0.79,0.316-1.216c0.189-0.571,0.347-1.155,0.367-1.76
	c0.06-1.17,0.109-2.375-0.311-3.493c0.01-0.167-0.049-0.287-0.176-0.357l0.006-0.043l0.016-0.05
	c0.083-0.164-0.107-0.331-0.105-0.482c0.175,0.032,0.315,0.242,0.486,0.199c0.048-0.36-0.315-0.328-0.554-0.397
	c0.304-0.16-0.186-0.337-0.324-0.471c-0.117-0.379-0.238-0.759-0.329-1.146c0.076,0.063,0.142,0.357,0.243,0.193
	c0.248-0.159-0.318-0.357-0.007-0.516c0.109,0.334,0.35,0.711,0.734,0.737c-0.022-0.145-0.114-0.328,0.097-0.354
	c-0.049-0.156-0.174-0.072-0.281-0.032c-0.05-0.095-0.036-0.198-0.015-0.298c0.214-0.055,0.094-0.364,0.296-0.409
	C41.058,9.505,40.991,9.218,40.873,9.265"/>
<path d="M41.184,9.402c-0.106-0.173-0.2-0.354-0.24-0.555C41.03,9.029,41.129,9.207,41.184,9.402"/>
<path d="M40.186,11.331c0.138,0.134,0.628,0.311,0.324,0.471c0.238,0.07,0.602,0.037,0.554,0.398
	c-0.172,0.043-0.312-0.167-0.487-0.2c-0.002,0.151,0.189,0.318,0.105,0.481c-0.115-0.336-0.205-0.69-0.464-0.952
	C40.204,11.464,40.193,11.397,40.186,11.331"/>
<path d="M7.332,29.972c0.101-0.15,0.285,0.43,0.011,0.434C7.211,30.276,7.263,30.114,7.332,29.972"/>
<path d="M40.666,12.533c-0.29-0.239-0.314-0.672-0.449-1.003c0.259,0.261,0.349,0.616,0.465,0.952L40.666,12.533z"/>
<path d="M9.683,30.459c-0.101-0.135-0.367-0.175-0.248-0.386c0.021,0.014,0.063,0.039,0.085,0.052
	c0.132,0.083,0.269,0.159,0.403,0.24c0.29,0.284,0.646,0.489,0.957,0.747c0.052,0.049,0.103,0.1,0.154,0.149
	c0,0.038-0.001,0.113-0.002,0.151c0.026,0.11-0.089,0.305,0.046,0.35c0.225,0.03,0.016,0.235,0.002,0.375
	c-0.068-0.571-0.338,0.083-0.528-0.181c-0.221-0.086-0.199,0.456,0.013,0.217c0.01,0.398-0.175,0.766-0.254,1.148
	c-0.315,0.104,0.046,0.478,0.171,0.632c-0.289-0.128-0.565-0.281-0.857-0.401c-0.014-0.261-0.036-0.526,0.051-0.777
	c-0.159-0.088-0.442-0.122-0.394-0.367c0.032-0.179-0.133-0.277-0.292-0.263c-0.087,0.135,0.04,0.345-0.13,0.437
	c-0.032-0.332-0.426-0.274-0.625-0.461c0.472-0.231-0.028-0.697,0.183-1.075c0.06-0.202,0.373,0.117,0.41-0.094
	c0.036-0.222,0.319-0.025,0.471-0.114c0.147,0.071,0.586,0.175,0.32,0.369c-0.098-0.217-0.183-0.195-0.262,0.007
	c-0.124-0.278-0.308,0.199-0.345,0.348c0.185,0.16,0.182,0.635,0.496,0.489c0.242,0.016,0.381-0.211,0.338-0.431
	c-0.101-0.234,0.336-0.13,0.221-0.35c-0.079-0.23,0.231-0.448,0.075-0.654C9.966,30.706,9.769,30.697,9.683,30.459"/>
<path d="M40.836,12.933c-0.132-0.075-0.19-0.193-0.176-0.356C40.787,12.646,40.846,12.765,40.836,12.933"/>
<path d="M11.032,31.412c0-0.037,0.002-0.113,0.002-0.151c0.18,0.042,0.367,0.058,0.54,0.13c0.457,0.079,0.834,0.333,1.27,0.49
	c0.021,0.25,0.26,0.233,0.452,0.252c0.14,0.117,0.173,0.237-0.02,0.311c0.364,0.297-0.184,0.407-0.36,0.604
	c0.031,0.19,0.438,0.106,0.318,0.334c-0.145,0.248-0.342-0.128-0.432-0.256c-0.387,0.02-0.75-0.424-0.565-0.785
	c0.347,0.043,0.086-0.33-0.066-0.419c0.077-0.278-0.341-0.286-0.531-0.315C11.431,31.564,11.227,31.497,11.032,31.412"/>
<path d="M11.078,31.763c-0.135-0.045-0.02-0.24-0.046-0.35c0.195,0.085,0.399,0.152,0.608,0.194c0.101,0.325,0.35,0.55,0.597,0.735
	c-0.185,0.36,0.178,0.804,0.565,0.785c0.09,0.127,0.287,0.503,0.432,0.256c0.12-0.229-0.287-0.145-0.318-0.334
	c0.176-0.197,0.724-0.308,0.36-0.604c0.193-0.074,0.16-0.194,0.02-0.312c0.164,0.028,0.253,0.257,0.441,0.117
	c0.022,0.014,0.066,0.043,0.087,0.057c-0.068,0.281-0.053,0.657-0.331,0.834c0.248,0.064,0.488-0.068,0.714,0.098
	c-0.083,0.089-0.073,0.489,0.078,0.363c0.076,0.21,0.003,0.367-0.212,0.433c-0.06-0.323-0.411-0.523-0.547-0.129
	c-0.14-0.213,0.171-0.422-0.035-0.661c-0.33,0.206-0.271,0.77,0.181,0.761c-0.504-0.036-0.144,0.564-0.427,0.802
	c-0.215-0.089-0.173,0.146-0.383,0.071c-0.435-0.228-0.925-0.311-1.372-0.507c-0.007-0.242,0.234-0.401,0.462-0.352
	c0.074-0.036,0.273,0.444,0.312,0.185c-0.118-0.096-0.221-0.213-0.267-0.364c-0.259,0.029-0.508-0.034-0.647-0.287
	c-0.263,0.214-0.839-0.048-0.869,0.401c-0.124-0.155-0.485-0.528-0.17-0.632c0.079-0.383,0.264-0.75,0.254-1.148
	c-0.212,0.239-0.234-0.303-0.013-0.217c0.189,0.264,0.46-0.39,0.528,0.181C11.093,31.998,11.303,31.792,11.078,31.763"/>
<path d="M11.64,31.606c0.189,0.03,0.608,0.037,0.531,0.315c0.152,0.09,0.412,0.463,0.066,0.42
	C11.99,32.156,11.74,31.933,11.64,31.606"/>
<path d="M10.481,33.954c0.029-0.449,0.606-0.187,0.868-0.401c0.139,0.254,0.389,0.317,0.648,0.288
	c0.045,0.15,0.149,0.268,0.266,0.364c-0.038,0.258-0.237-0.222-0.311-0.186c-0.229-0.048-0.469,0.11-0.462,0.352
	c-0.172-0.075-0.346-0.145-0.515-0.224c-0.087-0.126-0.2-0.233-0.359-0.15C10.57,33.984,10.525,33.97,10.481,33.954"/>
<path d="M13.493,33.141c0.277-0.177,0.263-0.552,0.331-0.834c0.177,0.108,0.243,0.359,0.476,0.368
	c0.018,0.004,0.055,0.013,0.073,0.018c0.269,0.05,0.534,0.081,0.746,0.272c0.476,0.076,0.921,0.282,1.382,0.427
	c0.207,0.067,0.352,0.353,0.588,0.213c0.105,0.04,0.208,0.086,0.311,0.134c0.017,0.119,0.1,0.236,0.235,0.2l0.031,0.035
	c0.307,0.401-0.419,0.482-0.604,0.189c-0.088-0.409-0.306-0.159-0.198-0.001c-0.156,0.09-0.25-0.294-0.413-0.089
	c-0.012,0.239,0.213,0.298,0.376,0.403c0.042,0.229,0.115,0.493,0.401,0.326c0.225,0.268,0.54,0.402,0.85,0.547
	c-0.208,0.184,0.025,0.474-0.184,0.609c-0.09-0.005-0.179-0.009-0.268-0.014c-0.087-0.036-0.187-0.031-0.262,0.03
	c-0.11-0.004-0.221-0.01-0.331-0.018c-0.154-0.088-0.331-0.083-0.486-0.001c-0.227-0.046-0.44-0.146-0.674-0.153
	c-0.174-0.053-0.35-0.194-0.536-0.112c-0.355-0.052-0.682-0.214-1.035-0.275c-0.002-0.101-0.107-0.18-0.189-0.097
	c-0.05-0.014-0.101-0.029-0.15-0.045c-0.101-0.185-0.304-0.312-0.486-0.145c-0.047-0.11-0.173-0.148-0.278-0.095
	c0-0.078,0.019-0.151,0.046-0.225c0.282-0.237-0.077-0.838,0.427-0.802c-0.453,0.009-0.512-0.556-0.181-0.762
	c0.206,0.24-0.106,0.448,0.034,0.661c0.137-0.394,0.487-0.194,0.548,0.129c0.214-0.065,0.288-0.223,0.212-0.433
	c0.039-0.073,0.076-0.15,0.14-0.206c0.215,0.248,0.761,0.61,0.352,0.899c0.139,0.141,0.385,0.476,0.075,0.203
	c0.012,0.174-0.047,0.338-0.101,0.5c0.072,0.004,0.174-0.078,0.226-0.005c0.12,0.425,0.323,0.08,0.436-0.062
	c0.079,0.099,0.341,0.228,0.36,0.03c0.03-0.331-0.515-0.96-0.669-0.399c-0.013-0.2-0.188-0.481,0.074-0.564
	c0.412,0.556,0.045-0.208,0.222-0.428c-0.161-0.091-0.335-0.166-0.454-0.313c-0.21,0.219-0.499,0.053-0.739-0.019
	C13.98,33.072,13.741,33.205,13.493,33.141"/>
<path d="M14.285,33.602c-0.152,0.125-0.162-0.273-0.078-0.363c0.24,0.071,0.529,0.236,0.739,0.019
	c0.119,0.147,0.293,0.221,0.454,0.313c-0.177,0.22,0.191,0.984-0.222,0.428c-0.262,0.083-0.087,0.364-0.074,0.563
	c0.154-0.561,0.699,0.068,0.669,0.399c-0.019,0.198-0.28,0.069-0.36-0.029c-0.113,0.143-0.316,0.487-0.436,0.062
	c-0.052-0.073-0.154,0.009-0.226,0.006c0.054-0.163,0.113-0.327,0.101-0.5c0.31,0.272,0.065-0.062-0.075-0.203
	c0.409-0.289-0.137-0.651-0.352-0.899C14.361,33.452,14.324,33.529,14.285,33.602"/>
<path d="M40.674,19.196c0.142-0.167,0.191,0.116,0.255,0.217c-0.089,0.146-0.034,0.327,0.161,0.313
	c-0.188,0.33-0.128,0.725-0.214,1.082c-0.154,0.313-0.181,0.669-0.234,1.01c-0.368,0.648-0.396,1.474-0.796,2.141
	c-0.444,0.755-0.769,1.569-1.097,2.377c-0.063,0.173-0.126,0.348-0.226,0.502c-0.152,0.055-0.242,0.167-0.242,0.33
	c-0.245,0.595-0.613,1.135-0.888,1.718c-0.057,0.161-0.257,0.174-0.374,0.074c0.829-1.638,1.429-3.379,2.166-5.06
	c0.537-1.171,0.861-2.418,1.111-3.678c0.074-0.271,0.088-0.553,0.169-0.821C40.671,19.465,40.864,19.404,40.674,19.196"/>
<path d="M12.862,34.879c0.209,0.074,0.168-0.161,0.383-0.071c-0.027,0.072-0.046,0.146-0.046,0.224
	C13.078,35.002,12.959,34.958,12.862,34.879"/>
<path d="M16.452,34.072c0.163-0.206,0.257,0.18,0.412,0.089c-0.107-0.158,0.11-0.408,0.199,0.001
	c0.184,0.293,0.91,0.212,0.603-0.189c0.106,0.106,0.208,0.229,0.339,0.309c0.122,0.116,0.286,0.044,0.429,0.027
	c0.227,0.168,0.507,0.217,0.771,0.301c0.81,0.37,1.707,0.279,2.562,0.462c0.06,0.187,0.192,0.408,0.064,0.593
	c-0.145-0.021-0.259-0.211-0.401-0.158c0.05,0.218-0.07,0.488,0.124,0.657c0.169,0.227,0.17-0.239,0.3-0.32
	c0.049,0.188,0.057,0.405,0.272,0.477c-0.113,0.029-0.221-0.021-0.329-0.041c0.048,0.099,0.098,0.196,0.143,0.296
	c-0.3-0.038-0.577-0.163-0.868-0.233c-0.942-0.182-1.899-0.213-2.859-0.331c-0.048-0.094-0.164-0.118-0.244-0.05
	c-0.019-0.001-0.056-0.004-0.074-0.005c0.208-0.135-0.024-0.425,0.184-0.609c-0.31-0.145-0.625-0.279-0.851-0.547
	c-0.285,0.167-0.359-0.097-0.401-0.326C16.664,34.371,16.438,34.312,16.452,34.072"/>
<path d="M15.337,35.689c0.186-0.083,0.362,0.059,0.536,0.112C15.686,35.849,15.506,35.758,15.337,35.689"/>
<path d="M16.547,35.955c0.155-0.083,0.332-0.087,0.486,0.001C16.872,35.976,16.707,35.984,16.547,35.955"/>
<path d="M17.968,35.962c0.081-0.068,0.196-0.044,0.245,0.05C18.126,36.052,18.033,36.029,17.968,35.962"/>
<path d="M21.767,35.072c0.409,0.028,0.782,0.221,1.155,0.371c0.819,0.127,1.521,0.626,2.373,0.558
	c0.902,0.204,1.835,0.256,2.718,0.533c-0.113,0.066-0.221,0.146-0.139,0.285c-0.304,0.086-0.498-0.1-0.731-0.25
	c-0.154,0.176,0.106,0.258,0.216,0.345c0.076,0.296,0.479,0.202,0.495,0.546c0.026-0.111-0.067-0.297,0.076-0.124
	c0.189,0.119-0.006,0.292,0.017,0.455c-0.33-0.078-0.67-0.124-0.988-0.249c-0.465-0.15-0.946-0.226-1.428-0.29
	c-0.126-0.021-0.253-0.038-0.378-0.061c-1.026-0.275-2.069-0.371-3.105-0.521c-0.037-0.032-0.073-0.063-0.109-0.094
	c-0.045-0.1-0.094-0.198-0.142-0.296c0.108,0.019,0.216,0.069,0.329,0.041c-0.215-0.072-0.224-0.29-0.272-0.477
	c-0.131,0.08-0.131,0.546-0.3,0.32c-0.194-0.169-0.074-0.439-0.124-0.658c0.142-0.053,0.256,0.137,0.401,0.158
	C21.958,35.48,21.826,35.259,21.767,35.072"/>
<path d="M36.069,30.717c0.346-0.463,0.461-1.124,0.913-1.48c0.065,0.535-0.339,1.001-0.524,1.479
	c-0.184,0.321-0.288,0.685-0.506,0.987c-0.562,0.759-0.919,1.641-1.432,2.425c-0.077-0.16-0.133-0.342-0.314-0.401
	c0.09-0.149,0.209-0.28,0.286-0.438c0.323-0.496,0.657-0.988,0.968-1.492l0.022-0.041C35.678,31.409,35.896,31.076,36.069,30.717"/>
<path d="M27.359,36.914c-0.11-0.087-0.371-0.168-0.216-0.345c0.232,0.151,0.427,0.336,0.731,0.251
	c-0.083-0.139,0.025-0.219,0.139-0.286c0.273,0.057,0.551,0.086,0.819,0.164c0.388,0.085,0.78-0.065,1.168-0.036
	c0.218,0.127,0.445,0.236,0.676,0.34c0.066,0.255,0.202,0.133,0.338,0.004c0.342,0.128,0.692,0.116,1.05,0.079
	c0.103-0.173,0.179-0.362,0.306-0.521c0.12-0.057,0.197,0.064,0.277,0.132c-0.069,0.118-0.294,0.194-0.135,0.335
	c0.124-0.018,0.236-0.079,0.35-0.129c-0.087,0.379-0.204,0.827-0.637,0.927c-0.236,0.391-0.693,0.117-1.044,0.071
	c-0.254,0.089-0.518,0.132-0.786,0.136c-0.141-0.029-0.283-0.054-0.427-0.054c-0.253-0.073-0.52-0.095-0.782-0.087
	c-0.421,0.089-0.822-0.047-1.239-0.104c-0.023-0.163,0.172-0.337-0.017-0.456c-0.143-0.172-0.05,0.013-0.076,0.124
	C27.838,37.117,27.435,37.21,27.359,36.914"/>
<path d="M33.977,34.063c0.086-0.105,0.16-0.221,0.229-0.338c0.181,0.059,0.237,0.242,0.314,0.402
	c-0.193,0.277-0.409,0.556-0.523,0.875c-0.139-0.189-0.355,0.266-0.491-0.069c0.134-0.287,0.301-0.557,0.447-0.839L33.977,34.063z"
	/>
<path d="M32.37,36.564c0.349-0.566,0.693-1.13,1.136-1.631c0.137,0.334,0.352-0.12,0.491,0.069
	c-0.205,0.729-0.796,1.247-1.135,1.899c-0.114,0.05-0.226,0.111-0.35,0.13c-0.159-0.142,0.066-0.218,0.135-0.335
	C32.566,36.629,32.49,36.509,32.37,36.564"/>
</svg>
