<?xml version="1.0" encoding="utf-8"?>
<!-- Generator: Adobe Illustrator 16.0.0, SVG Export Plug-In . SVG Version: 6.00 Build 0)  -->
<!DOCTYPE svg PUBLIC "-//W3C//DTD SVG 1.1//EN" "http://www.w3.org/Graphics/SVG/1.1/DTD/svg11.dtd">
<svg version="1.1" id="Layer_1" xmlns="http://www.w3.org/2000/svg" xmlns:xlink="http://www.w3.org/1999/xlink" x="0px" y="0px"
	 width="120.794px" height="100.598px" viewBox="0 0 120.794 100.598" style="enable-background:new 0 0 120.794 100.598;"
	 xml:space="preserve">
<style type="text/css">
<![CDATA[
	.st0{fill:#FFFFFF;}
]]>
</style>
<path class="st0" d="M20.161,0.651c1.371,0.036,2.528-1.048,3.908-0.379c-0.376,0.373,0.073,0.681,0.278,0.999
	c-0.161,0.2-0.999,0.318-0.565,0.574c-0.121,0.776-1.064,2.472,0.531,1.736c0.282,1.145,0.643,0.195,0.876-0.412
	c0.183,0.392,0.093,1.173,0.909,0.69c0.564-0.267,0.284-1.419,1.082-1.18c0.574,0.188,0.154-0.979,0.447-1.132
	c0.38,0.024,0.758,0,1.135-0.053c0.247,0.583-0.227,0.91-0.438,1.343c0.291,0.255,0.512,0.671,0.946,0.674
	c-0.58,0.171-0.431,1.07-1.04,1.073c-0.806-0.041-1.007,1.011-1.218,1.634c-0.271-0.521-0.856-0.251-1.296-0.449
	c-0.135,0.868-1.352,0.992-1.049,2.012c-0.702-0.345-0.844-1.328,0.023-1.526c-0.798-0.065-1.376-1.62-1.945-0.565
	c0.183-1.111,0.699-2.326-0.037-3.364c-0.441,0.166-0.422-0.313-0.752-0.409c0.178,0.349,0.061,1.123-0.348,0.531
	C21.387,3.109,21.568,3.75,21.8,4.379c-0.371-0.303-0.766-0.574-1.192-0.79c-0.493,0.188-1.144,1.433-0.487,1.533
	c-0.691,1.321,0.957,0.076,0.623,0.854c-0.455,0.695,0.711,0.625,0.282,1.386c-0.209,0.747-0.769,0.26-0.976-0.203
	c-0.368,0.419-0.345,1.047-0.701,1.484c0.016-0.834,0.425-1.864-0.573-2.26c0.441-1.208-0.87-0.669-0.581-0.091
	c0.733,0.487,0.218,1.427,0.483,2.146c-0.403-0.262-0.996-0.993-1.443-0.448c-0.133,0.357,0.174,0.535,0.437,0.688
	c-0.357,0.402-0.888,0.427-1.349,0.579c0.154,0.678-0.458,1.2,0.135,1.852c-0.243,0.543-1.612,1.74-0.512,1.962
	c-0.609,1.117-1.405,2.433-0.837,3.671c1.966,0.641,0.372-3.899,2.666-2.464c-1.388,0.319-0.52,2.265-1.663,2.947
	c-0.353,0.14-0.593,0.41-0.748,0.749c-0.404,0.315-0.576,0.826-0.86,1.239c-0.231-0.02-0.46-0.043-0.689-0.075
	c-0.478-0.867,0.776-1.048,1.005-1.725c-0.359-0.303-1.129,0.224-1.436-0.222c-0.011-0.476,0.39-1.37-0.333-1.074
	c-0.558,0.508-0.875,1.512-1.847,1.259c-0.377-0.147-0.466,1.017-0.102,0.689c0.619-0.502,1.08,0.657,0.96,1.114
	c0.252-0.278,0.514-0.548,0.731-0.854c-0.078-0.334-0.17-0.891,0.365-0.8c1.045,0.057-0.311,0.901,0.094,1.469
	c-0.043,0.141-0.085,0.281-0.128,0.421c-0.548,0.637-1.267,1.232-1.351,2.128c-0.531,1.086-0.963,2.151-0.611,3.425
	c-0.104,0.726-0.11,1.465-0.071,2.198c-0.548,1.601-0.345,3.242-0.686,4.862c-0.173,0.326-0.29,0.682-0.281,1.055
	c-0.177,0.764-0.311,1.63,0.127,2.339c0.016,0.563-0.486,1.298-0.211,1.778c0.049,0.037,0.146,0.113,0.195,0.148
	c0.156,0.605-0.073,1.416,0.502,1.809c-0.068,0.268-0.122,0.595,0.108,0.804c0.124,0.16,0.251,0.317,0.385,0.472
	c-0.037,0.213-0.079,0.426-0.123,0.639c-0.023,0.32-0.109,0.388-0.258,0.199c-0.603-2.117-1.663-3.918-2.346-6.01
	c0.284-0.27,0.164-0.559-0.016-0.845c0.182-0.634,0.856-1.181,0.556-1.882c0.18-0.229,0.472-0.389,0.544-0.689
	c0.437-0.771-0.125-1.777,0.508-2.431c0.512-0.572-0.011-1.411,0.235-2.079c-0.059-0.433-0.96-0.705-0.308-1.047
	c0.817-0.043,0.052-0.891-0.112-1.285c0.221-0.37,0.656-0.571,0.836-0.979c-1.221-0.27-1.099,1.314-1.274,2.007
	c-1.029,0.64-0.294-1.026-1.159-1.246c-1.468,0.36,0.219-1.583,0.669-1.847c0.642-0.301,0.153,0.419,0.55,0.611
	c0.256-0.453,0.483-0.964,0.264-1.48c-0.008-0.183,0.218-0.456-0.019-0.562c-0.439-0.233-0.742,0.302-1.043,0.539
	c-0.236,0.191,0.27,0.894-0.262,0.651c-0.098-0.583-0.367-1.354,0.244-1.733c-0.323-0.387,0.157-1.285-0.546-0.737
	c-0.369-0.8-1.054-0.858-1.621-0.207c-0.071-0.674,1.1-1.402,0.189-1.314c-0.422,1.032-0.266-0.173-0.426-0.632
	c-0.601,0.275-0.664-0.352-1.075-0.571c0.066,0.438,0.117,0.89-0.03,1.318c-0.545,0.368-0.557-0.261-0.699-0.646
	c-0.366,0.26-0.19,0.673-0.025,0.992c-0.06,0.581-0.552,1.707,0.294,1.881c0.257,0.127,2.474-0.107,1.373,0.247
	c-0.397,0.179,0.667,0.535,0.252,0.855c-0.52,0.459,0.584,0.457,0.919,0.452c-0.297,0.75-1.496,0.818-1.553,1.693
	c0.452,0.165,0.81,1.114,0.078,0.722c-1.066-0.287,0.065-1.239-0.496-1.961c-0.529-0.043-0.345,1.155-0.893,0.92
	c-0.623-0.578-0.316-1.565,0.075-2.2c-0.957,0.167-0.185-0.317-0.469-0.667c-0.879-1.165-0.39,2.399-1.141,0.785
	c0.103,0.809,0.018,1.779,0.454,2.463c1.021,0.254-0.167,1.284,0.31,1.83c0.339,0.508,0.032,1.127,0.045,1.692
	c0.603,0.137,1.873-0.603,2.016,0.289c0.362,0,0.725-0.035,1.088-0.039c-0.029,0.378-0.435,1.302-0.856,0.836
	c-0.453-0.087-1.725,0.165-0.768,0.339c0.147,0.547-0.221,0.527-0.629,0.564c0.096,0.284,0.216,0.557,0.299,0.844
	c-0.491-0.035-0.816-0.477-1.132-0.803c0.395-0.349,1.449-0.904,0.752-1.478c-1.408-0.416-0.48,0.649-0.752,1.251
	C2.74,28.9,2.497,30.614,2.755,31.337c-0.839-0.149-1.05-1.122-1.716-1.463C0.94,30.26,0.895,31.006,0.48,30.397
	c-0.042-0.08-0.13-0.241-0.172-0.32c0.037-0.038,0.11-0.112,0.148-0.148c0.487-0.193,0.26-0.562,0.006-0.843
	c0.468-0.566,0.319-1.326,0.323-2.005c0.055-0.526,0.163-1.044,0.228-1.569c0.185-0.171,0.195-0.431,0.121-0.656
	c0.28-0.389,0.615-0.902,0.299-1.368c0.088-0.414,0.236-0.812,0.39-1.205c0.305-0.854,0.519-1.742,0.816-2.601
	c0.378-1.055,0.916-2.045,1.297-3.095c0.033-0.08,0.096-0.243,0.127-0.322c0.314-0.247,0.448-0.619,0.534-0.992
	c0.246-0.277,0.319-0.641,0.419-0.984c0.156-0.28,0.337-0.546,0.528-0.805c0.079,0.002,0.236,0.002,0.314,0.002
	c-0.539,1.259,1.314-0.527,0,0c0.17-0.473,0.274-0.967,0.346-1.464c0.028-0.044,0.085-0.133,0.113-0.177
	c0.668-1.005,1.214-2.102,2.025-3.005c0.237-0.661,1.343-0.438,1.132-1.17c0.409-0.186,0.716-0.518,0.835-0.958
	c0.131-0.071,0.264-0.14,0.397-0.207c0.523,0.32,0.553-0.062,0.478-0.533c0.049-0.068,0.147-0.205,0.197-0.274
	c0.144-0.072,0.287-0.145,0.431-0.222c0.272,0.624,0.798,0.176,0.798-0.324c0.05-0.554,0.804-0.198,1.067-0.559
	c0.359-0.284-0.402-0.313-0.572-0.459c0.704-0.672,1.455-1.521,2.557-1.232c-0.161-0.567,0.533-0.569,0.876-0.815
	c0.789,0.246,1.154-0.39,1.669-0.78C18.956,1.501,19.534,0.949,20.161,0.651 M8.75,12.498c0.171,0.272,0.405,0.504,0.683,0.668
	C9.377,12.77,9.244,12.347,8.75,12.498 M8.015,16.952c-0.289,0.238-0.437,0.581-0.533,0.934C7.961,17.763,8.611,17.269,8.015,16.952
	 M7.113,18.047c0.209,0.354,0.687,1.344,1.095,0.698C8.833,18,7.493,18.364,7.113,18.047"/>
<path class="st0" d="M24.444,0.323C24.884,0.201,25.321,0.019,25.786,0c0.162,0.727,1.352-0.144,1.851,0.046
	c0.424-0.02,0.849,0.029,1.261,0.132c0.252,0.028,0.754,0.085,1.004,0.112c0.293,0.093,0.586,0.18,0.887,0.241
	c3.334,0.452,6.255,2.268,9.318,3.543c0.311,0.459,0.897,0.503,1.329,0.796c0.179,0.188,0.38,0.356,0.605,0.489l-0.032,0.138
	c-0.335,0.263-0.191,0.369,0.195,0.392c0.218,0.498-0.672,0.074-0.623,0.465c-0.096,0.448,0.326,0.706,0.604,0.973
	c-0.241-0.634,0.234-0.998,0.697-1.169c-0.437,0.777,0.468,1.129,0.216,1.89c0.984,0.537,0.789,2.148,2.018,2.302
	c0.506-0.55,0.957-0.115,0.906,0.531c0.743-0.271,0.412-1.417,1.385-1.071c-0.672,1.459,1.336,0.887,1.77,1.716
	c-0.333,0.205-1.229,0.263-0.742,0.776c0.862,0.717-0.111,1.63-0.035,2.509c0.381,0.028,0.563,0.383,0.793,0.635
	c-0.033-0.357-0.305-0.847,0.166-1.018c0.217,0.681,0.125,1.329-0.406,1.77c0.022,0.511,0.715,1.07,1.238,1.012
	c0.116-0.65-1.021-1.165-0.039-1.671c1.447-1.132,0.289,1.542,1.238,0.786c0.535-0.189,0.646,1.649,0.663-0.157
	c0.337-0.255,0.892-0.392,0.743-0.931c-0.32,0.106-0.578,0.329-0.863,0.504c0.163-0.369,0.441-0.663,0.699-0.965
	c0.266-0.183,0.684-0.039,0.643,0.328c-0.16,0.726,1.28-0.21,0.871,0.378c-0.988,0.692,0.614,1.374,1.314,1.449
	c-0.215,0.664,0.555,0.652,1.076,0.644c-0.078,0.498-0.703,1.09-1.162,0.637c-0.352,0.557-0.002,1.775-0.932,1.804
	c-0.647,0.062-0.242,0.777-0.01,1.088c0.821-0.104,1.014-1.748,1.902-1.231c-0.4,0.131-0.045,0.491,0,0.754
	c-0.311,0.36-0.906,0.582-0.791,1.156c0.468-0.389,1.303-0.284,1.248-1.058c-0.041-0.525,0.492-0.414,0.852-0.476
	c-0.488,0.467-0.209,1.154,0.016,1.671c-0.08,0.504-0.687,1.415,0.113,1.549c0.553,0.527,0.362-0.708,0.94-0.512
	c1.065-0.317,1.28,0.711,1.854,1.261c0.021-0.238,0.037-0.474,0.049-0.71c1.305,0.279,0.141,1.941,0.927,2.618
	c-0.417,0.036-0.81,0.175-1.212,0.263c-0.408-0.554-0.803-1.207-0.026-1.646c-0.913,0.49-0.622-0.766-1.308-0.646
	c-1.016,0.248,0.752,1.324-0.43,1.589c0.42,0.933-1.348,1.41-1.307,0.291c-0.691,0.312,0.039,1.865,0.616,1.196
	c0.588-0.522,1.435,0.116,1.543,0.703c-0.865,0.184,0.185,0.978,0.59,0.637c0.753-0.202,0.157,0.751-0.048,1.05
	c0.013,0.617,0.472,0.469,0.679,0.026c0.751,0.066,0.694,1.272,1.517,0.993c0.156,0.488,0.873,1.856-0.125,1.427
	c0.224,0.572,1.777,1.174,0.822,1.674c-0.197-0.781-1.013-0.789-1.639-1.035c-0.838-0.59-1.129-1.65-1.936-2.251
	c-0.451-0.936-1.586-0.852-2.238-1.515c-0.379-0.651-1.15-0.843-1.792-1.127c-0.578-0.429-0.931-1.714-1.774-1.259
	c-0.461,0.007-0.922,0.016-1.38,0.02c-1.012-0.089-1.006-1.461-1.951-1.628c-0.799-0.121-1.321-0.982-2.165-0.774
	c-0.248-0.232-0.453-0.504-0.664-0.766c-0.01-0.293-0.312-0.382-0.546-0.276c-0.102-0.106-0.204-0.211-0.306-0.317
	c-0.281-0.381-0.523-0.822-0.965-1.039c-0.285-0.366-0.555-0.748-0.869-1.09c-0.537-0.288-0.339-1.204-0.928-1.302
	c-0.229-0.047-0.455-0.031-0.676,0.046c-0.763-1.086-1.791-1.916-2.459-3.076c-0.082-0.349-0.129-0.761-0.584-0.748
	c-0.951-0.598-0.029-2.05-0.541-2.851c-0.759,0.016,0.062,1.743-0.961,1.748c-1.127-0.073,0.782-0.876-0.188-1.539
	c-0.601-0.041-1.37-0.844-0.66-1.28c0.508-0.243-0.522-0.781-0.099-1c0.316,0.127,0.645,0.229,0.992,0.211
	c-0.621-0.809-0.27-2.356-1.586-2.459c-0.236,0.228,0.733,1.373-0.166,1.682c-0.056-0.318-0.57-1.037-0.549-0.318
	c0.021,0.775-0.716-0.422-1.105,0.032c0.017,0.546,0.279,1.544-0.648,1.268c0.366-1.006-0.388-1.843-0.889-2.553
	c-1.154-0.041,0.631-1.099-0.243-1.431c-1.851-0.207-0.505,2.533-1.826,3.191c0.05-0.423,0.313-1.175-0.246-0.569
	c-0.235-0.353-0.42-0.737-0.683-1.069c-0.43,0.838-0.958,1.884-0.365,2.776c-0.807-0.343-1.725-0.937-1.154-1.982
	c-1.015,0.364-0.977,1.476-1.281,2.333c-0.064-0.007-0.194-0.012-0.26-0.017c-0.338-0.18-0.908-0.85-0.25-0.95
	c0.799,0.128,0.07-0.665-0.426-0.457c-0.167-0.66-0.214-1.346-0.391-2.005c-0.795,0.228-0.924,1.135-1.725,1.383
	c-0.175-0.366-0.74-0.837-0.365-1.228c0.463,0.276,0.996,0.717,0.692-0.117c0.96-0.154,1.253-1.007,1.265-1.841
	c0.026-0.72,0.666,0.298,0.688-0.283c0.212-0.623,0.413-1.675,1.219-1.634c0.609-0.003,0.461-0.902,1.039-1.073
	c-0.433-0.003-0.656-0.419-0.945-0.674c0.211-0.433,0.684-0.76,0.438-1.343c-0.377,0.053-0.755,0.077-1.134,0.053
	c-0.294,0.154,0.127,1.321-0.448,1.132c-0.798-0.239-0.518,0.913-1.082,1.18c-0.816,0.483-0.727-0.298-0.91-0.69
	c0.588-0.512,1.021-1.292,1.738-1.514c0.982-0.242-0.718-1.512-0.796-0.698C25.573,1.541,25.065,0.416,24.444,0.323 M39.02,4.262
	c-0.475,0.531-0.782,1.332-1.799,1.297c-0.036,0.832,0.164,1.769-0.632,2.278c-0.337,1.222,1.016-0.903,0.93,0.113
	c0.346,0.953-0.08-1.12,0.469-1.296c0.524,0.534-0.008,1.37,0.358,1.896c0.772-0.496-0.101,1.811,0.474,1.019
	c0.205-0.401,0.903-0.294,0.768-0.863c0.052-0.905,1.029,0.276,1.168-0.244c-0.406-0.165,0.049-0.971-0.614-0.797
	c-0.757,0.325-0.481-1.49-1.337-0.884C38.856,5.92,39.67,4.942,39.02,4.262 M35.485,4.783c-0.283,0.422-1,0.805-0.527,1.354
	c0.441,0.199,0.238-0.396,0.316-0.64c0.559,0.364-0.125,1.788-0.649,1.797c0.034-0.754-0.479-1.283-0.968-1.783
	c-0.057,0.533-0.407,1.196,0.074,1.628c0.612-1.079,0.27,0.804,1.137,0.71c0.093,0.456,0.199,1.263,0.855,1.077
	c0.85-0.35,0.725-1.559,0.248-2.188c-0.67-1.218,1.006-0.501,1.057-1.367c-0.36-0.12-0.732-0.132-1.074,0.043
	C35.471,5.739,35.754,4.598,35.485,4.783 M30.735,5.189c-0.068,0.543-0.219,1.069-0.369,1.594c0.732-0.517,0.246,0.638,0.768,0.483
	c0.17-0.712,0.38,0.485,0.866,0.204C32.083,6.496,31.557,5.701,30.735,5.189 M44.376,16.584c-0.657,0.537,0.885,1.042,0.552,1.704
	c-0.149,0.604,0.674,0.269,1.015,0.265c0.012,0.336,0.029,0.793,0.475,0.803c-0.072-0.281-0.131-0.566-0.143-0.857
	c0.31,0.416,0.815,0.543,1.303,0.617c0.486-0.533-0.625-1.133-0.422-1.803c-0.621-1.149-0.439,1.087-1.309,0.813
	C45.198,17.93,44.944,16.758,44.376,16.584 M48.778,19.373c-0.226,1.077-2.194-0.373-1.85,0.946
	c-0.398-0.83-1.064,0.519-0.607,0.956c0.265-0.202,0.487-0.452,0.748-0.656c0.123,0.329,0.211,0.672,0.358,0.993
	c0.252,0.333,0.544,0.661,0.958,0.785c0.577-0.483-0.598-0.539-0.284-1.086c0.354-0.254,0.55-0.19,0.487,0.276
	c1.036-0.122-0.273-1.012,0.58-1.332c0.328-0.956,0.746,1.249,0.82,0.222c-0.264-0.939,0.996-1.514,0.312-2.407
	C49.468,17.578,49.009,18.739,48.778,19.373 M50.561,20.973c-0.172,0.424-1.056,0.943-0.89,0.118
	c-0.491,0.225-0.346,1.425,0.336,1.15c-0.075-0.511,0.216-0.918,0.204-0.176c0.457-0.397,1.323,0.003,1.433-0.78
	C51.254,21.132,50.864,21.216,50.561,20.973 M57.378,23.591c-0.401,0.36-0.348,1.024-0.006,1.407
	c0.433,0.031,1.055-0.292,0.947-0.806c-0.483-0.129-1.377,0.657-0.853-0.685L57.378,23.591z"/>
<path class="st0" d="M28.897,0.178c0.252,0.028,0.754,0.084,1.004,0.112C29.651,0.262,29.149,0.207,28.897,0.178"/>
<path class="st0" d="M24.069,0.272c0.096,0.014,0.281,0.038,0.375,0.051c0.621,0.093,1.129,1.218,1.687,0.634
	c0.077-0.813,1.778,0.456,0.796,0.698c-0.719,0.222-1.15,1.002-1.738,1.514c-0.359-0.117-0.779,0.003-0.875,0.413
	c-1.596,0.735-0.652-0.96-0.531-1.736c-0.434-0.256,0.404-0.374,0.565-0.574C24.143,0.953,23.694,0.645,24.069,0.272"/>
<path class="st0" d="M21.958,1.917c0.33,0.095,0.311,0.575,0.751,0.409c0.737,1.038,0.221,2.253,0.039,3.364
	c0.569-1.055,1.147,0.5,1.944,0.564c-0.867,0.199-0.727,1.182-0.022,1.526c-0.304-1.02,0.912-1.144,1.047-2.012
	c0.44,0.198,1.026-0.072,1.296,0.449c-0.021,0.581-0.66-0.438-0.689,0.283c-0.01,0.834-0.303,1.687-1.262,1.841
	c0.303,0.834-0.23,0.393-0.693,0.117c-0.377,0.391,0.191,0.861,0.365,1.228c0.801-0.248,0.931-1.155,1.725-1.383
	c0.177,0.659,0.224,1.344,0.391,2.005c0.496-0.208,1.225,0.585,0.426,0.457c-0.658,0.1-0.088,0.77,0.25,0.95
	c-0.84,0.334-1.729,0.683-2.636,0.431c-0.054-0.071-0.159-0.211-0.213-0.282c-0.28-0.325-0.782,0.05-1.149,0.023
	c-0.317-0.05-0.635-0.215-0.957-0.109c-1.43,0.276-2.853,0.816-3.646,2.094c-0.227,0.44-0.684,0.448-1.149,0.404
	c-2.293-1.436-0.699,3.104-2.665,2.464c-0.568-1.238,0.227-2.554,0.837-3.671c-1.1-0.222,0.269-1.419,0.511-1.962
	c-0.593-0.652,0.02-1.174-0.135-1.852c0.462-0.152,0.993-0.177,1.35-0.579c-0.263-0.152-0.57-0.33-0.437-0.687
	c0.447-0.545,1.04,0.186,1.443,0.448c-0.265-0.719,0.25-1.659-0.483-2.146c-0.289-0.578,1.022-1.117,0.58,0.091
	c0.999,0.396,0.589,1.426,0.573,2.26c0.356-0.437,0.334-1.066,0.702-1.484c0.207,0.463,0.766,0.95,0.977,0.203
	c0.428-0.761-0.737-0.69-0.283-1.386c0.334-0.778-1.315,0.467-0.623-0.854c-0.656-0.1-0.006-1.344,0.488-1.533
	c0.426,0.216,0.82,0.487,1.19,0.79c-0.229-0.629-0.412-1.271-0.188-1.932C22.019,3.04,22.136,2.265,21.958,1.917 M22.131,7.146
	c-0.294,0.569-0.388,1.136-0.177,1.785c0.302-0.358,0.662-0.51,1.119-0.329C22.766,8.152,22.245,7.783,22.131,7.146"/>
<path class="st0" d="M92.079,2.438c0.154,0.022,0.311,0.045,0.47,0.041c0.834-0.025,1.664-0.072,2.507-0.057
	c0.358,0.311,0.728,0.347,1.101,0.106c1.142,0.508,2.38,0.272,3.562,0.094c1.197,0.431,2.228,1.172,3.256,1.912
	c-0.445,0.903-0.203,2.061-0.875,2.854c-0.359,0.375-0.601,1.042-1.233,0.763c0.485,1.078-0.507,1.01-1.3,1.253
	c-0.264,0.563-1,0.261-0.971-0.291c0.262-0.21,0.651-0.023,0.868-0.319c-0.666,0.017-1.415,0.04-1.942,0.506
	c-0.238,0.393,0.52,0.162,0.444,0.572c-0.276,0.002-0.62-0.224-0.823,0.055c0.158,0.405,0.475,0.829,0.037,1.18
	c-0.589,0.157-1.226-0.255-1.756,0.18c-0.797,0.618-1.924-0.037-2.703,0.698c-0.212-0.018-0.418-0.002-0.619,0.051l-0.105-0.073
	c-0.055-0.039-0.163-0.115-0.217-0.153c-0.598-0.414-1.12-0.067-1.5,0.356c-0.981,0.828-2.004,1.592-3.147,2.181
	c-0.433,0.64-1.044,1.118-1.819,1.27c0.783-1.356-1.328-1.376-0.646-2.449c0.827-0.036,1.554,0.375,1.888,1.131
	c0.041-0.208,0.127-0.617,0.168-0.822c0.117,0.909,1.555,0.056,0.668-0.48c0.894,0.13-0.027-0.515-0.002-0.956
	c0.414-0.491,0.506,0.342,0.713,0.609c0.336-0.172,0.498-0.487,0.186-0.778c0.225-0.427,0.729-0.567,1.018-0.859
	c0.639-0.985-0.227-1.932,0.329-2.923c0.14-0.699,1.158-0.609,1.216-1.367c0.724,0.074,0.442,1.54,0.194,0.404
	c-0.397,0.371-0.481,0.921-0.396,1.45c0.423,0.237,0.846-0.113,1.259-0.206c0.106-0.62-0.571-1.82,0.457-1.725
	c-0.246,1.032,1.202,1.254,1.178,2.163c0.142,0.397,0.819-0.098,1.161-0.018c0.002,0.385-0.389,1.189,0.309,1.105
	c0.51-0.042,0.178-0.638,0.185-0.951c0.67,0.034,1.741,0.35,1.835-0.61c-0.098-0.727,0.887-0.68,0.765-1.346
	c-0.422,0.059-0.838,0.185-1.256,0.234c-0.676-0.579-0.69-1.535-0.907-2.338c-0.304,0.15-0.583,0.344-0.883,0.499
	c0.039-0.601,0.264-1.254-0.092-1.798c-0.46-0.201-0.678,0.219-0.846,0.561c-0.476-0.064-0.938,0.053-1.039,0.589
	c0.599-1.104-1.115-1.153-0.832-2.111C91.976,2.577,92.045,2.485,92.079,2.438"/>
<path class="st0" d="M90.658,2.801c0.153-0.088,0.308-0.18,0.464-0.272c0.252,0.123,0.541,0.174,0.818,0.097
	c-0.284,0.958,1.43,1.006,0.832,2.111c0.101-0.537,0.563-0.654,1.039-0.589c0.168-0.342,0.386-0.762,0.846-0.562
	c0.355,0.544,0.131,1.198,0.092,1.799c0.301-0.156,0.579-0.35,0.883-0.5c0.217,0.804,0.231,1.759,0.907,2.339
	c0.418-0.05,0.834-0.176,1.256-0.234c0.122,0.666-0.862,0.62-0.765,1.346c-0.094,0.96-1.165,0.644-1.835,0.61
	c-0.007,0.314,0.325,0.91-0.185,0.952c-0.697,0.084-0.307-0.721-0.309-1.105c-0.341-0.08-1.02,0.415-1.161,0.018
	c0.024-0.909-1.424-1.131-1.178-2.163c-1.028-0.095-0.351,1.105-0.458,1.725c-0.413,0.092-0.835,0.443-1.258,0.206
	c-0.086-0.529-0.002-1.08,0.396-1.45c0.248,1.136,0.529-0.33-0.194-0.405c-0.058,0.759-1.076,0.668-1.215,1.368
	c-0.557,0.991,0.308,1.937-0.33,2.922c-0.289,0.293-0.793,0.434-1.018,0.86c0.313,0.291,0.15,0.605-0.186,0.778
	c-0.207-0.268-0.299-1.1-0.713-0.609c-0.025,0.441,0.896,1.085,0.002,0.956c-0.332-0.057-0.492,0.265-0.668,0.479
	c-0.041,0.206-0.127,0.615-0.168,0.823c-0.334-0.756-1.061-1.167-1.888-1.131c-0.682,1.073,1.429,1.093,0.646,2.449l-0.053,0.129
	c-0.621-0.125-0.684,0.553-0.799,0.987c-0.199,0.247-0.507,0.347-0.787,0.469c-0.285,0.034-0.566,0.081-0.841,0.16
	c-0.271-0.073-0.634-0.057-0.694,0.279c-0.155,0.18-0.31,0.358-0.449,0.549c-0.188,0.222-0.285,0.502-0.387,0.772
	c-0.431,0.786-0.605,1.758-1.387,2.301c-0.455,0.271-0.757,0.879-0.521,1.381c0.018,0.083,0.051,0.251,0.068,0.333
	c-0.302,0.197-0.527,0.468-0.699,0.781c-0.596-0.559-1.181-1.562-0.291-2.142c-0.133-0.615,0.59-2.214-0.472-2.285
	c-0.409,0.25-0.038,0.589,0.255,0.716c-0.225,0.385-0.645,0.605-0.854,1.004c-0.925-0.057,0.423-1.001-0.308-1.343
	c-0.504-0.249-1.057-0.97-0.147-1.074c-0.535-0.418,0.075-1.074,0.262-1.545c0.531-0.451,0.19-2.019-0.569-1.207
	c-0.154-0.702,0.601-0.654,0.996-0.984c0.06-0.489-0.418-0.922-0.037-1.392c-0.444,0.17-0.67-0.279-0.857-0.602
	c0.441-0.505,0.727-1.091,1.27-1.49c-1.615,0.612-1.529-1.865-0.205-1.587c0.799-0.262,0.299,0.902,0.971,1.056
	c0.35,0.445,1.003-0.923,0.337-0.549c0.233-0.791,0.225-1.878,1.049-2.314c0.224-0.093,0.228-0.355,0.308-0.552
	c0.199,0.431,0.551,1.171,1.073,0.62c-0.205-0.308-0.426-0.993,0.187-0.648c0.449,0.603-0.818,1.511-0.351,2.24
	c0.312-0.117,0.625-0.231,0.945-0.332c-0.616-1.01,0.636-2.111,0.119-3.1c-0.308-0.306,0.385-1.028,0.565-0.58
	c0.584,0.577-0.121,2.128,1.307,1.644c0.65,0.122,0.988-1.171,1.604-0.592c0.352,0.009,0.592-0.127,0.422-0.502
	c-0.259-0.678,0.531-1.044,0.922-1.474c0.58,0.163,0.98,0.677,1.592,0.794c-0.086,0.364-0.557,0.93,0.104,0.958
	c-0.021-0.479,0.202-0.735,0.687-0.725c0.525-1.237-0.619-0.557-1.137-0.589c-0.08-0.598,1.213-0.656,0.594-1.208
	c-0.469-0.701-1.366,0.174-1.78-0.556c0.392-0.132,0.791-0.246,1.182-0.396c0.181,0.348,0.56,0.184,0.81,0.019
	c0.184,0.346,0.471,0.01,0.699-0.101C90.235,2.985,90.481,2.966,90.658,2.801 M85.431,7.142c0.188,0.764,0.262,1.016-0.461,1.653
	c0.449-0.788-0.008-1.23-0.69-1.318c0.065,0.475,0.505,0.844-0.011,1.25c-0.486,0.495,0.705,1.787-0.735,1.372
	c0.31,0.687-0.414,1.269-0.711,0.597c-0.024,0.626,0.745,1.249,1.36,1.091c0.633-0.28,0.697,0.69,1.254,0.732
	c0.328-0.728-0.317-1.337-0.937-1.027c-0.522-0.261-0.28-0.727,0.019-1.062c0.785,0.3,1.09-0.83,1.595-1.151
	c0.69,0.936,1.137-0.842,0.519-0.449c-0.697,0.326-0.291-0.563,0.053-0.758C86.571,7.59,85.841,7.379,85.431,7.142 M80.447,8.889
	c0.639,0.344-0.815,1.158-0.104,1.243C81.081,10.436,80.899,9.146,80.447,8.889 M80.921,13.184c-0.654,1.195-1.604,2.38-1.609,3.705
	c0.955-0.669,0.586,0.989,0.158,1.082c-0.355-0.735-1.625-1.113-1.953-0.169c0.654,0.229,0.729,1.257,1.524,1.163
	c0.045-0.682,1.218,0.502,0.97-0.237c-0.445-0.876,1.736,0.331,1.025-0.852c-0.338,0.388-1.018,0.418-0.882-0.243
	c-0.44-1.317,0.79-0.164,1.082-0.911c-0.443,0.086-0.951,0.136-1.315-0.19c-0.021-0.563,0.355-0.694,0.819-0.465
	c-0.396-0.799-0.167-1.288,0.3-1.955C80.726,13.705,81.581,13.335,80.921,13.184"/>
<path class="st0" d="M24.313,3.582c0.096-0.41,0.516-0.529,0.875-0.413C24.956,3.776,24.595,4.726,24.313,3.582"/>
<path class="st0" d="M79.455,6.739c2.444-1.479,5.083-2.656,7.864-3.32c0.414,0.729,1.312-0.146,1.783,0.556
	c0.618,0.552-0.677,0.61-0.596,1.208c0.518,0.032,1.662-0.648,1.139,0.59c-0.486-0.01-0.709,0.245-0.688,0.725
	c-0.662-0.028-0.189-0.593-0.104-0.958c-0.613-0.117-1.013-0.631-1.593-0.794c-0.392,0.431-1.182,0.797-0.923,1.474
	c0.171,0.375-0.07,0.512-0.422,0.502c-0.616-0.578-0.954,0.714-1.604,0.592c-1.428,0.484-0.723-1.066-1.306-1.644
	c-0.183-0.447-0.874,0.274-0.567,0.581c0.519,0.988-0.733,2.089-0.119,3.099c-0.319,0.101-0.633,0.215-0.944,0.333
	c-0.468-0.729,0.801-1.638,0.351-2.241c-0.613-0.344-0.392,0.34-0.187,0.648c-0.521,0.551-0.874-0.189-1.074-0.62
	c-0.079,0.197-0.083,0.459-0.308,0.552c-0.822,0.437-0.814,1.523-1.049,2.314c0.666-0.374,0.014,0.994-0.336,0.549
	c-0.672-0.154-0.172-1.318-0.972-1.056c-1.323-0.278-1.409,2.199,0.205,1.587c-0.542,0.398-0.828,0.984-1.269,1.491
	c0.188,0.322,0.412,0.771,0.857,0.601c-0.38,0.47,0.096,0.903,0.036,1.392c-0.396,0.33-1.149,0.282-0.996,0.984
	c0.763-0.811,1.101,0.756,0.57,1.207c-0.187,0.471-0.798,1.128-0.261,1.546c-0.91,0.103-0.356,0.825,0.147,1.074
	c0.729,0.341-0.618,1.285,0.308,1.342c0.209-0.399,0.629-0.619,0.854-1.004c-0.292-0.127-0.664-0.466-0.255-0.716
	c1.062,0.071,0.339,1.67,0.472,2.285c-0.889,0.581-0.305,1.584,0.291,2.143c-0.191,0.453-0.611,0.464-0.939,0.151
	c-0.301,0.769-0.481,1.663-1.262,2.114c-0.687-0.041-1.111,0.477-1.664,0.745c-0.17-0.283-0.586-0.146-0.507,0.193
	c-0.536-0.059-0.923-0.361-1.174-0.819c-0.431-0.183-1.219-0.102-1.364,0.407c0.363,0.277,1.022,0.636,0.498,1.109
	c-0.099,0.384-0.389,0.103-0.578-0.025c-0.834,0.766-1.871,1.253-2.779,1.908c-0.111-0.009-0.338-0.025-0.45-0.032
	c1.071-0.602,0.106-1.768,0.468-2.577c0.971-0.289,0.355-1.231-0.361-1.404c0.746,0.101,0.963-0.746,1.598-0.945
	c0.322-0.385,0.855-0.695,0.751-1.278c-0.392,0.019-0.765-0.092-1.132-0.211c0.373,1.026-1.157,1.44-1.217,2.434
	c-0.727-0.3-0.229-1.169,0.041-1.644c-0.358-0.211-0.857-0.257-1.059-0.662c-0.105-0.657,0.188-1.262,0.232-1.896
	c-0.441-0.299-1.025-0.432-1.31-0.917c0.03-0.348,0.011-0.953-0.487-0.65c-0.353,0.026-0.488,0.366-0.693,0.594
	c0.223-0.742-0.803-0.739-0.537-1.6c0.156-0.218,0.313-0.435,0.477-0.648c0.195-0.085,0.422-0.149,0.508-0.369
	c0.473-0.283,0.822-0.703,1.137-1.146c0.539-0.608,1.053-1.259,1.751-1.695c0.68,0.054-0.333,1.087,0.47,1.298
	c0.32-0.277,0.887-1.042,1.335-0.481c0.479-0.614-0.725-0.878-0.884-1.406c0.355-0.469,0.801-1.053,1.449-0.691
	c-0.137-1.045,1.459-1.375,1.994-2.093c0.431-0.06,1.402-0.615,0.722,0.103c0.778,0.646,0.569-0.721,0.591-1.259
	C75.953,8.988,77.657,7.768,79.455,6.739 M76.717,13.36c-0.317,0.169-1.009,0.354-0.353,0.576c-0.942-0.178-0.289,0.947,0.31,0.848
	C76.286,14.269,77.231,13.583,76.717,13.36 M72.356,19.708c-0.153,0.278-0.375,0.462-0.703,0.473
	c-0.223,0.706,1.486-0.274,0.649,1.057c-0.552-0.407-0.688,0.934-0.038,0.569c-0.027,0.382,0.069,0.702,0.495,0.748
	c0.151-0.433,0.373-1.206-0.182-1.414C72.396,20.797,72.789,19.598,72.356,19.708 M75.067,22.624
	c-0.185,0.216-0.336,0.459-0.478,0.705c0.604,0.114,0.351,0.609,0.283,1.039c0.465-0.258,0.805-0.648,1.335-0.187
	C76.034,23.557,75.284,23.088,75.067,22.624 M77.032,22.914c-0.016,0.217-0.387,0.842,0.07,0.577
	C77.642,23.486,77.616,22.628,77.032,22.914 M74.864,24.547c-0.243,0.117-1.205,0.823-0.493,0.824
	C74.8,25.584,75.495,24.627,74.864,24.547"/>
<path class="st0" d="M11.813,5.475c0.349-0.517,0.78-0.984,1.293-1.342c0.169,0.147,0.931,0.175,0.572,0.458
	c-0.263,0.362-1.017,0.006-1.067,0.56C12.611,5.65,12.084,6.099,11.813,5.475"/>
<path class="st0" d="M39.02,4.262c0.65,0.68-0.163,1.658-0.216,2.52c0.855-0.606,0.58,1.208,1.337,0.883
	c0.663-0.174,0.208,0.632,0.614,0.797c-0.139,0.52-1.116-0.66-1.168,0.245c0.136,0.568-0.563,0.461-0.768,0.862
	c-0.574,0.792,0.299-1.515-0.474-1.019c-0.366-0.526,0.166-1.361-0.358-1.895c-0.549,0.175-0.123,2.248-0.469,1.295
	c0.086-1.016-1.267,1.109-0.93-0.113c0.796-0.509,0.596-1.446,0.632-2.278C38.237,5.594,38.545,4.792,39.02,4.262"/>
<path class="st0" d="M102.974,4.535c0.992,0.592,1.699,1.626,2.896,1.846c0.481,0.347,1.001,0.63,1.494,0.962
	c0.54,0.537,0.964,1.229,1.677,1.562c0.1,0.149,0.191,0.304,0.275,0.465c-0.012,0.537,0.227,1.034-0.17,1.529
	c0.393-0.05,0.718-0.327,1.115-0.353c0.119,0.824,0.477,1.611,0.539,2.451c-0.461-0.669-0.955-0.497-1.66-0.559
	c0.268-0.298,0.314-0.679,0.266-1.064c-0.61-0.285-1.471,0.247-1.848-0.469c-0.573,0.862,0.177,1.658,0.27,2.538
	c-0.251,0.274-0.621,0.371-0.936,0.546c0.559,0.74,1.36,1.422,1.259,2.439c-0.07-0.053-0.212-0.158-0.282-0.21
	c-0.033-0.047-0.105-0.139-0.139-0.186c-1.437-2.119-3.521-3.739-5.707-5.023c-1.144-0.619-2.396,0.194-3.598-0.109
	c0.514-0.968-0.593-0.217-0.841,0.211c-0.101-0.002-0.304-0.003-0.405-0.003c0.438-0.351,0.121-0.775-0.037-1.18
	c0.203-0.278,0.547-0.053,0.824-0.055c0.074-0.41-0.684-0.179-0.445-0.572c0.527-0.466,1.277-0.489,1.943-0.505
	c-0.218,0.295-0.607,0.109-0.869,0.319c-0.029,0.552,0.707,0.854,0.972,0.291c0.792-0.243,1.784-0.175,1.299-1.253
	c0.633,0.279,0.874-0.388,1.233-0.763C102.771,6.596,102.528,5.438,102.974,4.535"/>
<path class="st0" d="M35.485,4.783c0.268-0.185-0.014,0.956,0.469,0.632c0.342-0.175,0.713-0.163,1.074-0.043
	c-0.05,0.866-1.727,0.149-1.057,1.367c0.477,0.629,0.602,1.838-0.247,2.188c-0.656,0.186-0.765-0.621-0.856-1.077
	c-0.867,0.093-0.524-1.789-1.137-0.71c-0.482-0.432-0.13-1.095-0.074-1.628c0.488,0.5,1.002,1.029,0.967,1.782
	c0.525-0.009,1.209-1.432,0.65-1.796c-0.078,0.243,0.125,0.838-0.316,0.639C34.485,5.587,35.202,5.205,35.485,4.783"/>
<path class="st0" d="M30.734,5.189c0.822,0.512,1.349,1.307,1.267,2.28c-0.486,0.282-0.697-0.915-0.867-0.204
	c-0.521,0.156-0.035-0.999-0.769-0.481C30.518,6.258,30.667,5.732,30.734,5.189"/>
<path class="st0" d="M42.203,5.888c-0.386-0.022-0.528-0.129-0.194-0.391c0.552,0.236,1.154,0.364,1.666,0.695
	c0.037,0.444,0.539,0.361,0.838,0.249c0.807,0.447,1.572,0.972,2.423,1.343c0.047,0.229,0.245,0.378,0.478,0.36
	c0.484,0.317,0.959,0.644,1.453,0.946c0.404,0.494,0.863,0.971,1.498,1.148c0.182,0.239,0.411,0.435,0.652,0.612
	c0.3,0.354,0.603,0.711,0.945,1.026c0.244,0.242,0.529,0.435,0.81,0.634c-0.034,0.235,0.122,0.451,0.366,0.467
	c0.048,0.277,0.171,0.537,0.427,0.68c1.224,0.936,2.407,1.925,3.589,2.912c-0.031,0.23,0.114,0.44,0.352,0.471
	c0.582,0.628,1.188,1.257,1.987,1.612c0.663,0.698,1.402,1.314,2.212,1.837c0.23,0.268,0.446,0.549,0.684,0.811
	c0.5-0.497,0.856-1.115,1.302-1.656c0.377-0.313,0.608-0.834,1.147-0.89c-0.266,0.862,0.76,0.858,0.537,1.601
	c0.204-0.229,0.342-0.569,0.693-0.595c-0.412,0.904,1.178,1.108,1.027,2.013c-0.711-0.338-1.536-0.411-2.271-0.072
	c-0.324-0.239-0.404-0.645-0.538-0.999c-0.638,0.101-1.241,0.32-1.622,0.861c-1.115,0.708-1.789-0.76-2.828-0.32
	c0-1.028-1.418-1.119-2.19-0.996c-0.361,0.063-0.894-0.049-0.853,0.477c0.055,0.773-0.779,0.669-1.248,1.058
	c-0.115-0.574,0.48-0.796,0.791-1.156c-0.045-0.262-0.399-0.623,0-0.754c-0.889-0.517-1.082,1.127-1.901,1.231
	c-0.233-0.312-0.64-1.026,0.008-1.088c0.931-0.029,0.581-1.247,0.933-1.804c0.459,0.453,1.084-0.139,1.162-0.636
	c-0.521,0.008-1.292,0.019-1.076-0.645c-0.701-0.074-2.303-0.757-1.314-1.449c0.41-0.588-1.031,0.348-0.872-0.378
	c0.042-0.367-0.375-0.511-0.642-0.328c-0.801,0.187-0.252-0.848-0.75-1.163c0.043,0.495-0.319,0.634-0.697,0.372
	c-0.301-0.843-0.725-2.21-1.879-2.223c-0.033-0.058-0.098-0.176-0.129-0.236c-0.434-0.829-2.441-0.257-1.769-1.716
	c-0.974-0.346-0.642,0.8-1.386,1.071c0.05-0.646-0.4-1.08-0.906-0.531c-1.229-0.154-1.033-1.765-2.018-2.302
	c0.252-0.761-0.652-1.113-0.217-1.889c-0.463,0.17-0.938,0.534-0.696,1.168c-0.277-0.267-0.701-0.525-0.604-0.973
	C41.532,5.962,42.421,6.386,42.203,5.888"/>
<path class="st0" d="M31.515,10.245c1.319-0.658-0.024-3.398,1.826-3.192c0.873,0.333-0.912,1.392,0.242,1.431
	c0.501,0.71,1.254,1.548,0.889,2.554c0.928,0.276,0.664-0.722,0.648-1.269c0.391-0.453,1.127,0.744,1.105-0.032
	c-0.021-0.719,0.492,0,0.55,0.317c0.899-0.309-0.071-1.454,0.163-1.681c1.318,0.102,0.966,1.65,1.588,2.459
	c-0.348,0.016-0.676-0.085-0.993-0.212c-0.423,0.22,0.608,0.757,0.101,1c-0.711,0.437,0.058,1.239,0.658,1.28
	c0.973,0.663-0.938,1.467,0.189,1.54c1.023-0.006,0.203-1.732,0.961-1.749c0.512,0.801-0.409,2.254,0.541,2.851
	c0.455-0.012,0.502,0.4,0.585,0.748c-1.537-0.99-2.847-2.273-4.683-2.644c-1.562-1.356-3.658-1.518-5.613-1.854
	c-0.801-0.367-2.043,1.07-2.487-0.06c0.304-0.856,0.267-1.969,1.28-2.333c-0.569,1.045,0.349,1.639,1.154,1.982
	c-0.593-0.892-0.065-1.938,0.365-2.776c0.264,0.333,0.448,0.718,0.682,1.07C31.827,9.07,31.563,9.822,31.515,10.245"/>
<path class="st0" d="M22.131,7.146c0.114,0.637,0.635,1.006,0.942,1.456c-0.457-0.181-0.817-0.029-1.119,0.329
	C21.743,8.282,21.837,7.715,22.131,7.146"/>
<path class="st0" d="M85.431,7.142c0.409,0.237,1.141,0.448,1.254,0.93c-0.344,0.194-0.75,1.084-0.054,0.758
	c0.619-0.393,0.172,1.385-0.519,0.449c-0.504,0.321-0.81,1.452-1.594,1.151c-0.3,0.335-0.541,0.8-0.019,1.062
	c0.619-0.311,1.265,0.299,0.937,1.027c-0.557-0.042-0.621-1.012-1.254-0.732c-0.615,0.158-1.385-0.465-1.359-1.091
	c0.297,0.672,1.019,0.09,0.711-0.597c1.439,0.415,0.248-0.877,0.736-1.372c0.515-0.406,0.073-0.775,0.01-1.25
	c0.682,0.088,1.14,0.53,0.689,1.318C85.692,8.158,85.619,7.906,85.431,7.142"/>
<path class="st0" d="M80.447,8.89c0.452,0.256,0.634,1.546-0.106,1.242C79.632,10.048,81.087,9.234,80.447,8.89"/>
<path class="st0" d="M109.315,9.369c0.229,0.267,0.502,0.495,0.783,0.707c0.326,0.333,0.654,0.667,1.01,0.978
	c0.819,0.618,1.4,1.44,1.838,2.367c1.375,1.708,2.322,3.683,3.651,5.426c0.429,0.968,0.681,2.021,1.341,2.882
	c0.217,0.531,0.859,1.072,0.512,1.678c-0.244-0.049-0.441-0.006-0.594,0.131c-0.105,0.311-0.158,0.638-0.305,0.935
	c-0.24,0.675-1.091-0.655-1.117,0.196c-0.349,0.631,0.2,0.926,0.76,1.016c-0.215,0.537-0.537,1.117-0.271,1.687
	c0.19,0.365-0.547,1.19,0.206,0.937c-0.493,0.455,0.301,1.562-0.768,1.371c-0.435-0.697-0.642-0.654-0.599,0.206l-0.161-0.049
	c-0.06-0.248-0.111-0.498-0.156-0.749c0.097-0.215,0.146-0.53-0.109-0.657c-0.064-0.677-0.279-1.33-0.457-1.983
	c-0.114-0.373-0.234-0.747-0.355-1.118c0.086-0.247-0.039-0.553-0.338-0.501c-0.065-0.194-0.125-0.388-0.18-0.581
	c-0.076-0.426-0.232-0.837-0.488-1.185c-0.326-0.474-0.629-0.963-0.935-1.45c-0.838-1.39-1.707-2.714-2.587-4.079
	c-0.731-0.096-1.268-0.681-1.848-1.105c0.103-1.018-0.699-1.699-1.259-2.439c0.315-0.175,0.687-0.271,0.937-0.546
	c-0.094-0.88-0.844-1.676-0.271-2.538c0.38,0.716,1.238,0.185,1.849,0.469c0.05,0.385,0.002,0.766-0.267,1.064
	c0.707,0.062,1.199-0.11,1.66,0.559c-0.062-0.84-0.419-1.627-0.538-2.451c-0.396,0.026-0.722,0.303-1.115,0.353
	C109.542,10.403,109.303,9.906,109.315,9.369"/>
<path class="st0" d="M73.073,11.524c0.396-0.427,0.833-0.819,1.313-1.157c-0.021,0.538,0.188,1.906-0.592,1.259
	C74.476,10.909,73.505,11.464,73.073,11.524"/>
<path class="st0" d="M48.435,12.301c-0.487-0.513,0.408-0.571,0.742-0.776c0.031,0.06,0.096,0.178,0.129,0.236
	c1.154,0.013,1.578,1.38,1.879,2.223c0.378,0.262,0.74,0.123,0.697-0.372c0.498,0.315-0.051,1.35,0.75,1.163
	c-0.258,0.302-0.536,0.596-0.698,0.965c0.284-0.175,0.542-0.398,0.862-0.504c0.149,0.539-0.406,0.676-0.742,0.931
	c-0.018,1.806-0.129-0.033-0.664,0.157c-0.949,0.756,0.209-1.918-1.238-0.786c-0.982,0.506,0.156,1.021,0.039,1.671
	c-0.523,0.058-1.215-0.501-1.238-1.012c0.531-0.441,0.625-1.089,0.406-1.77c-0.471,0.171-0.199,0.661-0.165,1.018
	c-0.231-0.252-0.413-0.607-0.795-0.635C48.322,13.931,49.296,13.018,48.435,12.301"/>
<path class="st0" d="M8.751,12.498c0.493-0.151,0.627,0.272,0.683,0.669C9.156,13.001,8.922,12.77,8.751,12.498"/>
<path class="st0" d="M86.723,13.477c0.175-0.214,0.334-0.536,0.667-0.479C88.276,13.533,86.839,14.386,86.723,13.477"/>
<path class="st0" d="M80.921,13.184c0.66,0.151-0.195,0.521,0.119,0.927c-0.467,0.667-0.695,1.156-0.3,1.955
	c-0.464-0.229-0.84-0.097-0.819,0.465c0.364,0.327,0.872,0.276,1.315,0.19c-0.292,0.747-1.522-0.406-1.082,0.911
	c-0.136,0.661,0.544,0.631,0.882,0.243c0.711,1.183-1.471-0.024-1.025,0.852c0.248,0.739-0.925-0.445-0.97,0.237
	c-0.796,0.094-0.87-0.935-1.524-1.163c0.328-0.944,1.598-0.566,1.953,0.169c0.428-0.093,0.797-1.751-0.158-1.082
	C79.317,15.564,80.267,14.379,80.921,13.184"/>
<path class="st0" d="M76.717,13.361c0.515,0.223-0.431,0.909-0.043,1.424c-0.599,0.098-1.252-1.027-0.31-0.849
	C75.708,13.713,76.399,13.53,76.717,13.361"/>
<path class="st0" d="M68.709,14.897c0.307-0.194,0.661-0.323,0.921-0.59c0.158,0.529,1.363,0.792,0.884,1.407
	c-0.448-0.562-1.015,0.203-1.335,0.481C68.376,15.985,69.389,14.952,68.709,14.897"/>
<path class="st0" d="M13.051,16.116c0.723-0.297,0.322,0.598,0.333,1.073c0.307,0.447,1.077-0.081,1.436,0.223
	c-0.229,0.677-1.483,0.857-1.005,1.725c-0.19-0.039-0.377-0.088-0.563-0.145c-0.405-0.567,0.951-1.411-0.094-1.469
	c-0.535-0.09-0.443,0.466-0.365,0.801c-0.217,0.305-0.479,0.576-0.731,0.854c0.12-0.457-0.341-1.617-0.96-1.114
	c-0.364,0.328-0.275-0.836,0.102-0.69C12.176,17.628,12.493,16.625,13.051,16.116"/>
<path class="st0" d="M44.376,16.583c0.569,0.174,0.821,1.347,1.471,1.542c0.869,0.273,0.688-1.963,1.308-0.814
	c-0.201,0.67,0.91,1.27,0.422,1.803c-0.487-0.074-0.991-0.201-1.302-0.617c0.014,0.291,0.07,0.576,0.143,0.857
	c-0.445-0.01-0.463-0.467-0.474-0.803c-0.342,0.004-1.165,0.34-1.017-0.264C45.261,17.626,43.72,17.121,44.376,16.583"/>
<path class="st0" d="M8.014,16.952c0.598,0.316-0.052,0.811-0.533,0.933C7.577,17.533,7.725,17.189,8.014,16.952"/>
<path class="st0" d="M5.236,17.502c0.412,0.218,0.475,0.846,1.076,0.57c0.159,0.46,0.003,1.664,0.425,0.632
	c0.912-0.088-0.259,0.64-0.188,1.315c0.567-0.651,1.252-0.594,1.621,0.206c0.703-0.547,0.223,0.351,0.546,0.737
	c-0.611,0.379-0.343,1.151-0.244,1.733c0.531,0.243,0.026-0.459,0.262-0.651c0.3-0.237,0.604-0.771,1.042-0.539
	c-0.65,0.119-0.48,1.399,0.02,0.563c0.219,0.517-0.008,1.027-0.265,1.479c-0.397-0.191,0.093-0.912-0.549-0.611
	c-0.45,0.264-2.137,2.208-0.669,1.847c0.864,0.22,0.13,1.887,1.158,1.247c0.175-0.694,0.054-2.278,1.275-2.007
	c-0.18,0.407-0.616,0.607-0.836,0.978c0.164,0.395,0.929,1.243,0.112,1.286c-0.652,0.341,0.248,0.614,0.308,1.046
	c-0.246,0.669,0.277,1.507-0.236,2.079c-0.633,0.654-0.071,1.66-0.507,2.431c-0.1-0.258-0.339-0.399-0.509-0.123
	c-0.167,0.578-0.823,0.699-1.217,1.084c0.585,0.645,0.361,1.572-0.494,1.797c0.378,0.381-0.355,0.99,0.22,1.201
	c1.247-0.329-0.192,1.193,0.419,1.662c0.726,0.5-0.486,1.546,0.292,1.97c0.99-0.032-0.243,0.403-0.032,0.927
	c0.767-0.289,0.783,0.889,0.86,1.336c-0.789,0.025-1.364,0.021-1.355-0.766c-0.603,0.162-1.131,0.092-1.487-0.463
	c-0.297,0.119-0.736,0.718-0.663,0.064c0.459-1.209-0.953-1.545-1.182-2.537C3.653,38.363,3.331,39.23,2.852,39.9
	c-0.619,0.45-0.455-1.023-0.873-0.295C2.116,39,1.38,38.722,0.931,38.996c-0.056-0.162-0.111-0.324-0.166-0.486
	c-0.015-0.254-0.048-0.764-0.064-1.018c-0.097-0.541-0.269-1.063-0.428-1.588c0.11-0.264,0.191-0.654-0.132-0.802
	c0.008-0.521,0.052-1.036-0.086-1.538c0.002-0.191,0.008-0.382,0.014-0.572C0.1,32.49,0.135,31.998,0.159,31.5
	c0.107-0.372,0.225-0.731,0.322-1.103c0.414,0.609,0.459-0.138,0.558-0.523c0.666,0.342,0.878,1.314,1.717,1.463
	c-0.26-0.722-0.016-2.437,0.993-1.655c0.271-0.602-0.656-1.668,0.752-1.251c0.697,0.573-0.358,1.129-0.752,1.477
	c0.316,0.327,0.641,0.769,1.132,0.803c-0.083-0.288-0.203-0.56-0.299-0.844c0.408-0.038,0.776-0.017,0.629-0.565
	c-0.957-0.174,0.315-0.426,0.768-0.338c0.42,0.465,0.827-0.459,0.856-0.836c-0.364,0.003-0.726,0.038-1.088,0.038
	c-0.144-0.892-1.414-0.152-2.016-0.289c-0.013-0.565,0.294-1.184-0.046-1.692c-0.477-0.545,0.711-1.575-0.31-1.83
	c-0.435-0.685-0.351-1.654-0.453-2.462c0.75,1.614,0.261-1.951,1.14-0.786c0.285,0.351-0.487,0.834,0.47,0.667
	c-0.392,0.635-0.699,1.622-0.075,2.2c0.547,0.236,0.364-0.962,0.893-0.92c0.56,0.723-0.57,1.674,0.495,1.961
	c0.733,0.392,0.375-0.556-0.078-0.722c0.058-0.875,1.256-0.942,1.553-1.692c-0.334,0.004-1.439,0.006-0.919-0.453
	c0.416-0.32-0.648-0.676-0.251-0.855c1.101-0.354-1.117-0.119-1.373-0.247c-0.846-0.174-0.355-1.3-0.294-1.88
	c-0.166-0.32-0.341-0.733,0.024-0.993c0.143,0.387,0.155,1.016,0.7,0.647c-0.615,0.682,0.725,0.711,0.656,0.035
	c-0.219-0.02-0.437-0.031-0.656-0.035C5.354,18.393,5.303,17.94,5.236,17.502 M7.202,26.165c-0.012,0.594-1.337,1.527-0.096,1.18
	c0.078,0.601,0.377-0.459,0.627,0.113c-0.255,0.601,0.491,0.724,0.877,0.938c0.262-0.133,0.678-0.684,0.133-0.754
	C8.816,26.884,8.13,26.015,7.202,26.165 M7.501,30.874c-0.167,0.276-0.067,0.953-0.543,0.663c0.028,0.493,0.655,0.394,1.009,0.403
	C7.809,31.606,8.001,30.782,7.501,30.874 M6.478,38.146c0.284,0.252,0.794,0.322,0.898,0.811
	C8.371,38.488,7.123,37.814,6.478,38.146 M7.007,39c-0.695,0.393,0.564,1.143-0.148,1.334c-0.312,0.707,0.63,0.447,1.035,0.246
	C8.055,39.886,7.433,39.369,7.007,39"/>
<path class="st0" d="M48.778,19.373c0.231-0.634,0.689-1.795,1.522-1.302c0.685,0.892-0.575,1.468-0.312,2.407
	c-0.074,1.025-0.492-1.179-0.82-0.224c-0.854,0.32,0.456,1.21-0.58,1.332c0.063-0.466-0.133-0.529-0.487-0.275
	c-0.313,0.547,0.861,0.603,0.284,1.087c-0.414-0.124-0.706-0.453-0.958-0.786c-0.147-0.321-0.235-0.663-0.358-0.993
	c-0.261,0.204-0.483,0.455-0.748,0.656c-0.457-0.438,0.209-1.786,0.607-0.955C46.585,19,48.553,20.45,48.778,19.373"/>
<path class="st0" d="M7.113,18.047c0.38,0.317,1.72-0.047,1.095,0.698C7.8,19.391,7.322,18.401,7.113,18.047"/>
<path class="st0" d="M66.067,19.761c0.497-0.303,0.518,0.302,0.487,0.65c0.285,0.485,0.868,0.618,1.31,0.917
	c-0.043,0.634-0.338,1.239-0.232,1.896c-0.079,0.735,0.421,1.468,0.004,2.166c-0.338,0.68-0.52,1.395-0.051,2.037
	c-1.463,0.871-1.094-1.884-2.443-1.611c0.012,0.554,0.105,1.099,0.146,1.652c-0.711-0.106-0.83-1.238-1.596-0.828
	c-0.308,0.091-0.271,0.557-0.414,0.808c-0.385-0.479-0.443-1.067-0.255-1.642c-0.327,0.286-0.606,0.62-0.866,0.965
	c-0.226-0.194-0.414-0.427-0.615-0.646c-0.785-0.677,0.379-2.339-0.926-2.619c-0.004-0.451-0.494-1.114,0.291-1.257
	c0.477-0.644,0.83,0.344,1.416,0.109c0.646,0.647-0.334,1.503,0.854,1.795c0.675-0.252,1.859-0.337,1.488-1.446
	c-0.219,0.216-0.361,0.556-0.659,0.67c-0.149-0.455-0.082-0.957-0.179-1.418c-0.484,0.145-0.93,0.105-1.166-0.396
	c0.383-0.54,0.986-0.759,1.625-0.86c0.133,0.354,0.213,0.759,0.537,0.999c0.734-0.339,1.56-0.266,2.271,0.071
	C67.245,20.869,65.655,20.664,66.067,19.761"/>
<path class="st0" d="M72.357,19.708c0.432-0.11,0.038,1.089,0.221,1.433c0.556,0.208,0.333,0.981,0.183,1.414
	c-0.427-0.045-0.523-0.366-0.496-0.747c-0.649,0.365-0.514-0.976,0.039-0.57c0.836-1.331-0.873-0.351-0.649-1.057
	C71.982,20.17,72.202,19.986,72.357,19.708"/>
<path class="st0" d="M57.644,20.248c0.773-0.123,2.191-0.032,2.191,0.996c1.039-0.44,1.713,1.027,2.827,0.319
	c0.235,0.502,0.681,0.541,1.164,0.396c0.099,0.462,0.031,0.964,0.179,1.419c0.299-0.114,0.44-0.454,0.661-0.67
	c0.37,1.108-0.813,1.193-1.489,1.445c-1.188-0.292-0.209-1.147-0.854-1.795c-0.586,0.235-0.939-0.754-1.416-0.108
	c-0.786,0.143-0.296,0.806-0.291,1.257c-0.013,0.238-0.029,0.473-0.049,0.711c-0.573-0.55-0.789-1.578-1.854-1.261
	c-0.58-0.197-0.388,1.039-0.941,0.512c-0.799-0.134-0.193-1.046-0.114-1.549C57.435,21.401,57.155,20.715,57.644,20.248"/>
<path class="st0" d="M50.561,20.973c0.304,0.244,0.693,0.159,1.083,0.312c-0.109,0.783-0.977,0.383-1.434,0.78
	c0.013-0.741-0.278-0.335-0.203,0.176c-0.682,0.275-0.827-0.925-0.336-1.15C49.505,21.917,50.389,21.397,50.561,20.973"/>
<path class="st0" d="M9.796,22.067c-0.5,0.837-0.67-0.443-0.02-0.562C10.013,21.612,9.788,21.885,9.796,22.067"/>
<path class="st0" d="M75.066,22.623c0.218,0.465,0.968,0.935,1.142,1.559c-0.53-0.461-0.871-0.072-1.336,0.187
	c0.069-0.431,0.322-0.926-0.281-1.039C74.731,23.082,74.883,22.839,75.066,22.623"/>
<path class="st0" d="M77.032,22.913c0.584-0.285,0.609,0.573,0.07,0.577C76.646,23.755,77.017,23.13,77.032,22.913"/>
<path class="st0" d="M69.866,23.096c0.366,0.119,0.74,0.23,1.131,0.211c0.104,0.583-0.429,0.893-0.75,1.277
	c-0.635,0.2-0.853,1.046-1.599,0.946C68.708,24.537,70.239,24.122,69.866,23.096"/>
<path class="st0" d="M67.636,25.39c0.416-0.698-0.084-1.431-0.004-2.166c0.201,0.404,0.701,0.451,1.058,0.662
	c-0.271,0.476-0.767,1.344-0.041,1.645c0.718,0.173,1.334,1.115,0.362,1.404c-0.362,0.808,0.603,1.975-0.467,2.577
	c-0.131,0.098-0.24,0.215-0.332,0.351c-0.34-0.053-0.598,0.271-0.316,0.537c-0.176,0.797,0.061,1.654-0.329,2.406
	c-0.03,0.25-0.095,0.754-0.125,1.006l-0.028,0.13c-0.262,0.077-0.511,0.204-0.654,0.442c-0.086-0.023-0.252-0.073-0.336-0.096
	c-0.489-0.215-1.002-0.25-1.49-0.066c-0.203,0.018-0.405,0.039-0.604,0.072c-0.046-0.049-0.136-0.143-0.182-0.191
	c-0.18-0.291-0.551-0.207-0.814-0.109c-0.164-0.1-0.322-0.205-0.479-0.311c0.956-0.5-0.6-1.102-0.823-1.674
	c0.999,0.43,0.281-0.938,0.125-1.426c-0.821,0.278-0.765-0.927-1.515-0.993c-0.208,0.443-0.667,0.591-0.68-0.027
	c0.205-0.299,0.801-1.252,0.047-1.049c-0.404,0.34-1.453-0.454-0.59-0.638c-0.106-0.587-0.955-1.225-1.543-0.703
	c-0.576,0.669-1.308-0.884-0.615-1.195c-0.041,1.118,1.727,0.642,1.307-0.292c1.182-0.264-0.587-1.34,0.43-1.588
	c0.686-0.119,0.395,1.137,1.307,0.647c-0.775,0.438-0.381,1.091,0.027,1.645c0.402-0.088,0.795-0.228,1.211-0.264
	c0.2,0.22,0.391,0.452,0.614,0.647c0.261-0.346,0.54-0.679,0.867-0.965c-0.188,0.574-0.13,1.162,0.254,1.643
	c0.144-0.251,0.106-0.717,0.415-0.81c0.766-0.41,0.884,0.724,1.596,0.828c-0.041-0.553-0.135-1.097-0.146-1.651
	c1.35-0.273,0.98,2.482,2.443,1.611C67.117,26.786,67.298,26.07,67.636,25.39 M65.288,27.611c0,0.36,0.121,1.656,0.754,1.388
	c0.715-0.718,1.711,0.692,2.155-0.25c-0.369-0.459-0.146-1.101-0.935-0.928c0.078,0.437-0.163,0.398-0.49,0.275
	c-0.255,0.23-0.715,0.443-0.639-0.103c0.47-0.101,0.313-0.586-0.129-0.356C65.96,28.13,65.546,27.667,65.288,27.611 M65.296,29.734
	c-0.306,0.51,1.008,0.797,0.17,0.995c0.588,0.132,0.638,1.728,0.959,0.599C66.073,30.689,66.288,29.55,65.296,29.734"/>
<path class="st0" d="M57.378,23.591l0.089-0.084c-0.524,1.342,0.369,0.556,0.853,0.685c0.107,0.514-0.515,0.837-0.947,0.806
	C57.03,24.615,56.977,23.951,57.378,23.591"/>
<path class="st0" d="M117.552,24.472c0.146-0.297,0.199-0.624,0.305-0.935c0.102,0.281,0.323,0.484,0.563,0.655
	c0.266,0.415,0.445,0.877,0.701,1.298c-0.147,0.552-1.022,0.273-1.135,0.859c-0.271,0.41,0.397,0.229,0.619,0.329
	c-0.242,0.393-0.857,0.658-0.734,1.195c0.287,0.457,0.31,0.993,0.408,1.507c1.094,0.174,0.988-1.699,0.687-2.348
	c-0.332-0.302,0.006-0.855,0.399-0.577l-0.01,0.149c-0.279,0.392-0.291,0.731-0.035,1.021c0.098,0.483,0.229,0.958,0.402,1.419
	c-0.047,1.05,0.102,2.109,0.48,3.092c0.03,0.822-0.133,1.68,0.117,2.48c-0.134,0.439-0.072,0.813,0.18,1.125
	c0.012,0.115,0.033,0.34,0.045,0.455c-0.217,0.474-0.176,0.859,0.125,1.16c-0.002,0.07-0.008,0.205-0.012,0.273
	c-0.074,0.502-0.121,1.016-0.127,1.525c-0.031,0.244-0.093,0.731-0.125,0.975c-0.121,0.271-0.246,0.543-0.361,0.816
	c-0.951,0.068-0.105-0.996,0.035-1.396c-0.385-0.283,0.317-0.813-0.197-0.792c0.341-0.362-0.37-1.335,0.337-1.149
	c-0.101-0.58-0.171-1.211-0.666-1.594c-0.03,0.422,0.106,0.883,0.112,1.313c-0.805,0.016-1.34,1.166-1.918,0.051
	c-0.377-1.102-0.813,0.007-0.955,0.593c-0.719-0.647-0.84,0.679-0.98,1.177c0.455-0.16,1.497-1.137,0.906,0.285
	c-0.318,0.465,0.581,0.676,0.119,0.993c-0.301,0.528-0.143,1.179,0.005,1.737c0.317,0.572,0.302-0.377,0.44-0.631
	c0.274,0.396-0.276,1.002,0.282,1.221c0.521,0.238,0.497,0.729,0.243,1.169c-0.031,0.069-0.1,0.208-0.132,0.276
	c-0.187,0.211-0.361,0.445-0.368,0.742c0.313,0.047,0.73,0.016,0.637,0.457c-0.548-0.223-0.572,0.348-0.717,0.729
	c-0.896-0.586-0.968-1.828-0.777-2.786c-0.969-0.037,0.135,1.214-0.685,1.261c-0.469,0.26-0.228-0.543-0.326-0.798
	c0.146-0.795,0.241-1.638-0.071-2.403c-0.457-1.031-0.326-2.195,0.123-3.209c0.35-0.846,0.672-1.672,0.724-2.602
	c0.083-0.57,0.147-1.145-0.017-1.699c-0.084-0.461-0.152-0.92-0.248-1.377c0.041-0.882-0.064-1.758-0.186-2.629
	c-0.044-0.86,0.164-0.903,0.598-0.206c1.069,0.191,0.274-0.916,0.768-1.371c-0.754,0.254-0.016-0.571-0.205-0.937
	c-0.268-0.571,0.055-1.151,0.271-1.687c-0.561-0.091-1.111-0.386-0.763-1.018C116.462,23.817,117.311,25.147,117.552,24.472"/>
<path class="st0" d="M74.864,24.547c0.631,0.08-0.064,1.037-0.493,0.824C73.659,25.371,74.621,24.665,74.864,24.547"/>
<path class="st0" d="M1.013,25.511c-0.099-0.218-0.14-0.536,0.122-0.656C1.208,25.081,1.198,25.34,1.013,25.511"/>
<path class="st0" d="M114.186,24.828c0.302-0.052,0.425,0.254,0.338,0.501C114.325,25.233,114.217,25.035,114.186,24.828"/>
<path class="st0" d="M11.09,27.165c-0.039-0.732-0.032-1.472,0.072-2.198c0.027,0.232,0.057,0.465,0.087,0.697l0.014,0.12
	C11.217,26.243,11.204,26.713,11.09,27.165"/>
<path class="st0" d="M119.12,25.489c0.191,0.287,0.313,0.616,0.244,0.965c-0.393-0.278-0.73,0.275-0.4,0.577
	c0.303,0.648,0.408,2.521-0.685,2.348c-0.099-0.514-0.122-1.05-0.409-1.506c-0.122-0.538,0.491-0.803,0.734-1.196
	c-0.221-0.1-0.891,0.081-0.619-0.329C118.097,25.762,118.974,26.042,119.12,25.489"/>
<path class="st0" d="M71.854,26.551c0.145-0.51,0.933-0.591,1.362-0.407c0.252,0.457,0.639,0.76,1.174,0.819
	c-0.555,0.56-1.166,1.063-2.039,0.696C72.876,27.187,72.216,26.829,71.854,26.551"/>
<path class="st0" d="M7.202,26.164c0.928-0.15,1.614,0.721,1.541,1.478c0.545,0.071,0.129,0.621-0.133,0.754
	c-0.386-0.215-1.132-0.337-0.877-0.938c-0.25-0.571-0.549,0.489-0.627-0.113C5.865,27.691,7.19,26.758,7.202,26.164"/>
<path class="st0" d="M119.319,27.625c-0.256-0.29-0.244-0.63,0.035-1.021C119.474,26.935,119.493,27.31,119.319,27.625"/>
<path class="st0" d="M65.288,27.61c0.257,0.057,0.672,0.521,0.716,0.027c0.442-0.229,0.601,0.255,0.13,0.356
	c-0.076,0.546,0.385,0.333,0.639,0.103c0.328,0.123,0.568,0.161,0.49-0.275c0.79-0.173,0.566,0.469,0.934,0.928
	c-0.444,0.942-1.439-0.468-2.154,0.25C65.409,29.266,65.288,27.971,65.288,27.61"/>
<path class="st0" d="M0.456,29.927c0.001-0.211,0.005-0.633,0.006-0.843C0.716,29.367,0.943,29.736,0.456,29.927"/>
<path class="st0" d="M119.722,29.045c0.208,1.011,0.736,2.049,0.48,3.092C119.823,31.154,119.675,30.095,119.722,29.045"/>
<path class="st0" d="M65.296,29.734c0.992-0.184,0.777,0.955,1.129,1.594c-0.321,1.128-0.371-0.467-0.959-0.599
	C66.304,30.532,64.99,30.245,65.296,29.734"/>
<path class="st0" d="M0.159,31.5c0.085-0.452-0.13-1.047,0.15-1.423c0.042,0.079,0.13,0.24,0.172,0.32
	C0.385,30.769,0.266,31.127,0.159,31.5"/>
<path class="st0" d="M7.501,30.874c0.5-0.092,0.308,0.732,0.466,1.065c-0.354-0.009-0.981,0.091-1.008-0.402
	C7.434,31.826,7.334,31.149,7.501,30.874"/>
<path class="st0" d="M0.069,32.992c-0.097-0.498-0.04-1.006,0.089-1.493C0.134,31.998,0.1,32.49,0.069,32.992"/>
<path class="st0" d="M9.078,31.721c0.171-0.276,0.41-0.135,0.509,0.123c-0.071,0.301-0.364,0.461-0.544,0.69
	c0.3,0.698-0.374,1.248-0.556,1.88c0.181,0.288,0.301,0.576,0.016,0.844c0.683,2.094,1.743,3.895,2.346,6.012
	c0.149,0.189,0.235,0.121,0.258-0.198c0.862,0.616,0.619,2.06,1.167,2.937c0.565,1.176,0.97,2.426,1.065,3.736
	c0.171,1.059,0.947,1.875,1.283,2.859c-0.576,0.35,0.013,0.809,0.075,1.273c-0.116,0.694,0.352,0.982,0.896,1.008
	c0.1,0.711-0.948,0.818-1.071,1.481c-0.02,0.69-0.939-0.155-1.012,0.548c-0.196,0.592-0.84,0.955-1.405,0.588
	c-0.961-0.076-0.308-1.222-0.538-1.861c0.294-0.313,1.39-1.219,1.309-0.375c0.469-0.383,0.703-0.321,0.646,0.34
	c0.91-0.107-0.012-0.957-0.272-1.329c-0.491,0.006-0.909-0.856-1.298-0.364c-0.377,0.461-0.7-0.74-1.123-0.332
	c-1.024,0.629-0.448,2.439-1.907,2.355c0.23,0.725,1.262,1.119,0.889,1.971c0.535,0.008,0.515-0.676,0.911-0.883
	c0.403,0.182,0.669,0.645,0.349,1.035c-0.449,0.529,0.189,0.996,0.455,1.427c-0.552,0.489-0.859,1.161-1.18,1.812
	c-1.014-1.127-1.849-2.389-2.704-3.604c-0.745-0.395-1.101-1.055-1.078-1.866c-1.15-0.784-1.823-1.892-2.149-3.216
	c-0.055-1.08-0.702-2.012-0.857-3.074c-0.355-1.281-1.017-2.453-1.384-3.732c-0.369-1.192-0.501-2.469-1.165-3.551
	c-0.252-0.388-0.168-0.84-0.078-1.258C1.38,38.723,2.117,39,1.979,39.605c0.419-0.729,0.254,0.744,0.873,0.293
	c0.48-0.67,0.801-1.535,1.587-1.902c0.229,0.992,1.641,1.328,1.183,2.537c-0.073,0.652,0.365,0.055,0.663-0.064
	c0.355,0.555,0.883,0.625,1.486,0.463c-0.008,0.787,0.567,0.791,1.356,0.766c-0.078-0.447-0.094-1.625-0.861-1.336
	c-0.211-0.523,1.022-0.959,0.033-0.928c-0.778-0.422,0.434-1.467-0.293-1.969c-0.61-0.469,0.829-1.992-0.418-1.662
	c-0.576-0.211,0.157-0.82-0.22-1.201c0.854-0.223,1.078-1.152,0.494-1.797C8.254,32.42,8.911,32.299,9.078,31.721 M5.121,40.836
	c-0.081,0.434-0.617-0.088-0.611,0.379c-0.503,0.334,0.197,1.125-0.423,1.348c-0.194-0.285-0.572-1.496-0.812-0.648
	c-0.194,0.778-0.409-0.283-0.793-0.386c-0.216-1.494-0.601,0.903,0.117,1.194c0.352,0.291,0.584-0.334,0.976-0.18
	c0.072,0.575-0.256,1.078-0.451,1.596c0.448,0.154,1.39,0.904,0.978-0.406c0.722-0.354,1.037-0.959,0.68-1.799
	C5.112,41.817,5.516,40.521,5.121,40.836 M9.663,47.494c-0.362,0.254-0.708,0.575-0.564,1.066
	C9.769,48.926,10.111,47.268,9.663,47.494"/>
<path class="st0" d="M120.202,32.137c0.393,0.764,0.044,1.666,0.117,2.481C120.069,33.816,120.233,32.959,120.202,32.137"/>
<path class="st0" d="M0.055,33.564c0.138,0.501,0.094,1.018,0.086,1.537C-0.091,34.619,0.027,34.076,0.055,33.564"/>
<path class="st0" d="M120.319,34.617c0.369,0.213,0.431,0.588,0.18,1.125C120.246,35.43,120.187,35.057,120.319,34.617"/>
<path class="st0" d="M0.141,35.102c0.324,0.148,0.242,0.539,0.132,0.804C0.107,35.668,0.105,35.375,0.141,35.102"/>
<path class="st0" d="M119.553,36.016c0.495,0.381,0.565,1.015,0.665,1.594c-0.705-0.186,0.006,0.787-0.336,1.148
	c-0.305,0.68-1.1,1.061-1.145,1.84l-0.111,0.02c-0.385,0.016-0.666,0.305-0.963,0.518c0.406,0.779,1.387,2.287,0.145,2.787
	c0.254-0.439,0.277-0.929-0.243-1.168c-0.56-0.219-0.008-0.824-0.283-1.22c-0.144-0.368,0.067-0.989-0.444-1.106
	c0.461-0.318-0.438-0.531-0.119-0.994c0.592-1.422-0.451-0.445-0.906-0.285c0.141-0.498,0.262-1.824,0.98-1.178
	c0.143-0.584,0.58-1.693,0.957-0.592c0.575,1.116,1.111-0.035,1.918-0.051C119.659,36.898,119.522,36.438,119.553,36.016"/>
<path class="st0" d="M120.544,36.197c0.283,0.301,0.325,0.689,0.127,1.16C120.369,37.057,120.327,36.671,120.544,36.197"/>
<path class="st0" d="M0.701,37.492c0.016,0.254,0.049,0.764,0.064,1.018C0.75,38.256,0.717,37.746,0.701,37.492"/>
<path class="st0" d="M120.53,39.156c0.005-0.51,0.053-1.023,0.127-1.525C120.69,38.145,120.615,38.648,120.53,39.156"/>
<path class="st0" d="M6.478,38.146c0.645-0.332,1.894,0.342,0.898,0.811C7.271,38.469,6.762,38.398,6.478,38.146"/>
<path class="st0" d="M118.737,40.598c0.045-0.779,0.84-1.16,1.145-1.84c0.516-0.02-0.188,0.511,0.198,0.793
	c-0.141,0.402-0.987,1.465-0.036,1.398l-0.009,0.145c-0.632-0.039-1.379-0.086-0.614,0.275c-1.053-0.518-1.035,1.408-0.264,1.588
	c0.352,0.045,0.121,0.832-0.207,0.654c-0.55-0.168-0.68,0.745-1.273,0.588c0.031-0.068,0.099-0.207,0.131-0.277
	c1.242-0.502,0.262-2.008-0.145-2.787c0.297-0.213,0.578-0.502,0.963-0.518C117.819,41.029,118.917,41.408,118.737,40.598"/>
<path class="st0" d="M7.007,39c0.426,0.369,1.048,0.886,0.887,1.58c-0.405,0.201-1.347,0.461-1.035-0.246
	C7.571,40.143,6.312,39.393,7.007,39"/>
<path class="st0" d="M5.121,40.836c0.395-0.313-0.008,0.982-0.339,1.099c0.357,0.838,0.042,1.444-0.681,1.8
	c0.413,1.309-0.529,0.559-0.978,0.404c0.195-0.518,0.524-1.021,0.452-1.598c-0.393-0.152-0.624,0.471-0.976,0.183
	c-0.718-0.292-0.333-2.688-0.117-1.196c0.383,0.104,0.599,1.166,0.792,0.387c0.241-0.849,0.619,0.363,0.813,0.648
	c0.62-0.223-0.08-1.014,0.422-1.348C4.504,40.748,5.04,41.27,5.121,40.836"/>
<path class="st0" d="M119.157,42.957c-0.771-0.18-0.789-2.105,0.264-1.588c0.25,0.09,0.441,0.27,0.51,0.533l-0.031,0.139
	c-0.178,0.541-0.196,1.109-0.175,1.674c-0.96,2.738-1.599,5.621-2.452,8.416c0.056,1.174-0.615,2.16-0.982,3.225
	c-0.236,0.465-0.394,0.961-0.511,1.467c-0.21,0.23-0.374,0.496-0.499,0.781c-0.777,0.982-1.025,2.273-1.865,3.185
	c-0.293,0.358-0.539,0.757-0.871,1.081c-0.617-0.27-0.922,0.016-0.986,0.643c-0.463,0.57-0.815,1.256-1.555,1.526
	c-1.615,1.431-2.981,3.122-4.561,4.573c-0.492-0.229-0.379-0.745,0.035-0.977c-0.018-0.332,0.248-1.084-0.323-0.873
	c0.179,0.762-0.373,0.648-0.786,0.211c0.771-0.873,1.79-1.512,2.419-2.517c1.235-1.127,2.414-2.327,3.286-3.769
	c1.739-2.752,3.497-5.609,4-8.889c0.252-0.393,0.273-0.763,0.061-1.105l0.074-0.096l0.105-0.102
	c0.424-0.281,0.189-0.945,0.402-1.311c0.379,0.316,0.434,1.016,0.908,1.146c0.606-0.811-0.318-1.225-0.802-1.721
	c0.955,0.025,0.009-1.07-0.144-1.581c0.231-1.081,0.455-2.166,0.761-3.226c0.099,0.254-0.142,1.057,0.327,0.797
	c0.818-0.047-0.284-1.297,0.684-1.26c-0.191,0.957-0.119,2.201,0.777,2.787c0.145-0.383,0.17-0.953,0.717-0.73
	c0.094-0.441-0.322-0.41-0.637-0.457c0.007-0.297,0.182-0.531,0.369-0.742c0.594,0.156,0.724-0.756,1.272-0.59
	C119.278,43.789,119.509,43.004,119.157,42.957"/>
<path class="st0" d="M119.725,43.713c-0.021-0.561-0.003-1.131,0.175-1.672C119.859,42.6,119.856,43.164,119.725,43.713"/>
<path class="st0" d="M114.679,47.029c0.151,0.512,1.099,1.608,0.144,1.582c0.483,0.496,1.409,0.91,0.801,1.721
	c-0.474-0.131-0.528-0.83-0.907-1.147c-0.212,0.364,0.022,1.028-0.402,1.312c0.18-0.973,0.445-1.955,0.172-2.94
	C114.541,47.377,114.606,47.203,114.679,47.029"/>
<path class="st0" d="M9.663,47.494c0.449-0.227,0.106,1.432-0.564,1.066C8.955,48.069,9.3,47.748,9.663,47.494"/>
<path class="st0" d="M114.207,50.598c-0.377-0.973,0.154-2.057,0.278-3.042c0.273,0.985,0.008,1.968-0.172,2.94L114.207,50.598z"/>
<path class="st0" d="M14.696,51.877c-0.062-0.465-0.651-0.924-0.075-1.273c0.033,0.062,0.099,0.182,0.133,0.242
	c0.209,0.381,0.435,0.752,0.652,1.131c0.316,1.082,0.899,2.063,1.304,3.111c0.057,0.191,0.114,0.383,0.169,0.571
	c-0.052,0.092-0.158,0.272-0.209,0.362c-0.088,0.303-0.633,0.619-0.366,0.914c0.505,0.377-0.281,0.592-0.505,0.91
	c0.612-1.477-0.934-0.26-1.035-1.158c-0.419-0.508-1.103,0.836-0.263,0.547c-0.518,0.979-1.467,1.617-2.18,2.436
	c-0.904-0.176-0.537,1.219-0.446,1.766c-0.527-0.701-0.986-1.451-1.53-2.137c0.321-0.652,0.628-1.324,1.18-1.814
	c-0.266-0.43-0.904-0.896-0.455-1.426c0.321-0.392,0.054-0.854-0.349-1.035c-0.396,0.207-0.375,0.891-0.911,0.883
	c0.373-0.852-0.659-1.246-0.888-1.971c1.458,0.084,0.882-1.726,1.906-2.356c0.423-0.407,0.746,0.794,1.123,0.333
	c0.39-0.492,0.807,0.369,1.298,0.363c0.26,0.373,1.182,1.222,0.273,1.33c0.056-0.66-0.177-0.721-0.647-0.34
	c0.081-0.844-1.015,0.063-1.309,0.375c0.23,0.639-0.423,1.785,0.538,1.86c0.565,0.368,1.21,0.005,1.405-0.587
	c0.073-0.704,0.992,0.143,1.012-0.547c0.123-0.664,1.171-0.771,1.072-1.482C15.048,52.859,14.58,52.572,14.696,51.877"/>
<path class="st0" d="M114.073,51.799c-0.218-0.359-0.197-0.729,0.061-1.105C114.347,51.037,114.325,51.406,114.073,51.799"/>
<path class="st0" d="M16.67,56.021c0.052-0.09,0.157-0.27,0.209-0.361c0.382,0.346,0.811,0.639,1.133,1.049
	c1.002,0.813,1.568,1.942,2.412,2.918c-0.288,0.635,0.312,0.918,0.753,1.225c0.18,0.477,0.096,0.813-0.474,0.729
	c0.479,1.215-0.999,0.735-1.694,0.975c-0.182,0.5,0.917,0.853,0.318,1.242c-0.69,0.401-0.656-0.779-0.7-1.209
	c-0.963-0.48-1.241-2.051-0.3-2.672c0.781,0.576,0.658-0.683,0.41-1.107c0.566-0.569-0.438-1.157-0.857-1.487
	C17.43,56.936,17.026,56.496,16.67,56.021"/>
<path class="st0" d="M16.304,56.935c-0.267-0.294,0.278-0.61,0.366-0.911c0.355,0.471,0.76,0.912,1.21,1.297
	c-0.2,0.926,0.099,1.811,0.446,2.594c-0.94,0.623-0.663,2.193,0.301,2.674c0.044,0.432,0.009,1.609,0.7,1.209
	c0.6-0.391-0.5-0.741-0.318-1.243c0.695-0.237,2.173,0.239,1.694-0.974c0.57,0.084,0.654-0.254,0.474-0.729
	c0.359,0.291,0.264,0.965,0.91,0.883c0.034,0.064,0.101,0.195,0.135,0.258c-0.549,0.588-1.025,1.52-1.938,1.57
	c0.514,0.493,1.273,0.498,1.598,1.209c-0.324,0.102-0.845,1.086-0.307,0.987c-0.102,0.61-0.494,0.894-1.104,0.761
	c0.295-0.865-0.283-1.826-1.151-1.059c-0.049-0.707,0.989-0.789,0.817-1.648c-1.083,0.049-1.708,1.496-0.598,2.09
	c-1.173-0.773-1.12,1.172-2.128,1.364c-0.398-0.511-0.619,0.117-1.025-0.349c-0.745-1.143-1.821-2.012-2.635-3.098
	c0.312-0.595,1.111-0.654,1.599-0.225c0.229,0.014,0.058,1.447,0.503,0.874c-0.154-0.394-0.245-0.819-0.151-1.246
	c-0.668-0.282-1.186-0.774-1.178-1.577c-0.927,0.16-1.968-1.26-2.65-0.212c-0.091-0.545-0.458-1.94,0.446-1.765
	c0.713-0.819,1.662-1.457,2.18-2.436c-0.84,0.289-0.156-1.055,0.263-0.547c0.101,0.898,1.647-0.318,1.035,1.158
	C16.023,57.527,16.809,57.313,16.304,56.935"/>
<path class="st0" d="M17.88,57.32c0.419,0.33,1.423,0.919,0.857,1.488c0.248,0.424,0.371,1.683-0.41,1.107
	C17.979,59.131,17.68,58.247,17.88,57.32"/>
<path class="st0" d="M11.875,61.436c0.682-1.049,1.723,0.371,2.651,0.211c-0.008,0.803,0.51,1.295,1.178,1.578
	c-0.095,0.426-0.004,0.852,0.151,1.244c-0.446,0.574-0.275-0.859-0.504-0.873c-0.487-0.429-1.286-0.369-1.598,0.225
	c-0.314-0.416-0.642-0.822-0.944-1.244c-0.039-0.424-0.167-0.84-0.666-0.854C12.05,61.629,11.961,61.533,11.875,61.436"/>
<path class="st0" d="M20.284,63.563c0.912-0.051,1.389-0.982,1.937-1.57c0.282,0.502,0.103,1.201,0.654,1.539
	c0.038,0.035,0.114,0.106,0.151,0.143c0.584,0.488,1.185,0.924,1.44,1.676c1.047,0.833,1.847,1.939,2.767,2.917
	c0.412,0.442,0.373,1.333,1.137,1.315c0.199,0.24,0.386,0.492,0.57,0.748c-0.121,0.312-0.078,0.709,0.297,0.806l0.027,0.127
	c0.198,1.39-1.672,0.599-1.721-0.364c0.343-1.113-0.523-0.802-0.479-0.271c-0.5,0.004-0.205-1.055-0.879-0.777
	c-0.355,0.563,0.109,1.01,0.362,1.486c-0.211,0.613-0.392,1.354,0.526,1.338c0.182,0.957,0.764,1.711,1.316,2.484
	c-0.753,0.162-0.584,1.182-1.273,1.225c-0.211-0.135-0.422-0.266-0.631-0.398c-0.162-0.207-0.412-0.33-0.676-0.283
	c-0.262-0.162-0.521-0.328-0.779-0.496c-0.252-0.422-0.688-0.651-1.176-0.664c-0.486-0.42-0.867-0.953-1.426-1.287
	c-0.35-0.368-0.583-0.948-1.148-1.002c-0.787-0.609-1.358-1.447-2.133-2.076c0.134-0.247-0.013-0.581-0.325-0.49
	c-0.104-0.104-0.205-0.21-0.304-0.316c0.008-0.584-0.312-1.168-0.981-1.012c0.036-0.33-0.217-0.594-0.544-0.609
	c0.107-0.189,0.255-0.344,0.417-0.481c1.009-0.192,0.955-2.138,2.128-1.364c-1.109-0.594-0.484-2.041,0.597-2.09
	c0.173,0.859-0.865,0.941-0.816,1.648c0.868-0.768,1.445,0.193,1.151,1.059c0.61,0.133,1.004-0.15,1.104-0.76
	c0.195-0.125,0.39-0.262,0.621-0.309c0.183,0.893,1.013,2.512-0.371,2.656c0.146,0.532,0.285,1.678-0.094,0.594
	c-0.209,0.438-0.576,0.756-0.927,1.074c0.169,0.107,0.528,0.047,0.556,0.297c-0.289,1.193,0.674,0.635,1.141,0.443
	c0.059,0.348,0.518,1.016,0.832,0.563c0.523-0.762,0.061-3.029-1.079-1.879c0.241-0.502,0.198-1.422,0.948-1.265
	c0.242,1.909,0.391-0.442,1.119-0.737c-0.267-0.439-0.584-0.857-0.674-1.375c-0.806,0.244-1.281-0.552-1.766-1.051
	C21.558,64.061,20.797,64.056,20.284,63.563"/>
<path class="st0" d="M21.575,65.76c-0.537,0.096-0.018-0.885,0.307-0.988c0.484,0.5,0.959,1.295,1.766,1.049
	c0.09,0.521,0.408,0.938,0.674,1.378c-0.729,0.293-0.877,2.646-1.119,0.735c-0.75-0.156-0.708,0.764-0.947,1.267
	c1.138-1.151,1.603,1.116,1.078,1.877c-0.313,0.454-0.773-0.214-0.832-0.562c-0.467,0.191-1.43,0.75-1.141-0.445
	c-0.027-0.247-0.386-0.188-0.555-0.295c0.351-0.319,0.717-0.637,0.926-1.073c0.38,1.084,0.24-0.062,0.094-0.595
	c1.385-0.143,0.555-1.764,0.37-2.656C21.966,65.5,21.771,65.635,21.575,65.76"/>
<path class="st0" d="M105.155,66.762c0.569-0.211,0.305,0.541,0.322,0.873c-0.414,0.232-0.527,0.748-0.035,0.978
	c-0.906,0.546-1.298,1.583-1.992,2.331c-0.802,0.553-1.35,1.376-1.943,2.13c-1.771,1.069-2.965,3.034-4.842,4.106
	c-2.105,1.229-4,2.756-5.897,4.27c-0.386,0.334-0.776,0.672-1.229,0.91c-0.444-0.074-0.814,0.074-1.035,0.469
	c-1.405,1.109-3.031,1.92-4.493,2.957c-0.356,0.313-0.86,0.07-1.007-0.328c4.238-2.844,8.063-6.246,12.14-9.32
	c2.896-2.106,5.378-4.688,7.699-7.403c0.546-0.554,0.965-1.22,1.526-1.761C104.782,67.41,105.333,67.523,105.155,66.762"/>
<path class="st0" d="M16.387,66.918c0.406,0.466,0.627-0.161,1.025,0.35c-0.163,0.137-0.31,0.291-0.417,0.48
	C16.743,67.509,16.519,67.242,16.387,66.918"/>
<path class="st0" d="M26.187,69.85c0.674-0.277,0.379,0.782,0.879,0.777c-0.046-0.53,0.822-0.842,0.479,0.271
	c0.049,0.963,1.918,1.754,1.721,0.364c0.111,0.401,0.193,0.839,0.4,1.21c0.137,0.447,0.635,0.497,1.004,0.65
	c0.322,0.715,0.933,1.217,1.457,1.779c1.461,1.998,3.76,3,5.584,4.605c-0.109,0.533-0.092,1.251-0.651,1.525
	c-0.324-0.25-0.343-0.865-0.757-0.93c-0.176,0.598-0.836,1.09-0.596,1.764c0.102,0.779,0.737-0.35,1.163-0.367
	c-0.138,0.521-0.413,1.059,0.011,1.525c-0.313-0.084-0.506-0.353-0.742-0.547c-0.018,0.303-0.03,0.607-0.057,0.912
	c-0.674-0.502-1.177-1.18-1.787-1.746c-2.035-1.725-4.312-3.102-6.479-4.693c0.012-0.295-0.237-0.51-0.523-0.455
	c-0.045-0.028-0.131-0.084-0.173-0.113c0.688-0.043,0.519-1.063,1.273-1.225c-0.554-0.773-1.136-1.527-1.318-2.484
	c-0.917,0.016-0.737-0.725-0.526-1.338C26.296,70.859,25.831,70.412,26.187,69.85"/>
<path class="st0" d="M21.282,72.252c0.565,0.053,0.799,0.635,1.148,1.002C21.912,73.112,21.601,72.648,21.282,72.252"/>
<path class="st0" d="M23.856,74.541c0.488,0.013,0.924,0.242,1.176,0.664C24.616,75.033,24.202,74.832,23.856,74.541"/>
<path class="st0" d="M27.291,76.496c0.287-0.055,0.536,0.16,0.524,0.455C27.554,76.928,27.356,76.746,27.291,76.496"/>
<path class="st0" d="M37.71,79.508c0.953,0.625,1.595,1.6,2.296,2.471c1.812,1.424,2.835,3.59,4.993,4.584
	c1.906,1.723,4.098,3.119,5.863,4.992c-0.367,0.006-0.736,0.053-0.726,0.503c-0.853-0.207-1.073-0.921-1.431-1.603
	c-0.615,0.217-0.094,0.77,0.054,1.129c-0.22,0.822,0.885,1.145,0.456,1.998c0.214-0.233,0.24-0.811,0.354-0.196
	c0.297,0.545-0.414,0.7-0.58,1.128c-0.692-0.641-1.455-1.214-2.054-1.951c-0.924-0.996-1.987-1.834-3.067-2.646
	c-0.275-0.223-0.562-0.438-0.832-0.662c-2.115-2.064-4.513-3.717-6.821-5.487c-0.048-0.127-0.093-0.252-0.134-0.376
	c0.026-0.305,0.039-0.609,0.057-0.912c0.236,0.193,0.43,0.463,0.742,0.547c-0.424-0.466-0.148-1.004-0.01-1.525
	c-0.426,0.017-1.063,1.146-1.164,0.367c-0.24-0.674,0.42-1.166,0.596-1.764c0.415,0.064,0.434,0.68,0.756,0.93
	C37.618,80.759,37.601,80.041,37.71,79.508"/>
<path class="st0" d="M78.31,88.42c1.469-0.653,2.646-2.096,4.229-2.346c-0.57,1.385-2.184,1.967-3.282,2.869
	c-0.884,0.527-1.63,1.27-2.569,1.707c-2.396,1.072-4.463,2.725-6.773,3.928c0.029-0.492,0.143-1.012-0.215-1.402
	c0.422-0.237,0.888-0.393,1.289-0.67c1.459-0.762,2.938-1.504,4.377-2.299l0.111-0.07C76.421,89.564,77.401,89.053,78.31,88.42"/>
<path class="st0" d="M48.759,91.584c-0.147-0.359-0.668-0.912-0.053-1.129c0.357,0.682,0.577,1.395,1.43,1.604
	c-0.01-0.451,0.361-0.498,0.727-0.504c0.584,0.506,1.219,0.957,1.764,1.512c0.822,0.734,1.978,0.902,2.879,1.502
	c0.354,0.605,0.756,1.178,1.174,1.744c-0.187,0.707,0.31,0.598,0.816,0.471c0.654,0.775,1.521,1.223,2.438,1.619
	c0.484-0.279,0.926-0.631,1.449-0.844c0.367,0.027,0.39,0.424,0.49,0.699c-0.326,0.191-0.976,0.068-0.783,0.629
	c0.326,0.123,0.681,0.127,1.025,0.162c-0.729,0.799-1.619,1.727-2.807,1.381c-1.104,0.627-1.838-0.66-2.627-1.248
	c-0.737-0.131-1.437-0.387-2.09-0.742c-0.303-0.262-0.614-0.516-0.963-0.713c-0.514-0.521-1.131-0.938-1.776-1.275
	c-1.142-0.357-1.929-1.232-2.861-1.938c0.165-0.428,0.875-0.582,0.579-1.129c-0.113-0.613-0.139-0.037-0.354,0.197
	C49.645,92.727,48.54,92.406,48.759,91.584"/>
<path class="st0" d="M68.683,93.684c0.354-0.137,0.688-0.318,1.016-0.508c0.356,0.391,0.246,0.91,0.215,1.402
	c-0.846,0.408-1.75,0.791-2.461,1.41c-0.078-0.648-1.221,0.16-1.096-0.836c0.715-0.513,1.488-0.941,2.225-1.424L68.683,93.684z"/>
<path class="st0" d="M61.382,97.56c1.617-0.897,3.219-1.795,4.974-2.407c-0.124,0.996,1.019,0.188,1.097,0.836
	c-1.488,1.487-3.625,1.938-5.338,3.061c-0.345-0.034-0.699-0.039-1.025-0.162c-0.192-0.561,0.457-0.438,0.783-0.629
	C61.771,97.982,61.749,97.586,61.382,97.56"/>
</svg>
