<?xml version="1.0" encoding="utf-8"?>
<!-- Generator: Adobe Illustrator 16.0.0, SVG Export Plug-In . SVG Version: 6.00 Build 0)  -->
<!DOCTYPE svg PUBLIC "-//W3C//DTD SVG 1.1//EN" "http://www.w3.org/Graphics/SVG/1.1/DTD/svg11.dtd">
<svg version="1.1" id="Layer_1" xmlns="http://www.w3.org/2000/svg" xmlns:xlink="http://www.w3.org/1999/xlink" x="0px" y="0px"
	 width="94.888px" height="11.963px" viewBox="0 0 94.888 11.963" style="enable-background:new 0 0 94.888 11.963;"
	 xml:space="preserve">
<style type="text/css">
<![CDATA[
	.st0{fill:#D80F81;}
]]>
</style>
<path class="st0" d="M94.668,5.993c-1.746,3.557-5.151,5.971-9.069,5.971s-7.324-2.414-9.07-5.971h-6.826
	c-1.746,3.557-5.153,5.971-9.071,5.971c-3.917,0-7.323-2.414-9.069-5.971h-6.826c-1.746,3.557-5.153,5.971-9.07,5.971
	c-3.918,0-7.325-2.414-9.07-5.971H24.81h-5.428H18.14c-1.745,3.557-5.152,5.971-9.07,5.971c-3.917,0-7.324-2.414-9.07-5.971L0.083,0
	H24.81h70.078L94.668,5.993z"/>
</svg>
