<?xml version="1.0" encoding="utf-8"?>
<!-- Generator: Adobe Illustrator 16.0.0, SVG Export Plug-In . SVG Version: 6.00 Build 0)  -->
<!DOCTYPE svg PUBLIC "-//W3C//DTD SVG 1.1//EN" "http://www.w3.org/Graphics/SVG/1.1/DTD/svg11.dtd">
<svg version="1.1" id="Layer_1" xmlns="http://www.w3.org/2000/svg" xmlns:xlink="http://www.w3.org/1999/xlink" x="0px" y="0px"
	 width="131.395px" height="29.898px" viewBox="0 0 131.395 29.898" style="enable-background:new 0 0 131.395 29.898;"
	 xml:space="preserve">
<style type="text/css">
<![CDATA[
	.st0{fill:#553337;}
	.st1{fill-rule:evenodd;clip-rule:evenodd;fill:#553337;}
]]>
</style>
<path class="st0" d="M5.403,0c0,0-0.207,0.157-0.565,0.483C4.479,0.81,3.972,1.309,3.397,1.999C3.112,2.345,2.813,2.741,2.52,3.19
	c-0.292,0.451-0.58,0.953-0.828,1.512C1.446,5.26,1.236,5.875,1.115,6.535C1.055,6.864,1.015,7.204,1,7.551
	C0.988,7.899,1.002,8.253,1.046,8.61c0.01,0.09,0.026,0.179,0.039,0.268c0.015,0.09,0.034,0.179,0.051,0.269
	C1.131,9.115,1.138,9.149,1.138,9.146l0.004,0.019l0.009,0.036l0.018,0.072C1.18,9.322,1.191,9.37,1.204,9.418
	C1.216,9.467,1.228,9.516,1.24,9.565c0.006,0.024,0.011,0.05,0.018,0.072l0.021,0.064c0.028,0.085,0.056,0.17,0.084,0.256
	l0.021,0.064c0.006,0.021,0.013,0.043,0.023,0.065c0.017,0.044,0.035,0.088,0.052,0.132c0.035,0.088,0.07,0.177,0.106,0.266
	c0.039,0.087,0.082,0.173,0.123,0.26c0.043,0.087,0.079,0.176,0.129,0.26c0.048,0.085,0.095,0.17,0.143,0.255
	c0.044,0.088,0.1,0.169,0.153,0.252c0.053,0.083,0.107,0.167,0.16,0.25c0.059,0.08,0.118,0.161,0.177,0.242
	c0.06,0.081,0.117,0.163,0.184,0.239c0.064,0.078,0.129,0.156,0.193,0.234l0.049,0.059l0.052,0.056l0.105,0.112
	c0.558,0.599,1.212,1.141,1.949,1.589c0.735,0.451,1.539,0.825,2.391,1.109c0.852,0.286,1.752,0.475,2.674,0.58
	c0.116,0.011,0.232,0.023,0.347,0.034l0.174,0.018c0.058,0.004,0.117,0.007,0.175,0.01c0.117,0.006,0.233,0.012,0.35,0.019
	l0.176,0.009l0.176,0.002c0.47,0.01,0.944,0,1.418-0.03c0.949-0.061,1.903-0.198,2.847-0.408c0.236-0.055,0.471-0.115,0.707-0.172
	c0.058-0.015,0.117-0.027,0.176-0.045l0.175-0.05l0.35-0.101l0.175-0.05l0.044-0.013l0.022-0.006
	c0.017-0.005,0.001-0.001,0.012-0.004l0.092-0.029l0.369-0.116l0.343-0.115l0.351-0.121c0.47-0.167,0.94-0.34,1.409-0.526
	c0.234-0.094,0.469-0.186,0.703-0.283c0.234-0.096,0.469-0.196,0.703-0.295c0.938-0.395,1.877-0.809,2.825-1.213
	c0.947-0.404,1.905-0.795,2.879-1.142c0.485-0.176,0.976-0.338,1.47-0.488s0.991-0.286,1.491-0.407
	c0.999-0.242,2.01-0.417,3.015-0.521c0.252-0.021,0.501-0.048,0.753-0.061c0.125-0.006,0.25-0.016,0.374-0.021
	c0.125-0.004,0.25-0.009,0.374-0.014c0.124-0.006,0.248-0.005,0.372-0.006c0.124,0,0.247-0.003,0.37-0.001
	c0.247,0.006,0.491,0.007,0.734,0.023c0.487,0.021,0.966,0.07,1.436,0.128c0.47,0.065,0.93,0.142,1.378,0.242
	c0.896,0.195,1.743,0.455,2.526,0.765c0.782,0.311,1.504,0.664,2.158,1.043c0.655,0.378,1.244,0.778,1.775,1.175
	c0.131,0.101,0.261,0.2,0.388,0.298c0.123,0.102,0.244,0.201,0.363,0.3c0.059,0.048,0.118,0.097,0.176,0.146
	c0.056,0.05,0.112,0.1,0.168,0.149c0.11,0.098,0.218,0.194,0.324,0.289c0.206,0.195,0.404,0.381,0.586,0.564
	c0.09,0.093,0.178,0.184,0.264,0.272c0.085,0.088,0.169,0.174,0.247,0.261c0.635,0.682,1.08,1.26,1.378,1.654
	c0.291,0.401,0.44,0.619,0.44,0.619s-0.225-0.144-0.632-0.415c-0.103-0.066-0.219-0.141-0.345-0.222
	c-0.063-0.04-0.129-0.083-0.197-0.128c-0.069-0.044-0.14-0.091-0.216-0.136c-0.151-0.092-0.31-0.194-0.481-0.3
	c-0.172-0.103-0.355-0.212-0.549-0.328c-0.095-0.059-0.196-0.114-0.299-0.172c-0.102-0.059-0.207-0.118-0.315-0.179
	c-0.027-0.015-0.054-0.03-0.081-0.046c-0.027-0.015-0.055-0.029-0.083-0.045c-0.055-0.029-0.111-0.059-0.168-0.09
	c-0.113-0.06-0.228-0.123-0.346-0.186c-0.119-0.06-0.24-0.122-0.364-0.185c-0.061-0.031-0.123-0.063-0.186-0.095
	c-0.064-0.03-0.128-0.061-0.192-0.091c-0.129-0.062-0.26-0.124-0.394-0.188c-0.134-0.06-0.271-0.121-0.41-0.183
	c-0.556-0.241-1.152-0.477-1.785-0.687c-0.158-0.05-0.319-0.101-0.481-0.153c-0.163-0.046-0.329-0.093-0.496-0.141
	c-0.167-0.042-0.336-0.085-0.508-0.129c-0.171-0.038-0.345-0.077-0.52-0.116c-0.703-0.142-1.437-0.247-2.197-0.298
	c-0.379-0.031-0.767-0.037-1.158-0.043c-0.099,0.001-0.197,0.002-0.296,0.004c-0.049,0-0.099,0.001-0.148,0.002
	c-0.05,0.001-0.1,0.004-0.149,0.005c-0.1,0.004-0.2,0.008-0.3,0.011c-0.1,0.005-0.201,0.013-0.301,0.019
	c-0.202,0.011-0.405,0.032-0.61,0.049c-0.102,0.009-0.204,0.022-0.307,0.034c-0.103,0.011-0.206,0.022-0.309,0.037
	c-0.414,0.049-0.832,0.124-1.254,0.198c-0.212,0.043-0.424,0.079-0.638,0.127c-0.107,0.023-0.214,0.043-0.321,0.068
	c-0.108,0.024-0.215,0.048-0.323,0.072c-0.432,0.102-0.869,0.206-1.31,0.324c-1.766,0.466-3.614,1.044-5.543,1.652
	c-1.929,0.605-3.923,1.27-6.002,1.828l-0.393,0.102l-0.402,0.102l-0.381,0.088l-0.094,0.021c-0.005,0.002-0.037,0.01-0.036,0.008
	l-0.025,0.006l-0.05,0.011l-0.202,0.041l-0.403,0.083l-0.202,0.041c-0.067,0.014-0.135,0.023-0.203,0.035
	c-0.271,0.044-0.541,0.091-0.812,0.132c-1.086,0.154-2.182,0.228-3.271,0.211c-0.544-0.008-1.087-0.038-1.624-0.093l-0.202-0.02
	l-0.201-0.027c-0.133-0.018-0.267-0.036-0.4-0.055c-0.067-0.01-0.134-0.018-0.2-0.029l-0.198-0.036
	c-0.132-0.024-0.264-0.05-0.396-0.073c-1.05-0.209-2.072-0.514-3.032-0.928c-0.96-0.411-1.861-0.922-2.669-1.525
	c-0.811-0.599-1.521-1.3-2.112-2.059c-0.036-0.047-0.073-0.095-0.11-0.142l-0.055-0.071l-0.051-0.074
	c-0.068-0.098-0.136-0.196-0.203-0.294c-0.069-0.096-0.129-0.198-0.19-0.299c-0.061-0.101-0.121-0.202-0.181-0.302
	c-0.055-0.103-0.109-0.207-0.163-0.309c-0.053-0.103-0.109-0.204-0.153-0.311c-0.093-0.211-0.19-0.417-0.262-0.632
	c-0.039-0.107-0.079-0.212-0.115-0.318c-0.031-0.107-0.063-0.214-0.094-0.321c-0.016-0.054-0.031-0.107-0.046-0.16
	c-0.009-0.025-0.015-0.053-0.021-0.082L0.22,10.274c-0.024-0.111-0.049-0.222-0.073-0.332L0.128,9.859
	c-0.006-0.027-0.008-0.05-0.012-0.075c-0.007-0.05-0.014-0.1-0.022-0.15C0.08,9.529,0.063,9.424,0.049,9.32
	C0.039,9.213,0.026,9.108,0.02,9.002c-0.006-0.105-0.015-0.21-0.016-0.314c-0.013-0.417,0.008-0.826,0.06-1.219
	c0.053-0.393,0.134-0.77,0.237-1.129c0.208-0.718,0.501-1.359,0.821-1.926c0.322-0.568,0.674-1.063,1.024-1.496
	c0.351-0.433,0.699-0.805,1.026-1.126C3.826,1.148,4.394,0.709,4.786,0.42C5.18,0.133,5.403,0,5.403,0"/>
<path class="st0" d="M125.992,0c0,0,0.207,0.157,0.565,0.483c0.358,0.327,0.866,0.826,1.44,1.516
	c0.286,0.346,0.585,0.742,0.878,1.191c0.292,0.451,0.58,0.953,0.828,1.512c0.246,0.558,0.456,1.173,0.577,1.833
	c0.06,0.329,0.1,0.669,0.114,1.016c0.013,0.348-0.002,0.702-0.046,1.059c-0.01,0.09-0.026,0.179-0.039,0.268
	c-0.015,0.09-0.034,0.179-0.051,0.269c0.006-0.032-0.001,0.002-0.001-0.001l-0.004,0.019l-0.009,0.036l-0.018,0.072
	c-0.011,0.049-0.022,0.097-0.035,0.145c-0.012,0.049-0.024,0.098-0.036,0.147c-0.006,0.024-0.011,0.05-0.018,0.072l-0.021,0.064
	c-0.028,0.085-0.056,0.17-0.084,0.256l-0.021,0.064c-0.006,0.021-0.013,0.043-0.023,0.065c-0.017,0.044-0.035,0.088-0.052,0.132
	c-0.035,0.088-0.07,0.177-0.106,0.266c-0.039,0.087-0.082,0.173-0.123,0.26c-0.043,0.087-0.079,0.176-0.129,0.26
	c-0.048,0.085-0.095,0.17-0.143,0.255c-0.044,0.088-0.1,0.169-0.153,0.252c-0.053,0.083-0.107,0.167-0.16,0.25
	c-0.059,0.08-0.118,0.161-0.177,0.242c-0.06,0.081-0.117,0.163-0.184,0.239c-0.064,0.078-0.129,0.156-0.193,0.234l-0.049,0.059
	l-0.052,0.056l-0.105,0.112c-0.558,0.599-1.212,1.141-1.949,1.589c-0.735,0.451-1.539,0.825-2.391,1.109
	c-0.852,0.286-1.752,0.475-2.674,0.58c-0.116,0.011-0.232,0.023-0.347,0.034l-0.174,0.018c-0.058,0.004-0.117,0.007-0.175,0.01
	c-0.117,0.006-0.233,0.012-0.35,0.019l-0.176,0.009l-0.176,0.002c-0.47,0.01-0.944,0-1.418-0.03
	c-0.949-0.061-1.903-0.198-2.847-0.408c-0.236-0.055-0.471-0.115-0.707-0.172c-0.058-0.015-0.117-0.027-0.176-0.045l-0.175-0.05
	l-0.35-0.101l-0.176-0.05l-0.043-0.013l-0.022-0.006c-0.017-0.005-0.001-0.001-0.012-0.004l-0.092-0.029l-0.369-0.116l-0.343-0.115
	l-0.351-0.121c-0.47-0.167-0.94-0.34-1.409-0.526c-0.234-0.094-0.469-0.186-0.703-0.283c-0.234-0.096-0.469-0.196-0.703-0.295
	c-0.938-0.395-1.877-0.809-2.825-1.213c-0.947-0.404-1.905-0.795-2.879-1.142c-0.485-0.176-0.976-0.338-1.47-0.488
	s-0.991-0.286-1.491-0.407c-0.999-0.242-2.01-0.417-3.015-0.521c-0.252-0.021-0.501-0.048-0.753-0.061
	c-0.125-0.006-0.25-0.016-0.374-0.021c-0.125-0.004-0.25-0.009-0.374-0.014c-0.124-0.006-0.248-0.005-0.372-0.006
	c-0.124,0-0.247-0.003-0.37-0.001c-0.247,0.006-0.491,0.007-0.734,0.023c-0.487,0.021-0.966,0.07-1.436,0.128
	c-0.47,0.065-0.93,0.142-1.378,0.242c-0.896,0.195-1.743,0.455-2.526,0.765c-0.783,0.311-1.504,0.664-2.158,1.043
	c-0.655,0.378-1.244,0.778-1.775,1.175c-0.131,0.101-0.261,0.2-0.388,0.298c-0.123,0.102-0.244,0.201-0.363,0.3
	c-0.06,0.048-0.118,0.097-0.176,0.146c-0.056,0.05-0.112,0.1-0.168,0.149c-0.11,0.098-0.218,0.194-0.324,0.289
	c-0.206,0.195-0.404,0.381-0.586,0.564c-0.09,0.093-0.178,0.184-0.264,0.272c-0.085,0.088-0.169,0.174-0.247,0.261
	c-0.635,0.682-1.08,1.26-1.378,1.654c-0.291,0.401-0.44,0.619-0.44,0.619s0.225-0.144,0.632-0.415
	c0.103-0.066,0.219-0.141,0.345-0.222c0.063-0.04,0.129-0.083,0.197-0.128c0.069-0.044,0.14-0.091,0.216-0.136
	c0.151-0.092,0.31-0.194,0.481-0.3c0.172-0.103,0.355-0.212,0.549-0.328c0.095-0.059,0.196-0.114,0.299-0.172
	c0.102-0.059,0.207-0.118,0.315-0.179c0.027-0.015,0.054-0.03,0.081-0.046c0.027-0.015,0.055-0.029,0.082-0.045
	c0.056-0.029,0.112-0.059,0.169-0.09c0.113-0.06,0.228-0.123,0.346-0.186c0.119-0.06,0.24-0.122,0.364-0.185
	c0.061-0.031,0.123-0.063,0.186-0.095c0.064-0.03,0.128-0.061,0.192-0.091c0.129-0.062,0.26-0.124,0.394-0.188
	c0.134-0.06,0.271-0.121,0.41-0.183c0.556-0.241,1.152-0.477,1.785-0.687c0.158-0.05,0.319-0.101,0.481-0.153
	c0.163-0.046,0.329-0.093,0.496-0.141c0.167-0.042,0.336-0.085,0.508-0.129c0.171-0.038,0.345-0.077,0.52-0.116
	c0.703-0.142,1.437-0.247,2.197-0.298c0.379-0.031,0.767-0.037,1.158-0.043c0.098,0.001,0.197,0.002,0.296,0.004
	c0.049,0,0.099,0.001,0.148,0.002c0.05,0.001,0.1,0.004,0.149,0.005c0.1,0.004,0.2,0.008,0.3,0.011
	c0.1,0.005,0.201,0.013,0.301,0.019c0.202,0.011,0.405,0.032,0.61,0.049c0.102,0.009,0.204,0.022,0.307,0.034
	c0.103,0.011,0.206,0.022,0.309,0.037c0.414,0.049,0.832,0.124,1.254,0.198c0.212,0.043,0.424,0.079,0.638,0.127
	c0.107,0.023,0.214,0.043,0.321,0.068c0.108,0.024,0.215,0.048,0.323,0.072c0.432,0.102,0.869,0.206,1.31,0.324
	c1.766,0.466,3.614,1.044,5.543,1.652c1.929,0.605,3.923,1.27,6.002,1.828l0.392,0.102l0.403,0.102l0.381,0.088l0.094,0.021
	c0.005,0.002,0.037,0.01,0.036,0.008l0.025,0.006l0.05,0.011l0.202,0.041l0.403,0.083l0.202,0.041
	c0.067,0.014,0.135,0.023,0.203,0.035c0.271,0.044,0.541,0.091,0.812,0.132c1.086,0.154,2.182,0.228,3.271,0.211
	c0.544-0.008,1.086-0.038,1.624-0.093l0.202-0.02l0.201-0.027c0.133-0.018,0.267-0.036,0.4-0.055c0.067-0.01,0.134-0.018,0.2-0.029
	l0.198-0.036c0.132-0.024,0.264-0.05,0.396-0.073c1.05-0.209,2.072-0.514,3.032-0.928c0.96-0.411,1.861-0.922,2.669-1.525
	c0.811-0.599,1.521-1.3,2.112-2.059c0.036-0.047,0.073-0.095,0.11-0.142l0.055-0.071l0.051-0.074
	c0.068-0.098,0.136-0.196,0.203-0.294c0.069-0.096,0.129-0.198,0.19-0.299c0.061-0.101,0.121-0.202,0.181-0.302
	c0.055-0.103,0.109-0.207,0.163-0.309c0.053-0.103,0.109-0.204,0.153-0.311c0.093-0.211,0.19-0.417,0.262-0.632
	c0.039-0.107,0.079-0.212,0.115-0.318c0.031-0.107,0.063-0.214,0.094-0.321c0.015-0.054,0.031-0.107,0.046-0.16
	c0.009-0.025,0.015-0.053,0.021-0.082l0.019-0.083c0.024-0.111,0.049-0.222,0.073-0.332l0.018-0.083
	c0.005-0.027,0.008-0.05,0.012-0.075c0.007-0.05,0.014-0.1,0.022-0.15c0.015-0.105,0.031-0.21,0.046-0.314
	c0.01-0.107,0.023-0.212,0.029-0.318c0.006-0.105,0.015-0.21,0.016-0.314c0.013-0.417-0.008-0.826-0.06-1.219
	c-0.053-0.393-0.134-0.77-0.237-1.129c-0.208-0.718-0.501-1.359-0.821-1.926c-0.322-0.568-0.674-1.063-1.024-1.496
	c-0.351-0.433-0.699-0.805-1.026-1.126c-0.654-0.644-1.222-1.083-1.614-1.372C126.215,0.133,125.992,0,125.992,0"/>
<path class="st1" d="M69.502,29.276c1.016-4.523-0.774-9.775-3.844-13.041c2.947,5.411,2.235,10.296-0.152,13.663"/>
<path class="st1" d="M65.81,2.569c-0.051,0-0.101-0.002-0.152-0.002c-1.339,0-2.63,0.219-3.843,0.624
	c-1.016,4.524,0.773,9.775,3.844,13.041C62.711,10.82,63.423,5.934,65.81,2.569"/>
<path class="st1" d="M62.861,29.574c3.005-3.377,3.921-8.878,2.796-13.338c0.011,6.255-2.902,10.109-6.551,11.751"/>
<path class="st1" d="M72.21,4.479c-1.148-0.727-2.412-1.269-3.755-1.586c-3.005,3.377-3.921,8.878-2.796,13.338
	C65.648,9.977,68.562,6.123,72.21,4.479"/>
<path class="st1" d="M54.462,22.925c0.667,1.261,1.516,2.398,2.51,3.371c4.187-1.327,7.563-5.603,8.685-10.062
	C62.727,21.658,58.395,23.444,54.462,22.925"/>
<path class="st1" d="M76.855,9.542c-0.667-1.261-1.516-2.398-2.51-3.372c-4.187,1.328-7.563,5.602-8.685,10.063
	C68.59,10.81,72.923,9.023,76.855,9.542"/>
<path class="st1" d="M52.821,16.071c0,0.054-0.002,0.107-0.002,0.162c0,1.425,0.206,2.799,0.586,4.091
	c4.25,1.082,9.184-0.824,12.253-4.091C60.573,19.371,55.982,18.612,52.821,16.071"/>
<path class="st1" d="M78.497,16.395c0-0.054,0.001-0.107,0.001-0.161c0-1.425-0.205-2.799-0.585-4.091
	c-4.25-1.082-9.185,0.823-12.252,4.091C70.744,13.097,75.334,13.854,78.497,16.395"/>
<path class="st1" d="M54.616,9.26c-0.683,1.222-1.192,2.566-1.49,3.996c3.172,3.198,8.34,4.173,12.532,2.977
	C59.78,16.243,56.16,13.143,54.616,9.26"/>
<path class="st1" d="M76.701,23.208c0.683-1.223,1.192-2.568,1.49-3.996c-3.172-3.199-8.34-4.174-12.532-2.977
	C71.538,16.224,75.157,19.324,76.701,23.208"/>
<path class="st1" d="M59.372,4.316c-1.185,0.709-2.253,1.614-3.167,2.672c1.246,4.456,5.262,8.049,9.454,9.244
	C60.563,13.113,58.884,8.502,59.372,4.316"/>
<path class="st1" d="M71.946,28.15c1.185-0.71,2.253-1.614,3.167-2.672c-1.246-4.456-5.263-8.05-9.454-9.243
	C70.755,19.354,72.433,23.964,71.946,28.15"/>
</svg>
